{"glyphs":{"0":{"ha":1049,"x_min":76,"x_max":972,"o":"m 524 -13 q 285 44 385 -13 q 131 220 185 102 q 76 514 76 338 q 131 808 76 690 q 285 984 185 926 q 524 1041 385 1041 q 763 984 663 1041 q 918 808 863 926 q 972 514 972 690 q 918 220 972 338 q 763 44 863 102 q 524 -13 662 -13 m 525 185 q 637 216 592 185 q 707 319 683 247 q 732 513 732 391 q 707 709 732 636 q 637 812 683 781 q 525 843 592 843 q 412 812 458 843 q 341 709 366 781 q 317 515 317 637 q 341 319 317 392 q 411 216 366 247 q 525 185 457 185 z "},"1":{"ha":687,"x_min":30,"x_max":572,"o":"m 406 1031 l 572 1031 l 572 0 l 326 0 l 326 743 l 30 531 l 30 761 l 406 1031 z "},"2":{"ha":846,"x_min":28,"x_max":803,"o":"m 803 192 l 803 0 l 40 0 l 40 126 l 373 483 q 476 614 447 562 q 505 714 505 666 q 457 818 505 785 q 297 851 408 851 q 155 839 227 851 q 28 806 83 826 l 28 999 q 162 1029 81 1017 q 315 1041 242 1041 q 642 967 537 1041 q 747 741 747 894 q 708 579 747 656 q 576 405 669 501 l 372 192 l 803 192 z "},"3":{"ha":852,"x_min":40,"x_max":801,"o":"m 588 532 q 746 451 690 512 q 801 290 801 390 q 692 66 801 146 q 351 -13 582 -13 q 40 26 188 -13 l 40 201 q 187 172 109 183 q 338 160 265 160 q 517 197 461 160 q 574 304 574 233 q 523 405 574 372 q 354 438 472 438 l 165 438 l 165 613 l 306 613 q 477 645 424 613 q 530 741 530 677 q 481 835 530 802 q 331 867 431 867 q 194 857 265 867 q 63 826 124 846 l 63 1001 q 200 1030 121 1019 q 352 1041 278 1041 q 661 968 557 1041 q 765 759 765 894 q 718 617 765 676 q 588 532 671 558 z "},"4":{"ha":988,"x_min":28,"x_max":963,"o":"m 963 393 l 963 204 l 817 204 l 817 0 l 594 0 l 594 204 l 28 204 l 28 335 l 426 1028 l 664 1028 l 301 393 l 594 393 l 617 681 l 817 681 l 817 393 l 963 393 z "},"5":{"ha":862,"x_min":57,"x_max":820,"o":"m 334 627 q 617 580 510 618 q 772 475 724 542 q 820 310 820 408 q 708 70 820 153 q 368 -13 596 -13 q 57 30 208 -13 l 57 205 q 205 175 127 186 q 356 164 282 164 q 534 200 478 164 q 591 306 591 236 q 563 383 591 353 q 464 431 535 413 q 263 456 393 449 l 94 464 l 133 1028 l 775 1028 l 775 851 l 350 851 l 334 627 z "},"6":{"ha":973,"x_min":83,"x_max":926,"o":"m 562 620 q 830 542 733 620 q 926 306 926 464 q 880 137 926 209 q 744 26 833 65 q 531 -13 656 -13 q 293 41 394 -13 q 138 204 192 94 q 83 476 83 314 q 144 784 83 658 q 326 976 205 910 q 624 1041 447 1041 q 756 1033 697 1041 q 869 1004 816 1024 l 869 826 q 759 854 819 844 q 641 864 699 864 q 404 788 483 864 q 319 565 324 711 q 433 606 368 591 q 562 620 497 620 m 531 154 q 659 192 613 154 q 706 301 706 229 q 656 415 706 377 q 513 452 606 452 q 414 440 464 452 q 320 406 363 428 q 380 212 326 270 q 531 154 433 154 z "},"7":{"ha":803,"x_min":9,"x_max":763,"o":"m 9 1028 l 763 1028 l 763 901 l 391 0 l 140 0 l 501 835 l 9 835 l 9 1028 z "},"8":{"ha":1049,"x_min":67,"x_max":979,"o":"m 776 545 q 932 439 885 501 q 979 288 979 376 q 931 134 979 201 q 781 26 882 66 q 527 -13 679 -13 q 178 58 290 -13 q 67 253 67 129 q 118 402 67 338 q 265 501 169 467 q 139 608 178 546 q 99 751 99 670 q 148 903 99 838 q 296 1005 197 968 q 542 1041 395 1041 q 763 1010 672 1041 q 900 922 853 980 q 947 783 947 864 q 776 545 947 619 m 535 879 q 380 847 429 879 q 330 761 330 815 q 351 692 330 720 q 432 641 373 665 q 602 595 490 618 l 609 594 q 705 665 675 626 q 734 755 734 705 q 684 847 734 815 q 535 879 634 879 m 528 149 q 751 273 751 149 q 728 341 751 313 q 646 391 704 369 q 482 433 588 413 l 422 446 q 327 377 358 418 q 296 287 296 335 q 353 184 296 219 q 528 149 410 149 z "},"9":{"ha":973,"x_min":47,"x_max":890,"o":"m 442 1041 q 680 987 579 1041 q 835 824 781 933 q 890 551 890 714 q 829 243 890 369 q 647 52 768 117 q 349 -13 526 -13 q 217 -5 276 -13 q 103 24 157 3 l 103 202 q 214 174 153 183 q 332 164 274 164 q 569 240 490 164 q 653 463 649 317 q 540 422 605 437 q 411 408 476 408 q 143 486 240 408 q 47 722 47 564 q 93 891 47 819 q 228 1002 140 963 q 442 1041 317 1041 m 267 726 q 317 613 267 651 q 460 576 367 576 q 559 588 509 576 q 653 622 610 599 q 593 816 647 758 q 442 874 540 874 q 314 836 360 874 q 267 726 267 799 z "},"\u0000":{"ha":0,"x_min":0,"x_max":0,"o":""},"\r":{"ha":398,"x_min":0,"x_max":0,"o":""}," ":{"ha":398,"x_min":0,"x_max":0,"o":""},"A":{"ha":1156,"x_min":18,"x_max":1139,"o":"m 897 0 l 799 272 l 356 272 l 258 0 l 18 0 l 401 1028 l 755 1028 l 1139 0 l 897 0 m 422 456 l 733 456 l 577 889 l 422 456 z "},"Á":{"ha":1156,"x_min":18,"x_max":1139,"o":"m 897 0 l 799 272 l 356 272 l 258 0 l 18 0 l 401 1028 l 755 1028 l 1139 0 l 897 0 m 422 456 l 733 456 l 577 889 l 422 456 m 466 1108 l 611 1318 l 867 1318 l 685 1108 l 466 1108 z "},"Ă":{"ha":1156,"x_min":18,"x_max":1139,"o":"m 897 0 l 799 272 l 356 272 l 258 0 l 18 0 l 401 1028 l 755 1028 l 1139 0 l 897 0 m 422 456 l 733 456 l 577 889 l 422 456 m 578 1110 q 364 1166 439 1110 q 275 1312 290 1222 l 422 1312 q 470 1247 432 1271 q 578 1224 508 1224 q 734 1312 713 1224 l 881 1312 q 792 1166 866 1221 q 578 1110 717 1110 z "},"Ắ":{"ha":1156,"x_min":18,"x_max":1139,"o":"m 897 0 l 799 272 l 356 272 l 258 0 l 18 0 l 401 1028 l 755 1028 l 1139 0 l 897 0 m 422 456 l 733 456 l 577 889 l 422 456 m 507 1273 l 605 1440 l 776 1440 l 649 1273 l 507 1273 m 578 1110 q 384 1159 452 1110 q 301 1291 317 1207 l 424 1291 q 469 1227 435 1249 q 578 1206 502 1206 q 662 1216 631 1206 q 710 1244 694 1226 q 736 1291 726 1263 l 854 1291 q 772 1159 839 1207 q 578 1110 705 1110 z "},"Ặ":{"ha":1156,"x_min":18,"x_max":1139,"o":"m 897 0 l 799 272 l 356 272 l 258 0 l 18 0 l 401 1028 l 755 1028 l 1139 0 l 897 0 m 422 456 l 733 456 l 577 889 l 422 456 m 578 -290 q 470 -264 506 -290 q 435 -190 435 -237 q 470 -116 435 -143 q 578 -89 506 -89 q 687 -116 651 -89 q 722 -190 722 -143 q 687 -264 722 -237 q 578 -290 651 -290 m 578 1110 q 364 1166 439 1110 q 275 1312 290 1222 l 422 1312 q 470 1247 432 1271 q 578 1224 508 1224 q 734 1312 713 1224 l 881 1312 q 792 1166 866 1221 q 578 1110 717 1110 z "},"Ằ":{"ha":1156,"x_min":18,"x_max":1139,"o":"m 897 0 l 799 272 l 356 272 l 258 0 l 18 0 l 401 1028 l 755 1028 l 1139 0 l 897 0 m 422 456 l 733 456 l 577 889 l 422 456 m 507 1273 l 379 1440 l 551 1440 l 649 1273 l 507 1273 m 577 1110 q 384 1159 451 1110 q 301 1291 317 1207 l 419 1291 q 445 1244 429 1263 q 493 1216 462 1226 q 577 1206 525 1206 q 687 1227 653 1206 q 731 1291 720 1249 l 854 1291 q 771 1159 839 1207 q 577 1110 703 1110 z "},"Ẳ":{"ha":1156,"x_min":18,"x_max":1139,"o":"m 897 0 l 799 272 l 356 272 l 258 0 l 18 0 l 401 1028 l 755 1028 l 1139 0 l 897 0 m 422 456 l 733 456 l 577 889 l 422 456 m 518 1273 q 540 1312 519 1298 q 597 1341 560 1326 q 634 1358 622 1351 q 646 1376 646 1365 q 563 1399 646 1399 q 492 1395 526 1399 q 417 1383 459 1392 l 417 1456 q 495 1469 451 1464 q 579 1474 538 1474 q 721 1452 675 1474 q 767 1389 767 1430 q 756 1354 767 1369 q 728 1331 744 1340 q 687 1310 713 1322 q 650 1291 662 1299 q 637 1273 638 1283 l 518 1273 m 577 1110 q 384 1159 451 1110 q 301 1291 317 1207 l 424 1291 q 468 1227 435 1249 q 577 1206 501 1206 q 661 1216 629 1206 q 710 1244 693 1226 q 736 1291 726 1263 l 854 1291 q 771 1159 839 1207 q 577 1110 703 1110 z "},"Ẵ":{"ha":1156,"x_min":18,"x_max":1139,"o":"m 897 0 l 799 272 l 356 272 l 258 0 l 18 0 l 401 1028 l 755 1028 l 1139 0 l 897 0 m 422 456 l 733 456 l 577 889 l 422 456 m 693 1326 q 632 1332 662 1326 q 563 1349 603 1338 q 503 1364 524 1360 q 460 1369 483 1369 q 387 1358 422 1369 q 301 1322 351 1348 l 301 1419 q 381 1454 344 1444 q 463 1463 418 1463 q 522 1457 494 1463 q 592 1440 551 1451 q 651 1424 628 1429 q 695 1419 673 1419 q 768 1430 733 1419 q 854 1466 804 1440 l 854 1369 q 774 1335 811 1344 q 693 1326 738 1326 m 577 1110 q 384 1159 451 1110 q 301 1291 317 1207 l 424 1291 q 468 1227 435 1249 q 577 1206 501 1206 q 687 1227 653 1206 q 731 1291 720 1249 l 854 1291 q 771 1159 839 1207 q 577 1110 703 1110 z "},"Â":{"ha":1156,"x_min":18,"x_max":1139,"o":"m 897 0 l 799 272 l 356 272 l 258 0 l 18 0 l 401 1028 l 755 1028 l 1139 0 l 897 0 m 422 456 l 733 456 l 577 889 l 422 456 m 900 1108 l 703 1108 l 578 1230 l 452 1108 l 256 1108 l 476 1318 l 679 1318 l 900 1108 z "},"Ấ":{"ha":1156,"x_min":18,"x_max":1139,"o":"m 897 0 l 799 272 l 356 272 l 258 0 l 18 0 l 401 1028 l 755 1028 l 1139 0 l 897 0 m 422 456 l 733 456 l 577 889 l 422 456 m 867 1433 l 1040 1433 l 912 1262 l 770 1262 l 867 1433 m 476 1297 l 679 1297 l 900 1108 l 703 1108 l 578 1219 l 452 1108 l 256 1108 l 476 1297 z "},"Ậ":{"ha":1156,"x_min":18,"x_max":1139,"o":"m 897 0 l 799 272 l 356 272 l 258 0 l 18 0 l 401 1028 l 755 1028 l 1139 0 l 897 0 m 422 456 l 733 456 l 577 889 l 422 456 m 578 -290 q 470 -264 506 -290 q 435 -190 435 -237 q 470 -116 435 -143 q 578 -89 506 -89 q 687 -116 651 -89 q 722 -190 722 -143 q 687 -264 722 -237 q 578 -290 651 -290 m 900 1108 l 703 1108 l 578 1230 l 452 1108 l 256 1108 l 476 1318 l 679 1318 l 900 1108 z "},"Ầ":{"ha":1156,"x_min":18,"x_max":1139,"o":"m 897 0 l 799 272 l 356 272 l 258 0 l 18 0 l 401 1028 l 755 1028 l 1139 0 l 897 0 m 422 456 l 733 456 l 577 889 l 422 456 m 935 1262 l 794 1262 l 666 1433 l 838 1433 l 935 1262 m 476 1297 l 679 1297 l 900 1108 l 703 1108 l 578 1219 l 452 1108 l 256 1108 l 476 1297 z "},"Ẩ":{"ha":1156,"x_min":18,"x_max":1139,"o":"m 897 0 l 799 272 l 356 272 l 258 0 l 18 0 l 401 1028 l 755 1028 l 1139 0 l 897 0 m 422 456 l 733 456 l 577 889 l 422 456 m 831 1463 q 972 1441 926 1463 q 1018 1378 1018 1419 q 1007 1343 1018 1358 q 980 1320 996 1329 q 939 1299 965 1311 q 902 1281 915 1289 q 888 1262 890 1272 l 769 1262 q 791 1301 771 1287 q 849 1331 812 1316 q 886 1348 875 1341 q 897 1365 897 1355 q 814 1388 897 1388 q 743 1384 777 1388 q 669 1372 710 1381 l 669 1445 q 746 1458 703 1453 q 831 1463 790 1463 m 476 1297 l 679 1297 l 900 1108 l 703 1108 l 578 1219 l 452 1108 l 256 1108 l 476 1297 z "},"Ẫ":{"ha":1156,"x_min":18,"x_max":1139,"o":"m 897 0 l 799 272 l 356 272 l 258 0 l 18 0 l 401 1028 l 755 1028 l 1139 0 l 897 0 m 422 456 l 733 456 l 577 889 l 422 456 m 724 1419 q 808 1430 768 1419 q 900 1466 848 1440 l 900 1369 q 815 1335 856 1344 q 722 1326 774 1326 q 646 1332 682 1326 q 561 1349 610 1338 q 487 1364 514 1360 q 432 1369 460 1369 q 347 1358 387 1369 q 256 1322 307 1348 l 256 1419 q 341 1454 300 1444 q 434 1463 383 1463 q 508 1457 474 1463 q 594 1440 542 1451 q 667 1424 638 1429 q 724 1419 695 1419 m 476 1297 l 679 1297 l 900 1108 l 703 1108 l 578 1219 l 452 1108 l 256 1108 l 476 1297 z "},"Ȁ":{"ha":1156,"x_min":18,"x_max":1139,"o":"m 897 0 l 799 272 l 356 272 l 258 0 l 18 0 l 401 1028 l 755 1028 l 1139 0 l 897 0 m 422 456 l 733 456 l 577 889 l 422 456 m 342 1108 l 217 1318 l 401 1318 l 514 1108 l 342 1108 m 642 1108 l 516 1318 l 701 1318 l 814 1108 l 642 1108 z "},"Ä":{"ha":1156,"x_min":18,"x_max":1139,"o":"m 897 0 l 799 272 l 356 272 l 258 0 l 18 0 l 401 1028 l 755 1028 l 1139 0 l 897 0 m 422 456 l 733 456 l 577 889 l 422 456 m 380 1115 q 286 1142 317 1115 q 256 1216 256 1168 q 286 1290 256 1264 q 380 1317 317 1317 q 473 1290 442 1317 q 503 1216 503 1264 q 473 1142 503 1168 q 380 1115 442 1115 m 776 1115 q 683 1142 713 1115 q 652 1216 652 1168 q 683 1290 652 1264 q 776 1317 713 1317 q 869 1290 838 1317 q 900 1216 900 1264 q 869 1142 900 1168 q 776 1115 838 1115 z "},"Ạ":{"ha":1156,"x_min":18,"x_max":1139,"o":"m 897 0 l 799 272 l 356 272 l 258 0 l 18 0 l 401 1028 l 755 1028 l 1139 0 l 897 0 m 422 456 l 733 456 l 577 889 l 422 456 m 578 -290 q 470 -264 506 -290 q 435 -190 435 -237 q 470 -116 435 -143 q 578 -89 506 -89 q 687 -116 651 -89 q 722 -190 722 -143 q 687 -264 722 -237 q 578 -290 651 -290 z "},"À":{"ha":1156,"x_min":18,"x_max":1139,"o":"m 897 0 l 799 272 l 356 272 l 258 0 l 18 0 l 401 1028 l 755 1028 l 1139 0 l 897 0 m 422 456 l 733 456 l 577 889 l 422 456 m 468 1108 l 287 1318 l 542 1318 l 688 1108 l 468 1108 z "},"Ả":{"ha":1156,"x_min":18,"x_max":1139,"o":"m 897 0 l 799 272 l 356 272 l 258 0 l 18 0 l 401 1028 l 755 1028 l 1139 0 l 897 0 m 422 456 l 733 456 l 577 889 l 422 456 m 518 1108 q 540 1151 519 1135 q 597 1183 560 1167 q 634 1202 623 1194 q 646 1222 646 1210 q 626 1240 646 1234 q 563 1247 606 1247 q 492 1243 525 1247 q 417 1229 458 1239 l 417 1313 q 493 1326 450 1322 q 579 1331 536 1331 q 721 1307 675 1331 q 767 1237 767 1283 q 747 1186 767 1205 q 688 1149 726 1168 q 650 1128 662 1136 q 637 1108 638 1119 l 518 1108 z "},"Ȃ":{"ha":1156,"x_min":18,"x_max":1139,"o":"m 897 0 l 799 272 l 356 272 l 258 0 l 18 0 l 401 1028 l 755 1028 l 1139 0 l 897 0 m 422 456 l 733 456 l 577 889 l 422 456 m 275 1113 q 364 1260 290 1205 q 577 1315 438 1315 q 791 1260 717 1315 q 881 1113 866 1204 l 734 1113 q 577 1201 713 1201 q 422 1113 443 1201 l 275 1113 z "},"Ā":{"ha":1156,"x_min":18,"x_max":1139,"o":"m 897 0 l 799 272 l 356 272 l 258 0 l 18 0 l 401 1028 l 755 1028 l 1139 0 l 897 0 m 422 456 l 733 456 l 577 889 l 422 456 m 299 1146 l 299 1281 l 856 1281 l 856 1146 l 299 1146 z "},"Ą":{"ha":1156,"x_min":18,"x_max":1184,"o":"m 1080 -215 q 1184 -195 1124 -215 l 1184 -284 q 1046 -307 1119 -307 q 891 -268 944 -307 q 838 -162 838 -230 q 952 0 838 -61 l 897 0 l 799 272 l 356 272 l 258 0 l 18 0 l 401 1028 l 755 1028 l 1139 0 q 1012 -67 1049 -33 q 975 -143 975 -101 q 1001 -196 975 -177 q 1080 -215 1027 -215 m 422 456 l 733 456 l 577 889 l 422 456 z "},"Å":{"ha":1156,"x_min":18,"x_max":1139,"o":"m 897 0 l 799 272 l 356 272 l 258 0 l 18 0 l 401 1028 l 755 1028 l 1139 0 l 897 0 m 422 456 l 733 456 l 577 889 l 422 456 m 578 1099 q 501 1118 535 1099 q 448 1170 467 1137 q 428 1244 428 1203 q 448 1319 428 1286 q 501 1371 467 1352 q 578 1390 535 1390 q 654 1371 620 1390 q 708 1319 688 1352 q 727 1244 727 1286 q 708 1170 727 1203 q 654 1118 688 1137 q 578 1099 620 1099 m 578 1177 q 625 1195 607 1177 q 642 1244 642 1213 q 625 1293 642 1275 q 578 1312 607 1312 q 531 1293 549 1312 q 513 1244 513 1275 q 531 1195 513 1213 q 578 1177 549 1177 z "},"Ǻ":{"ha":1156,"x_min":18,"x_max":1139,"o":"m 897 0 l 799 272 l 356 272 l 258 0 l 18 0 l 401 1028 l 755 1028 l 1139 0 l 897 0 m 422 456 l 733 456 l 577 889 l 422 456 m 708 1319 q 727 1244 727 1286 q 708 1170 727 1203 q 654 1118 688 1137 q 578 1099 620 1099 q 501 1118 535 1099 q 448 1170 467 1137 q 428 1244 428 1203 q 448 1319 428 1286 q 501 1371 467 1352 q 578 1390 535 1390 q 613 1386 594 1390 l 685 1474 l 847 1474 l 708 1319 m 578 1177 q 625 1195 607 1177 q 642 1244 642 1213 q 625 1293 642 1275 q 578 1312 607 1312 q 531 1293 549 1312 q 513 1244 513 1275 q 531 1195 513 1213 q 578 1177 549 1177 z "},"Ã":{"ha":1156,"x_min":18,"x_max":1139,"o":"m 897 0 l 799 272 l 356 272 l 258 0 l 18 0 l 401 1028 l 755 1028 l 1139 0 l 897 0 m 422 456 l 733 456 l 577 889 l 422 456 m 708 1124 q 642 1131 672 1124 q 566 1151 613 1137 q 499 1169 527 1163 q 442 1175 472 1175 q 363 1164 397 1175 q 292 1129 328 1153 l 292 1256 q 359 1294 322 1282 q 448 1306 397 1306 q 515 1299 484 1306 q 590 1279 545 1292 q 656 1261 628 1267 q 713 1255 684 1255 q 793 1266 758 1255 q 864 1300 828 1276 l 864 1173 q 796 1136 833 1148 q 708 1124 759 1124 z "},"Æ":{"ha":1567,"x_min":18,"x_max":1503,"o":"m 985 184 l 1503 184 l 1503 0 l 755 0 l 731 272 l 356 272 l 258 0 l 18 0 l 403 1028 l 1497 1028 l 1497 844 l 924 844 l 945 617 l 1424 617 l 1424 433 l 962 433 l 985 184 m 423 456 l 716 456 l 683 844 l 563 844 l 423 456 z "},"Ǽ":{"ha":1567,"x_min":18,"x_max":1503,"o":"m 985 184 l 1503 184 l 1503 0 l 755 0 l 731 272 l 356 272 l 258 0 l 18 0 l 403 1028 l 1497 1028 l 1497 844 l 924 844 l 945 617 l 1424 617 l 1424 433 l 962 433 l 985 184 m 423 456 l 716 456 l 683 844 l 563 844 l 423 456 m 683 1108 l 828 1318 l 1085 1318 l 903 1108 l 683 1108 z "},"B":{"ha":1019,"x_min":108,"x_max":974,"o":"m 779 530 q 923 451 872 511 q 974 292 974 390 q 922 127 974 194 q 750 24 870 60 q 428 -12 629 -12 q 270 -6 358 -12 q 108 9 183 0 l 108 999 q 288 1029 190 1018 q 477 1040 386 1040 q 834 967 722 1040 q 947 751 947 894 q 902 610 947 669 q 779 530 858 551 m 504 871 q 349 856 425 871 l 349 612 l 525 612 q 672 643 626 612 q 717 741 717 675 q 697 815 717 787 q 629 857 676 844 q 504 871 583 871 m 492 158 q 649 174 592 158 q 728 220 706 190 q 751 300 751 251 q 731 380 751 349 q 666 425 710 410 q 547 440 621 440 l 349 440 l 349 165 q 492 158 410 158 z "},"C":{"ha":989,"x_min":69,"x_max":942,"o":"m 681 -13 q 226 117 382 -13 q 69 512 69 247 q 141 799 69 681 q 351 979 213 917 q 690 1041 490 1041 q 942 1015 824 1041 l 942 817 q 709 842 828 842 q 420 762 514 842 q 327 515 327 681 q 418 265 327 345 q 697 185 510 185 q 942 217 822 185 l 942 19 q 681 -13 819 -13 z "},"Ć":{"ha":989,"x_min":69,"x_max":942,"o":"m 681 -13 q 226 117 382 -13 q 69 512 69 247 q 141 799 69 681 q 351 979 213 917 q 690 1041 490 1041 q 942 1015 824 1041 l 942 817 q 709 842 828 842 q 420 762 514 842 q 327 515 327 681 q 418 265 327 345 q 697 185 510 185 q 942 217 822 185 l 942 19 q 681 -13 819 -13 m 474 1108 l 619 1318 l 876 1318 l 694 1108 l 474 1108 z "},"Č":{"ha":989,"x_min":69,"x_max":942,"o":"m 681 -13 q 226 117 382 -13 q 69 512 69 247 q 141 799 69 681 q 351 979 213 917 q 690 1041 490 1041 q 942 1015 824 1041 l 942 817 q 709 842 828 842 q 420 762 514 842 q 327 515 327 681 q 418 265 327 345 q 697 185 510 185 q 942 217 822 185 l 942 19 q 681 -13 819 -13 m 712 1318 l 908 1318 l 688 1108 l 485 1108 l 264 1318 l 460 1318 l 586 1195 l 712 1318 z "},"Ç":{"ha":989,"x_min":69,"x_max":942,"o":"m 709 842 q 420 762 514 842 q 327 515 327 681 q 418 265 327 345 q 697 185 510 185 q 942 217 822 185 l 942 19 q 681 -13 819 -13 q 632 -12 648 -13 l 632 -58 q 734 -97 700 -66 q 768 -180 768 -128 q 717 -274 768 -240 q 570 -307 667 -307 q 417 -283 487 -307 l 417 -197 q 560 -220 484 -220 q 625 -209 603 -220 q 647 -173 647 -198 q 625 -135 647 -147 q 560 -124 603 -124 l 522 -124 l 522 -3 q 185 157 300 29 q 69 512 69 285 q 141 799 69 681 q 351 979 213 917 q 690 1041 490 1041 q 942 1015 824 1041 l 942 817 q 709 842 828 842 z "},"Ḉ":{"ha":989,"x_min":69,"x_max":942,"o":"m 876 1318 l 694 1108 l 474 1108 l 619 1318 l 876 1318 m 709 842 q 420 762 514 842 q 327 515 327 681 q 418 265 327 345 q 697 185 510 185 q 942 217 822 185 l 942 19 q 681 -13 819 -13 q 632 -12 648 -13 l 632 -58 q 734 -97 700 -66 q 768 -180 768 -128 q 717 -274 768 -240 q 570 -307 667 -307 q 417 -283 487 -307 l 417 -197 q 560 -220 484 -220 q 625 -209 603 -220 q 647 -173 647 -198 q 625 -135 647 -147 q 560 -124 603 -124 l 522 -124 l 522 -3 q 185 157 300 29 q 69 512 69 285 q 141 799 69 681 q 351 979 213 917 q 690 1041 490 1041 q 942 1015 824 1041 l 942 817 q 709 842 828 842 z "},"Ĉ":{"ha":989,"x_min":69,"x_max":942,"o":"m 681 -13 q 226 117 382 -13 q 69 512 69 247 q 141 799 69 681 q 351 979 213 917 q 690 1041 490 1041 q 942 1015 824 1041 l 942 817 q 709 842 828 842 q 420 762 514 842 q 327 515 327 681 q 418 265 327 345 q 697 185 510 185 q 942 217 822 185 l 942 19 q 681 -13 819 -13 m 908 1108 l 712 1108 l 586 1230 l 460 1108 l 264 1108 l 485 1318 l 688 1318 l 908 1108 z "},"Ċ":{"ha":989,"x_min":69,"x_max":942,"o":"m 681 -13 q 226 117 382 -13 q 69 512 69 247 q 141 799 69 681 q 351 979 213 917 q 690 1041 490 1041 q 942 1015 824 1041 l 942 817 q 709 842 828 842 q 420 762 514 842 q 327 515 327 681 q 418 265 327 345 q 697 185 510 185 q 942 217 822 185 l 942 19 q 681 -13 819 -13 m 586 1115 q 478 1142 513 1115 q 442 1216 442 1169 q 478 1290 442 1263 q 586 1317 513 1317 q 694 1290 659 1317 q 730 1216 730 1263 q 694 1142 730 1169 q 586 1115 659 1115 z "},"D":{"ha":1194,"x_min":108,"x_max":1124,"o":"m 433 -9 q 108 10 262 -9 l 108 999 q 290 1027 186 1017 q 488 1038 394 1038 q 964 908 804 1038 q 1124 514 1124 778 q 1048 215 1124 331 q 820 45 972 100 q 433 -9 667 -9 m 497 185 q 710 220 627 185 q 833 328 793 255 q 874 516 874 401 q 781 765 874 685 q 498 844 689 844 q 354 832 429 844 l 354 192 q 497 185 407 185 z "},"Ǳ":{"ha":2137,"x_min":108,"x_max":2081,"o":"m 433 -9 q 108 10 262 -9 l 108 999 q 290 1027 186 1017 q 488 1038 394 1038 q 964 908 804 1038 q 1124 514 1124 778 q 1048 215 1124 331 q 820 45 972 100 q 433 -9 667 -9 m 497 185 q 710 220 627 185 q 833 328 793 255 q 874 516 874 401 q 781 765 874 685 q 498 844 689 844 q 354 832 429 844 l 354 192 q 497 185 407 185 m 1528 192 l 2081 192 l 2081 0 l 1210 0 l 1210 132 l 1754 835 l 1217 835 l 1217 1028 l 2074 1028 l 2074 896 l 1528 192 z "},"Ǆ":{"ha":2137,"x_min":108,"x_max":2081,"o":"m 433 -9 q 108 10 262 -9 l 108 999 q 290 1027 186 1017 q 488 1038 394 1038 q 964 908 804 1038 q 1124 514 1124 778 q 1048 215 1124 331 q 820 45 972 100 q 433 -9 667 -9 m 497 185 q 710 220 627 185 q 833 328 793 255 q 874 516 874 401 q 781 765 874 685 q 498 844 689 844 q 354 832 429 844 l 354 192 q 497 185 407 185 m 1528 192 l 2081 192 l 2081 0 l 1210 0 l 1210 132 l 1754 835 l 1217 835 l 1217 1028 l 2074 1028 l 2074 896 l 1528 192 m 1772 1318 l 1968 1318 l 1747 1108 l 1544 1108 l 1324 1318 l 1520 1318 l 1646 1195 l 1772 1318 z "},"Ð":{"ha":1194,"x_min":6,"x_max":1124,"o":"m 488 1038 q 964 908 804 1038 q 1124 514 1124 778 q 1048 215 1124 331 q 820 45 972 100 q 433 -9 667 -9 q 108 10 262 -9 l 108 455 l 6 455 l 6 603 l 108 603 l 108 999 q 290 1027 186 1017 q 488 1038 394 1038 m 497 185 q 710 220 627 185 q 833 328 793 255 q 874 516 874 401 q 781 765 874 685 q 498 844 689 844 q 354 832 429 844 l 354 603 l 577 603 l 577 455 l 354 455 l 354 192 q 497 185 407 185 z "},"Ď":{"ha":1194,"x_min":108,"x_max":1124,"o":"m 433 -9 q 108 10 262 -9 l 108 999 q 290 1027 186 1017 q 488 1038 394 1038 q 964 908 804 1038 q 1124 514 1124 778 q 1048 215 1124 331 q 820 45 972 100 q 433 -9 667 -9 m 497 185 q 710 220 627 185 q 833 328 793 255 q 874 516 874 401 q 781 765 874 685 q 498 844 689 844 q 354 832 429 844 l 354 192 q 497 185 407 185 m 649 1318 l 846 1318 l 625 1108 l 422 1108 l 201 1318 l 398 1318 l 524 1195 l 649 1318 z "},"Đ":{"ha":1194,"x_min":6,"x_max":1124,"o":"m 488 1038 q 964 908 804 1038 q 1124 514 1124 778 q 1048 215 1124 331 q 820 45 972 100 q 433 -9 667 -9 q 108 10 262 -9 l 108 455 l 6 455 l 6 603 l 108 603 l 108 999 q 290 1027 186 1017 q 488 1038 394 1038 m 497 185 q 710 220 627 185 q 833 328 793 255 q 874 516 874 401 q 781 765 874 685 q 498 844 689 844 q 354 832 429 844 l 354 603 l 577 603 l 577 455 l 354 455 l 354 192 q 497 185 407 185 z "},"Ḍ":{"ha":1194,"x_min":108,"x_max":1124,"o":"m 433 -9 q 108 10 262 -9 l 108 999 q 290 1027 186 1017 q 488 1038 394 1038 q 964 908 804 1038 q 1124 514 1124 778 q 1048 215 1124 331 q 820 45 972 100 q 433 -9 667 -9 m 497 185 q 710 220 627 185 q 833 328 793 255 q 874 516 874 401 q 781 765 874 685 q 498 844 689 844 q 354 832 429 844 l 354 192 q 497 185 407 185 m 533 -290 q 425 -264 460 -290 q 390 -190 390 -237 q 425 -116 390 -143 q 533 -89 460 -89 q 642 -116 606 -89 q 677 -190 677 -143 q 642 -264 677 -237 q 533 -290 606 -290 z "},"Ḏ":{"ha":1194,"x_min":108,"x_max":1124,"o":"m 433 -9 q 108 10 262 -9 l 108 999 q 290 1027 186 1017 q 488 1038 394 1038 q 964 908 804 1038 q 1124 514 1124 778 q 1048 215 1124 331 q 820 45 972 100 q 433 -9 667 -9 m 497 185 q 710 220 627 185 q 833 328 793 255 q 874 516 874 401 q 781 765 874 685 q 498 844 689 844 q 354 832 429 844 l 354 192 q 497 185 407 185 m 255 -252 l 255 -117 l 812 -117 l 812 -252 l 255 -252 z "},"ǲ":{"ha":2020,"x_min":108,"x_max":1974,"o":"m 433 -9 q 108 10 262 -9 l 108 999 q 290 1027 186 1017 q 488 1038 394 1038 q 964 908 804 1038 q 1124 514 1124 778 q 1048 215 1124 331 q 820 45 972 100 q 433 -9 667 -9 m 497 185 q 710 220 627 185 q 833 328 793 255 q 874 516 874 401 q 781 765 874 685 q 498 844 689 844 q 354 832 429 844 l 354 192 q 497 185 407 185 m 1574 189 l 1974 189 l 1974 0 l 1253 0 l 1253 155 l 1644 571 l 1261 571 l 1261 760 l 1966 760 l 1966 606 l 1574 189 z "},"ǅ":{"ha":2020,"x_min":108,"x_max":1974,"o":"m 433 -9 q 108 10 262 -9 l 108 999 q 290 1027 186 1017 q 488 1038 394 1038 q 964 908 804 1038 q 1124 514 1124 778 q 1048 215 1124 331 q 820 45 972 100 q 433 -9 667 -9 m 497 185 q 710 220 627 185 q 833 328 793 255 q 874 516 874 401 q 781 765 874 685 q 498 844 689 844 q 354 832 429 844 l 354 192 q 497 185 407 185 m 1574 189 l 1974 189 l 1974 0 l 1253 0 l 1253 155 l 1644 571 l 1261 571 l 1261 760 l 1966 760 l 1966 606 l 1574 189 m 1740 1096 l 1936 1096 l 1715 885 l 1513 885 l 1292 1096 l 1488 1096 l 1614 973 l 1740 1096 z "},"E":{"ha":996,"x_min":108,"x_max":932,"o":"m 351 184 l 932 184 l 932 0 l 108 0 l 108 1028 l 925 1028 l 925 844 l 351 844 l 351 617 l 852 617 l 852 433 l 351 433 l 351 184 z "},"É":{"ha":996,"x_min":108,"x_max":932,"o":"m 351 184 l 932 184 l 932 0 l 108 0 l 108 1028 l 925 1028 l 925 844 l 351 844 l 351 617 l 852 617 l 852 433 l 351 433 l 351 184 m 419 1108 l 565 1318 l 821 1318 l 639 1108 l 419 1108 z "},"Ĕ":{"ha":996,"x_min":108,"x_max":932,"o":"m 351 184 l 932 184 l 932 0 l 108 0 l 108 1028 l 925 1028 l 925 844 l 351 844 l 351 617 l 852 617 l 852 433 l 351 433 l 351 184 m 532 1110 q 318 1166 392 1110 q 228 1312 243 1222 l 375 1312 q 423 1247 385 1271 q 532 1224 461 1224 q 688 1312 666 1224 l 834 1312 q 745 1166 819 1221 q 532 1110 671 1110 z "},"Ě":{"ha":996,"x_min":108,"x_max":932,"o":"m 351 184 l 932 184 l 932 0 l 108 0 l 108 1028 l 925 1028 l 925 844 l 351 844 l 351 617 l 852 617 l 852 433 l 351 433 l 351 184 m 657 1318 l 853 1318 l 633 1108 l 430 1108 l 209 1318 l 406 1318 l 531 1195 l 657 1318 z "},"Ḝ":{"ha":996,"x_min":108,"x_max":932,"o":"m 532 1110 q 318 1166 392 1110 q 228 1312 243 1222 l 375 1312 q 423 1247 385 1271 q 532 1224 461 1224 q 688 1312 666 1224 l 834 1312 q 745 1166 819 1221 q 532 1110 671 1110 m 574 0 l 574 -58 q 676 -97 642 -66 q 710 -180 710 -128 q 660 -274 710 -240 q 513 -307 609 -307 q 360 -283 429 -307 l 360 -197 q 502 -220 426 -220 q 568 -209 546 -220 q 590 -173 590 -198 q 568 -135 590 -147 q 503 -124 546 -124 l 465 -124 l 465 0 l 108 0 l 108 1028 l 925 1028 l 925 844 l 351 844 l 351 617 l 852 617 l 852 433 l 351 433 l 351 184 l 932 184 l 932 0 l 574 0 z "},"Ê":{"ha":996,"x_min":108,"x_max":932,"o":"m 351 184 l 932 184 l 932 0 l 108 0 l 108 1028 l 925 1028 l 925 844 l 351 844 l 351 617 l 852 617 l 852 433 l 351 433 l 351 184 m 853 1108 l 657 1108 l 531 1230 l 406 1108 l 209 1108 l 430 1318 l 633 1318 l 853 1108 z "},"Ế":{"ha":996,"x_min":108,"x_max":993,"o":"m 351 184 l 932 184 l 932 0 l 108 0 l 108 1028 l 925 1028 l 925 844 l 351 844 l 351 617 l 852 617 l 852 433 l 351 433 l 351 184 m 821 1433 l 993 1433 l 865 1262 l 724 1262 l 821 1433 m 430 1297 l 633 1297 l 853 1108 l 657 1108 l 531 1219 l 406 1108 l 209 1108 l 430 1297 z "},"Ệ":{"ha":996,"x_min":108,"x_max":932,"o":"m 351 184 l 932 184 l 932 0 l 108 0 l 108 1028 l 925 1028 l 925 844 l 351 844 l 351 617 l 852 617 l 852 433 l 351 433 l 351 184 m 533 -290 q 424 -264 460 -290 q 389 -190 389 -237 q 424 -116 389 -143 q 533 -89 460 -89 q 641 -116 606 -89 q 676 -190 676 -143 q 641 -264 676 -237 q 533 -290 606 -290 m 853 1108 l 657 1108 l 531 1230 l 406 1108 l 209 1108 l 430 1318 l 633 1318 l 853 1108 z "},"Ề":{"ha":996,"x_min":108,"x_max":932,"o":"m 351 184 l 932 184 l 932 0 l 108 0 l 108 1028 l 925 1028 l 925 844 l 351 844 l 351 617 l 852 617 l 852 433 l 351 433 l 351 184 m 889 1262 l 747 1262 l 619 1433 l 791 1433 l 889 1262 m 430 1297 l 633 1297 l 853 1108 l 657 1108 l 531 1219 l 406 1108 l 209 1108 l 430 1297 z "},"Ể":{"ha":996,"x_min":108,"x_max":972,"o":"m 351 184 l 932 184 l 932 0 l 108 0 l 108 1028 l 925 1028 l 925 844 l 351 844 l 351 617 l 852 617 l 852 433 l 351 433 l 351 184 m 784 1463 q 925 1441 879 1463 q 972 1378 972 1419 q 960 1343 972 1358 q 934 1320 949 1329 q 892 1299 918 1311 q 856 1281 868 1289 q 842 1262 843 1272 l 723 1262 q 745 1301 724 1287 q 802 1331 765 1316 q 840 1348 828 1341 q 851 1365 851 1355 q 767 1388 851 1388 q 697 1384 731 1388 q 622 1372 663 1381 l 622 1445 q 700 1458 656 1453 q 784 1463 743 1463 m 430 1297 l 633 1297 l 853 1108 l 657 1108 l 531 1219 l 406 1108 l 209 1108 l 430 1297 z "},"Ễ":{"ha":996,"x_min":108,"x_max":932,"o":"m 351 184 l 932 184 l 932 0 l 108 0 l 108 1028 l 925 1028 l 925 844 l 351 844 l 351 617 l 852 617 l 852 433 l 351 433 l 351 184 m 677 1419 q 761 1430 722 1419 q 853 1466 801 1440 l 853 1369 q 768 1335 810 1344 q 675 1326 727 1326 q 600 1332 635 1326 q 515 1349 564 1338 q 441 1364 467 1360 q 385 1369 414 1369 q 300 1358 340 1369 q 209 1322 260 1348 l 209 1419 q 295 1454 253 1444 q 388 1463 336 1463 q 461 1457 427 1463 q 548 1440 496 1451 q 620 1424 592 1429 q 677 1419 649 1419 m 430 1297 l 633 1297 l 853 1108 l 657 1108 l 531 1219 l 406 1108 l 209 1108 l 430 1297 z "},"Ȅ":{"ha":996,"x_min":108,"x_max":932,"o":"m 351 184 l 932 184 l 932 0 l 108 0 l 108 1028 l 925 1028 l 925 844 l 351 844 l 351 617 l 852 617 l 852 433 l 351 433 l 351 184 m 295 1108 l 170 1318 l 354 1318 l 467 1108 l 295 1108 m 595 1108 l 469 1318 l 654 1318 l 767 1108 l 595 1108 z "},"Ë":{"ha":996,"x_min":108,"x_max":932,"o":"m 351 184 l 932 184 l 932 0 l 108 0 l 108 1028 l 925 1028 l 925 844 l 351 844 l 351 617 l 852 617 l 852 433 l 351 433 l 351 184 m 333 1115 q 240 1142 271 1115 q 209 1216 209 1168 q 240 1290 209 1264 q 333 1317 271 1317 q 426 1290 396 1317 q 457 1216 457 1264 q 426 1142 457 1168 q 333 1115 396 1115 m 729 1115 q 636 1142 667 1115 q 606 1216 606 1168 q 636 1290 606 1264 q 729 1317 667 1317 q 823 1290 792 1317 q 853 1216 853 1264 q 823 1142 853 1168 q 729 1115 792 1115 z "},"Ė":{"ha":996,"x_min":108,"x_max":932,"o":"m 351 184 l 932 184 l 932 0 l 108 0 l 108 1028 l 925 1028 l 925 844 l 351 844 l 351 617 l 852 617 l 852 433 l 351 433 l 351 184 m 531 1115 q 423 1142 458 1115 q 388 1216 388 1169 q 423 1290 388 1263 q 531 1317 458 1317 q 640 1290 604 1317 q 675 1216 675 1263 q 640 1142 675 1169 q 531 1115 604 1115 z "},"Ẹ":{"ha":996,"x_min":108,"x_max":932,"o":"m 351 184 l 932 184 l 932 0 l 108 0 l 108 1028 l 925 1028 l 925 844 l 351 844 l 351 617 l 852 617 l 852 433 l 351 433 l 351 184 m 533 -290 q 424 -264 460 -290 q 389 -190 389 -237 q 424 -116 389 -143 q 533 -89 460 -89 q 641 -116 606 -89 q 676 -190 676 -143 q 641 -264 676 -237 q 533 -290 606 -290 z "},"È":{"ha":996,"x_min":108,"x_max":932,"o":"m 351 184 l 932 184 l 932 0 l 108 0 l 108 1028 l 925 1028 l 925 844 l 351 844 l 351 617 l 852 617 l 852 433 l 351 433 l 351 184 m 422 1108 l 240 1318 l 496 1318 l 641 1108 l 422 1108 z "},"Ẻ":{"ha":996,"x_min":108,"x_max":932,"o":"m 351 184 l 932 184 l 932 0 l 108 0 l 108 1028 l 925 1028 l 925 844 l 351 844 l 351 617 l 852 617 l 852 433 l 351 433 l 351 184 m 472 1108 q 493 1151 473 1135 q 551 1183 514 1167 q 588 1202 576 1194 q 599 1222 599 1210 q 579 1240 599 1234 q 516 1247 559 1247 q 445 1243 478 1247 q 371 1229 412 1239 l 371 1313 q 447 1326 403 1322 q 533 1331 490 1331 q 675 1307 628 1331 q 721 1237 721 1283 q 700 1186 721 1205 q 641 1149 679 1168 q 603 1128 615 1136 q 590 1108 592 1119 l 472 1108 z "},"Ȇ":{"ha":996,"x_min":108,"x_max":932,"o":"m 351 184 l 932 184 l 932 0 l 108 0 l 108 1028 l 925 1028 l 925 844 l 351 844 l 351 617 l 852 617 l 852 433 l 351 433 l 351 184 m 228 1113 q 317 1260 243 1205 q 531 1315 392 1315 q 745 1260 670 1315 q 834 1113 819 1204 l 688 1113 q 531 1201 666 1201 q 375 1113 397 1201 l 228 1113 z "},"Ē":{"ha":996,"x_min":108,"x_max":932,"o":"m 351 184 l 932 184 l 932 0 l 108 0 l 108 1028 l 925 1028 l 925 844 l 351 844 l 351 617 l 852 617 l 852 433 l 351 433 l 351 184 m 253 1146 l 253 1281 l 810 1281 l 810 1146 l 253 1146 z "},"Ḗ":{"ha":996,"x_min":108,"x_max":932,"o":"m 351 184 l 932 184 l 932 0 l 108 0 l 108 1028 l 925 1028 l 925 844 l 351 844 l 351 617 l 852 617 l 852 433 l 351 433 l 351 184 m 407 1358 l 552 1519 l 837 1519 l 656 1358 l 407 1358 m 253 1146 l 253 1281 l 810 1281 l 810 1146 l 253 1146 z "},"Ḕ":{"ha":996,"x_min":108,"x_max":932,"o":"m 351 184 l 932 184 l 932 0 l 108 0 l 108 1028 l 925 1028 l 925 844 l 351 844 l 351 617 l 852 617 l 852 433 l 351 433 l 351 184 m 407 1358 l 226 1519 l 510 1519 l 656 1358 l 407 1358 m 253 1146 l 253 1281 l 810 1281 l 810 1146 l 253 1146 z "},"Ę":{"ha":996,"x_min":108,"x_max":932,"o":"m 867 0 q 740 -67 776 -33 q 703 -143 703 -101 q 729 -196 703 -177 q 808 -215 755 -215 q 912 -195 851 -215 l 912 -284 q 774 -307 847 -307 q 619 -268 672 -307 q 566 -162 566 -230 q 680 0 566 -61 l 108 0 l 108 1028 l 925 1028 l 925 844 l 351 844 l 351 617 l 852 617 l 852 433 l 351 433 l 351 184 l 932 184 l 932 0 l 867 0 z "},"Ẽ":{"ha":996,"x_min":108,"x_max":932,"o":"m 351 184 l 932 184 l 932 0 l 108 0 l 108 1028 l 925 1028 l 925 844 l 351 844 l 351 617 l 852 617 l 852 433 l 351 433 l 351 184 m 661 1124 q 596 1131 626 1124 q 519 1151 566 1137 q 453 1169 481 1163 q 396 1175 425 1175 q 316 1164 351 1175 q 245 1129 282 1153 l 245 1256 q 313 1294 276 1282 q 401 1306 350 1306 q 468 1299 438 1306 q 543 1279 499 1292 q 610 1261 582 1267 q 667 1255 638 1255 q 747 1266 712 1255 q 817 1300 781 1276 l 817 1173 q 750 1136 787 1148 q 661 1124 713 1124 z "},"F":{"ha":975,"x_min":108,"x_max":923,"o":"m 923 839 l 354 839 l 354 597 l 847 597 l 847 407 l 354 407 l 354 0 l 108 0 l 108 1028 l 923 1028 l 923 839 z "},"G":{"ha":1128,"x_min":69,"x_max":1019,"o":"m 1019 500 l 1019 14 q 725 -12 861 -12 q 233 120 397 -12 q 69 510 70 251 q 144 798 69 679 q 367 979 219 917 q 726 1041 514 1041 q 982 1015 858 1041 l 982 817 q 744 842 866 842 q 427 760 530 842 q 325 506 325 678 q 711 185 326 185 q 789 188 751 185 l 789 500 l 1019 500 z "},"Ǵ":{"ha":1128,"x_min":69,"x_max":1019,"o":"m 1019 500 l 1019 14 q 725 -12 861 -12 q 233 120 397 -12 q 69 510 70 251 q 144 798 69 679 q 367 979 219 917 q 726 1041 514 1041 q 982 1015 858 1041 l 982 817 q 744 842 866 842 q 427 760 530 842 q 325 506 325 678 q 711 185 326 185 q 789 188 751 185 l 789 500 l 1019 500 m 512 1108 l 657 1318 l 913 1318 l 731 1108 l 512 1108 z "},"Ğ":{"ha":1128,"x_min":69,"x_max":1019,"o":"m 1019 500 l 1019 14 q 725 -12 861 -12 q 233 120 397 -12 q 69 510 70 251 q 144 798 69 679 q 367 979 219 917 q 726 1041 514 1041 q 982 1015 858 1041 l 982 817 q 744 842 866 842 q 427 760 530 842 q 325 506 325 678 q 711 185 326 185 q 789 188 751 185 l 789 500 l 1019 500 m 624 1110 q 410 1166 485 1110 q 321 1312 335 1222 l 467 1312 q 516 1247 478 1271 q 624 1224 553 1224 q 780 1312 758 1224 l 926 1312 q 838 1166 912 1221 q 624 1110 763 1110 z "},"Ǧ":{"ha":1128,"x_min":69,"x_max":1019,"o":"m 1019 500 l 1019 14 q 725 -12 861 -12 q 233 120 397 -12 q 69 510 70 251 q 144 798 69 679 q 367 979 219 917 q 726 1041 514 1041 q 982 1015 858 1041 l 982 817 q 744 842 866 842 q 427 760 530 842 q 325 506 325 678 q 711 185 326 185 q 789 188 751 185 l 789 500 l 1019 500 m 749 1318 l 946 1318 l 725 1108 l 522 1108 l 301 1318 l 498 1318 l 624 1195 l 749 1318 z "},"Ĝ":{"ha":1128,"x_min":69,"x_max":1019,"o":"m 1019 500 l 1019 14 q 725 -12 861 -12 q 233 120 397 -12 q 69 510 70 251 q 144 798 69 679 q 367 979 219 917 q 726 1041 514 1041 q 982 1015 858 1041 l 982 817 q 744 842 866 842 q 427 760 530 842 q 325 506 325 678 q 711 185 326 185 q 789 188 751 185 l 789 500 l 1019 500 m 946 1108 l 749 1108 l 624 1230 l 498 1108 l 301 1108 l 522 1318 l 725 1318 l 946 1108 z "},"Ģ":{"ha":1128,"x_min":69,"x_max":1019,"o":"m 1019 500 l 1019 14 q 725 -12 861 -12 q 233 120 397 -12 q 69 510 70 251 q 144 798 69 679 q 367 979 219 917 q 726 1041 514 1041 q 982 1015 858 1041 l 982 817 q 744 842 866 842 q 427 760 530 842 q 325 506 325 678 q 711 185 326 185 q 789 188 751 185 l 789 500 l 1019 500 m 623 -89 q 758 -193 758 -89 q 742 -273 758 -231 q 701 -347 727 -315 l 556 -347 q 594 -246 586 -290 q 514 -222 539 -241 q 490 -168 490 -202 q 522 -109 490 -130 q 623 -89 555 -89 z "},"Ġ":{"ha":1128,"x_min":69,"x_max":1019,"o":"m 1019 500 l 1019 14 q 725 -12 861 -12 q 233 120 397 -12 q 69 510 70 251 q 144 798 69 679 q 367 979 219 917 q 726 1041 514 1041 q 982 1015 858 1041 l 982 817 q 744 842 866 842 q 427 760 530 842 q 325 506 325 678 q 711 185 326 185 q 789 188 751 185 l 789 500 l 1019 500 m 624 1115 q 515 1142 551 1115 q 480 1216 480 1169 q 515 1290 480 1263 q 624 1317 551 1317 q 732 1290 697 1317 q 767 1216 767 1263 q 732 1142 767 1169 q 624 1115 697 1115 z "},"Ḡ":{"ha":1128,"x_min":69,"x_max":1019,"o":"m 1019 500 l 1019 14 q 725 -12 861 -12 q 233 120 397 -12 q 69 510 70 251 q 144 798 69 679 q 367 979 219 917 q 726 1041 514 1041 q 982 1015 858 1041 l 982 817 q 744 842 866 842 q 427 760 530 842 q 325 506 325 678 q 711 185 326 185 q 789 188 751 185 l 789 500 l 1019 500 m 345 1146 l 345 1281 l 902 1281 l 902 1146 l 345 1146 z "},"H":{"ha":1201,"x_min":108,"x_max":1092,"o":"m 108 0 l 108 1028 l 354 1028 l 354 631 l 847 631 l 847 1028 l 1092 1028 l 1092 0 l 847 0 l 847 421 l 354 421 l 354 0 l 108 0 z "},"Ħ":{"ha":1201,"x_min":6,"x_max":1195,"o":"m 1195 906 l 1195 757 l 1092 757 l 1092 0 l 847 0 l 847 421 l 354 421 l 354 0 l 108 0 l 108 757 l 6 757 l 6 906 l 108 906 l 108 1028 l 354 1028 l 354 906 l 847 906 l 847 1028 l 1092 1028 l 1092 906 l 1195 906 m 847 631 l 847 757 l 354 757 l 354 631 l 847 631 z "},"Ḫ":{"ha":1201,"x_min":108,"x_max":1092,"o":"m 108 0 l 108 1028 l 354 1028 l 354 631 l 847 631 l 847 1028 l 1092 1028 l 1092 0 l 847 0 l 847 421 l 354 421 l 354 0 l 108 0 m 601 -303 q 385 -247 460 -303 q 298 -99 310 -191 l 444 -99 q 491 -165 453 -141 q 601 -190 528 -190 q 711 -165 674 -190 q 757 -99 749 -141 l 903 -99 q 817 -247 891 -191 q 601 -303 742 -303 z "},"Ĥ":{"ha":1201,"x_min":108,"x_max":1092,"o":"m 108 0 l 108 1028 l 354 1028 l 354 631 l 847 631 l 847 1028 l 1092 1028 l 1092 0 l 847 0 l 847 421 l 354 421 l 354 0 l 108 0 m 923 1108 l 726 1108 l 601 1230 l 475 1108 l 278 1108 l 499 1318 l 702 1318 l 923 1108 z "},"Ḥ":{"ha":1201,"x_min":108,"x_max":1092,"o":"m 108 0 l 108 1028 l 354 1028 l 354 631 l 847 631 l 847 1028 l 1092 1028 l 1092 0 l 847 0 l 847 421 l 354 421 l 354 0 l 108 0 m 601 -290 q 492 -264 528 -290 q 457 -190 457 -237 q 492 -116 457 -143 q 601 -89 528 -89 q 709 -116 674 -89 q 744 -190 744 -143 q 709 -264 744 -237 q 601 -290 674 -290 z "},"I":{"ha":463,"x_min":108,"x_max":354,"o":"m 108 0 l 108 1028 l 354 1028 l 354 0 l 108 0 z "},"Í":{"ha":463,"x_min":108,"x_max":521,"o":"m 108 0 l 108 1028 l 354 1028 l 354 0 l 108 0 m 119 1108 l 265 1318 l 521 1318 l 339 1108 l 119 1108 z "},"Ĭ":{"ha":463,"x_min":-72,"x_max":534,"o":"m 108 0 l 108 1028 l 354 1028 l 354 0 l 108 0 m 232 1110 q 18 1166 92 1110 q -72 1312 -57 1222 l 75 1312 q 123 1247 85 1271 q 232 1224 161 1224 q 388 1312 366 1224 l 534 1312 q 445 1166 519 1221 q 232 1110 371 1110 z "},"Î":{"ha":463,"x_min":-91,"x_max":553,"o":"m 108 0 l 108 1028 l 354 1028 l 354 0 l 108 0 m 553 1108 l 357 1108 l 231 1230 l 106 1108 l -91 1108 l 130 1318 l 333 1318 l 553 1108 z "},"Ȉ":{"ha":463,"x_min":-130,"x_max":467,"o":"m 108 0 l 108 1028 l 354 1028 l 354 0 l 108 0 m -5 1108 l -130 1318 l 54 1318 l 167 1108 l -5 1108 m 295 1108 l 169 1318 l 354 1318 l 467 1108 l 295 1108 z "},"Ï":{"ha":463,"x_min":-91,"x_max":553,"o":"m 108 0 l 108 1028 l 354 1028 l 354 0 l 108 0 m 33 1115 q -60 1142 -29 1115 q -91 1216 -91 1168 q -60 1290 -91 1264 q 33 1317 -29 1317 q 126 1290 96 1317 q 157 1216 157 1264 q 126 1142 157 1168 q 33 1115 96 1115 m 429 1115 q 336 1142 367 1115 q 306 1216 306 1168 q 336 1290 306 1264 q 429 1317 367 1317 q 523 1290 492 1317 q 553 1216 553 1264 q 523 1142 553 1168 q 429 1115 492 1115 z "},"Ḯ":{"ha":463,"x_min":-91,"x_max":553,"o":"m 108 0 l 108 1028 l 354 1028 l 354 0 l 108 0 m 107 1358 l 252 1519 l 537 1519 l 356 1358 l 107 1358 m 33 1115 q -60 1142 -29 1115 q -91 1216 -91 1168 q -60 1290 -91 1264 q 33 1317 -29 1317 q 126 1290 96 1317 q 157 1216 157 1264 q 126 1142 157 1168 q 33 1115 96 1115 m 429 1115 q 336 1142 367 1115 q 306 1216 306 1168 q 336 1290 306 1264 q 429 1317 367 1317 q 523 1290 492 1317 q 553 1216 553 1264 q 523 1142 553 1168 q 429 1115 492 1115 z "},"İ":{"ha":463,"x_min":88,"x_max":375,"o":"m 108 0 l 108 1028 l 354 1028 l 354 0 l 108 0 m 231 1115 q 123 1142 158 1115 q 88 1216 88 1169 q 123 1290 88 1263 q 231 1317 158 1317 q 340 1290 304 1317 q 375 1216 375 1263 q 340 1142 375 1169 q 231 1115 304 1115 z "},"Ị":{"ha":463,"x_min":86,"x_max":374,"o":"m 108 0 l 108 1028 l 354 1028 l 354 0 l 108 0 m 230 -290 q 122 -264 157 -290 q 86 -190 86 -237 q 122 -116 86 -143 q 230 -89 157 -89 q 338 -116 303 -89 q 374 -190 374 -143 q 338 -264 374 -237 q 230 -290 303 -290 z "},"Ì":{"ha":463,"x_min":-60,"x_max":354,"o":"m 108 0 l 108 1028 l 354 1028 l 354 0 l 108 0 m 122 1108 l -60 1318 l 196 1318 l 341 1108 l 122 1108 z "},"Ỉ":{"ha":463,"x_min":71,"x_max":421,"o":"m 108 0 l 108 1028 l 354 1028 l 354 0 l 108 0 m 172 1108 q 193 1151 173 1135 q 251 1183 214 1167 q 288 1202 276 1194 q 299 1222 299 1210 q 279 1240 299 1234 q 216 1247 259 1247 q 145 1243 178 1247 q 71 1229 112 1239 l 71 1313 q 147 1326 103 1322 q 233 1331 190 1331 q 375 1307 328 1331 q 421 1237 421 1283 q 400 1186 421 1205 q 341 1149 379 1168 q 303 1128 315 1136 q 290 1108 292 1119 l 172 1108 z "},"Ȋ":{"ha":463,"x_min":-72,"x_max":534,"o":"m 108 0 l 108 1028 l 354 1028 l 354 0 l 108 0 m -72 1113 q 17 1260 -57 1205 q 231 1315 92 1315 q 445 1260 370 1315 q 534 1113 519 1204 l 388 1113 q 231 1201 366 1201 q 75 1113 97 1201 l -72 1113 z "},"Ī":{"ha":463,"x_min":-47,"x_max":510,"o":"m 108 0 l 108 1028 l 354 1028 l 354 0 l 108 0 m -47 1146 l -47 1281 l 510 1281 l 510 1146 l -47 1146 z "},"Į":{"ha":463,"x_min":53,"x_max":399,"o":"m 295 -215 q 399 -195 339 -215 l 399 -284 q 261 -307 335 -307 q 106 -268 159 -307 q 53 -162 53 -230 q 167 0 53 -61 l 108 0 l 108 1028 l 354 1028 l 354 0 q 227 -67 264 -33 q 190 -143 190 -101 q 216 -196 190 -177 q 295 -215 242 -215 z "},"Ĩ":{"ha":463,"x_min":-55,"x_max":517,"o":"m 108 0 l 108 1028 l 354 1028 l 354 0 l 108 0 m 361 1124 q 296 1131 326 1124 q 219 1151 266 1137 q 153 1169 181 1163 q 96 1175 125 1175 q 16 1164 51 1175 q -55 1129 -18 1153 l -55 1256 q 13 1294 -24 1282 q 101 1306 50 1306 q 168 1299 138 1306 q 243 1279 199 1292 q 310 1261 282 1267 q 367 1255 338 1255 q 447 1266 412 1255 q 517 1300 481 1276 l 517 1173 q 450 1136 487 1148 q 361 1124 413 1124 z "},"J":{"ha":463,"x_min":-5,"x_max":354,"o":"m -5 -142 q 83 14 57 -67 q 110 206 110 94 l 110 1028 l 354 1028 l 354 207 q 305 -32 352 75 q 147 -245 258 -138 l -5 -142 z "},"Ĵ":{"ha":463,"x_min":-90,"x_max":554,"o":"m -5 -142 q 83 14 57 -67 q 110 206 110 94 l 110 1028 l 354 1028 l 354 207 q 305 -32 352 75 q 147 -245 258 -138 l -5 -142 m 554 1108 l 358 1108 l 232 1230 l 106 1108 l -90 1108 l 131 1318 l 333 1318 l 554 1108 z "},"K":{"ha":1028,"x_min":108,"x_max":1050,"o":"m 780 0 l 469 421 l 354 421 l 354 0 l 108 0 l 108 1028 l 354 1028 l 354 631 l 469 631 l 756 1028 l 1017 1028 l 659 531 l 1050 0 l 780 0 z "},"Ķ":{"ha":1028,"x_min":108,"x_max":1050,"o":"m 780 0 l 469 421 l 354 421 l 354 0 l 108 0 l 108 1028 l 354 1028 l 354 631 l 469 631 l 756 1028 l 1017 1028 l 659 531 l 1050 0 l 780 0 m 537 -89 q 672 -193 672 -89 q 656 -273 672 -231 q 615 -347 641 -315 l 469 -347 q 508 -246 500 -290 q 428 -222 453 -241 q 403 -168 403 -202 q 436 -109 403 -130 q 537 -89 469 -89 z "},"L":{"ha":905,"x_min":108,"x_max":894,"o":"m 108 0 l 108 1028 l 354 1028 l 354 193 l 894 193 l 894 0 l 108 0 z "},"Ǉ":{"ha":1367,"x_min":108,"x_max":1259,"o":"m 108 0 l 108 1028 l 354 1028 l 354 193 l 894 193 l 894 0 l 108 0 m 900 -142 q 988 14 962 -67 q 1015 206 1015 94 l 1015 1028 l 1259 1028 l 1259 207 q 1210 -32 1257 75 q 1052 -245 1163 -138 l 900 -142 z "},"Ĺ":{"ha":905,"x_min":108,"x_max":894,"o":"m 108 0 l 108 1028 l 354 1028 l 354 193 l 894 193 l 894 0 l 108 0 m 119 1108 l 265 1318 l 521 1318 l 339 1108 l 119 1108 z "},"Ľ":{"ha":905,"x_min":108,"x_max":894,"o":"m 108 0 l 108 1028 l 354 1028 l 354 193 l 894 193 l 894 0 l 108 0 m 583 792 q 599 942 594 867 q 603 1122 603 1017 l 759 1122 q 710 792 759 933 l 583 792 z "},"Ļ":{"ha":905,"x_min":108,"x_max":894,"o":"m 108 0 l 108 1028 l 354 1028 l 354 193 l 894 193 l 894 0 l 108 0 m 501 -89 q 635 -193 635 -89 q 620 -273 635 -231 q 579 -347 605 -315 l 433 -347 q 472 -246 464 -290 q 392 -222 417 -241 q 367 -168 367 -202 q 400 -109 367 -130 q 501 -89 433 -89 z "},"Ŀ":{"ha":905,"x_min":108,"x_max":894,"o":"m 108 0 l 108 1028 l 354 1028 l 354 193 l 894 193 l 894 0 l 108 0 m 674 497 q 564 527 601 497 q 528 614 528 557 q 564 701 528 671 q 674 731 601 731 q 784 701 748 731 q 821 614 821 671 q 784 527 821 557 q 674 497 748 497 z "},"Ḷ":{"ha":905,"x_min":108,"x_max":894,"o":"m 108 0 l 108 1028 l 354 1028 l 354 193 l 894 193 l 894 0 l 108 0 m 501 -290 q 393 -264 428 -290 q 358 -190 358 -237 q 393 -116 358 -143 q 501 -89 428 -89 q 610 -116 574 -89 q 645 -190 645 -143 q 610 -264 645 -237 q 501 -290 574 -290 z "},"ǈ":{"ha":1340,"x_min":108,"x_max":1264,"o":"m 108 0 l 108 1028 l 354 1028 l 354 193 l 894 193 l 894 0 l 108 0 m 887 -226 q 976 -70 949 -151 q 1002 122 1002 10 l 1002 760 l 1242 760 l 1242 131 q 1195 -111 1242 -2 q 1038 -327 1147 -220 l 887 -226 m 1117 872 q 971 988 971 872 q 1007 1075 971 1045 q 1117 1105 1044 1105 q 1227 1075 1191 1105 q 1264 988 1264 1045 q 1117 872 1264 872 z "},"Ḻ":{"ha":905,"x_min":108,"x_max":894,"o":"m 108 0 l 108 1028 l 354 1028 l 354 193 l 894 193 l 894 0 l 108 0 m 223 -252 l 223 -117 l 780 -117 l 780 -252 l 223 -252 z "},"Ł":{"ha":905,"x_min":-30,"x_max":894,"o":"m 354 193 l 894 193 l 894 0 l 108 0 l 108 425 l 38 387 l -30 518 l 108 593 l 108 1028 l 354 1028 l 354 726 l 563 839 l 631 707 l 354 558 l 354 193 z "},"M":{"ha":1447,"x_min":111,"x_max":1337,"o":"m 1040 1028 l 1337 1028 l 1337 0 l 1106 0 l 1106 723 l 827 149 l 620 149 l 341 703 l 341 0 l 111 0 l 111 1028 l 408 1028 l 727 381 l 1040 1028 z "},"Ṃ":{"ha":1447,"x_min":111,"x_max":1337,"o":"m 1040 1028 l 1337 1028 l 1337 0 l 1106 0 l 1106 723 l 827 149 l 620 149 l 341 703 l 341 0 l 111 0 l 111 1028 l 408 1028 l 727 381 l 1040 1028 m 740 -290 q 631 -264 667 -290 q 596 -190 596 -237 q 631 -116 596 -143 q 740 -89 667 -89 q 848 -116 813 -89 q 883 -190 883 -143 q 848 -264 883 -237 q 740 -290 813 -290 z "},"N":{"ha":1212,"x_min":108,"x_max":1103,"o":"m 872 1028 l 1103 1028 l 1103 0 l 856 0 l 340 692 l 340 0 l 108 0 l 108 1028 l 356 1028 l 872 335 l 872 1028 z "},"Ǌ":{"ha":1674,"x_min":108,"x_max":1566,"o":"m 872 1028 l 1103 1028 l 1103 0 l 856 0 l 340 692 l 340 0 l 108 0 l 108 1028 l 356 1028 l 872 335 l 872 1028 m 1207 -142 q 1295 14 1269 -67 q 1322 206 1322 94 l 1322 1028 l 1566 1028 l 1566 207 q 1517 -32 1564 75 q 1359 -245 1469 -138 l 1207 -142 z "},"Ń":{"ha":1212,"x_min":108,"x_max":1103,"o":"m 872 1028 l 1103 1028 l 1103 0 l 856 0 l 340 692 l 340 0 l 108 0 l 108 1028 l 356 1028 l 872 335 l 872 1028 m 494 1108 l 640 1318 l 896 1318 l 714 1108 l 494 1108 z "},"Ň":{"ha":1212,"x_min":108,"x_max":1103,"o":"m 872 1028 l 1103 1028 l 1103 0 l 856 0 l 340 692 l 340 0 l 108 0 l 108 1028 l 356 1028 l 872 335 l 872 1028 m 732 1318 l 928 1318 l 708 1108 l 505 1108 l 284 1318 l 481 1318 l 606 1195 l 732 1318 z "},"Ņ":{"ha":1212,"x_min":108,"x_max":1103,"o":"m 872 1028 l 1103 1028 l 1103 0 l 856 0 l 340 692 l 340 0 l 108 0 l 108 1028 l 356 1028 l 872 335 l 872 1028 m 606 -89 q 740 -193 740 -89 q 725 -273 740 -231 q 684 -347 710 -315 l 538 -347 q 577 -246 569 -290 q 497 -222 522 -241 q 472 -168 472 -202 q 505 -109 472 -130 q 606 -89 538 -89 z "},"Ṅ":{"ha":1212,"x_min":108,"x_max":1103,"o":"m 872 1028 l 1103 1028 l 1103 0 l 856 0 l 340 692 l 340 0 l 108 0 l 108 1028 l 356 1028 l 872 335 l 872 1028 m 606 1115 q 498 1142 533 1115 q 463 1216 463 1169 q 498 1290 463 1263 q 606 1317 533 1317 q 715 1290 679 1317 q 750 1216 750 1263 q 715 1142 750 1169 q 606 1115 679 1115 z "},"Ṇ":{"ha":1212,"x_min":108,"x_max":1103,"o":"m 872 1028 l 1103 1028 l 1103 0 l 856 0 l 340 692 l 340 0 l 108 0 l 108 1028 l 356 1028 l 872 335 l 872 1028 m 606 -290 q 498 -264 533 -290 q 463 -190 463 -237 q 498 -116 463 -143 q 606 -89 533 -89 q 715 -116 679 -89 q 750 -190 750 -143 q 715 -264 750 -237 q 606 -290 679 -290 z "},"Ŋ":{"ha":1212,"x_min":108,"x_max":1103,"o":"m 1103 1028 l 1103 150 q 1083 -28 1103 52 q 1018 -181 1063 -108 q 899 -327 974 -254 l 749 -226 q 820 -119 793 -173 q 860 -3 847 -65 l 340 692 l 340 0 l 108 0 l 108 1028 l 356 1028 l 872 337 l 872 1028 l 1103 1028 z "},"ǋ":{"ha":1647,"x_min":108,"x_max":1571,"o":"m 872 1028 l 1103 1028 l 1103 0 l 856 0 l 340 692 l 340 0 l 108 0 l 108 1028 l 356 1028 l 872 335 l 872 1028 m 1194 -226 q 1283 -70 1256 -151 q 1309 122 1309 10 l 1309 760 l 1549 760 l 1549 131 q 1502 -111 1549 -2 q 1344 -327 1454 -220 l 1194 -226 m 1424 872 q 1278 988 1278 872 q 1314 1075 1278 1045 q 1424 1105 1351 1105 q 1534 1075 1498 1105 q 1571 988 1571 1045 q 1424 872 1571 872 z "},"Ṉ":{"ha":1212,"x_min":108,"x_max":1103,"o":"m 872 1028 l 1103 1028 l 1103 0 l 856 0 l 340 692 l 340 0 l 108 0 l 108 1028 l 356 1028 l 872 335 l 872 1028 m 328 -252 l 328 -117 l 885 -117 l 885 -252 l 328 -252 z "},"Ñ":{"ha":1212,"x_min":108,"x_max":1103,"o":"m 872 1028 l 1103 1028 l 1103 0 l 856 0 l 340 692 l 340 0 l 108 0 l 108 1028 l 356 1028 l 872 335 l 872 1028 m 736 1124 q 671 1131 701 1124 q 594 1151 641 1137 q 528 1169 556 1163 q 471 1175 500 1175 q 391 1164 426 1175 q 320 1129 357 1153 l 320 1256 q 388 1294 351 1282 q 476 1306 425 1306 q 543 1299 513 1306 q 618 1279 574 1292 q 685 1261 657 1267 q 742 1255 713 1255 q 822 1266 787 1255 q 892 1300 856 1276 l 892 1173 q 825 1136 862 1148 q 736 1124 788 1124 z "},"O":{"ha":1248,"x_min":69,"x_max":1178,"o":"m 624 -13 q 329 48 454 -13 q 137 228 204 110 q 69 514 69 347 q 137 800 69 681 q 329 980 204 918 q 624 1041 454 1041 q 919 979 794 1041 q 1111 799 1044 917 q 1178 514 1178 681 q 1111 229 1178 347 q 918 49 1043 110 q 624 -13 793 -13 m 624 180 q 848 263 769 180 q 927 509 927 345 q 848 764 927 679 q 624 848 768 848 q 400 766 480 848 q 320 519 320 683 q 399 263 320 347 q 624 180 477 180 z "},"Ó":{"ha":1248,"x_min":69,"x_max":1178,"o":"m 624 -13 q 329 48 454 -13 q 137 228 204 110 q 69 514 69 347 q 137 800 69 681 q 329 980 204 918 q 624 1041 454 1041 q 919 979 794 1041 q 1111 799 1044 917 q 1178 514 1178 681 q 1111 229 1178 347 q 918 49 1043 110 q 624 -13 793 -13 m 624 180 q 848 263 769 180 q 927 509 927 345 q 848 764 927 679 q 624 848 768 848 q 400 766 480 848 q 320 519 320 683 q 399 263 320 347 q 624 180 477 180 m 512 1108 l 657 1318 l 913 1318 l 731 1108 l 512 1108 z "},"Ŏ":{"ha":1248,"x_min":69,"x_max":1178,"o":"m 624 -13 q 329 48 454 -13 q 137 228 204 110 q 69 514 69 347 q 137 800 69 681 q 329 980 204 918 q 624 1041 454 1041 q 919 979 794 1041 q 1111 799 1044 917 q 1178 514 1178 681 q 1111 229 1178 347 q 918 49 1043 110 q 624 -13 793 -13 m 624 180 q 848 263 769 180 q 927 509 927 345 q 848 764 927 679 q 624 848 768 848 q 400 766 480 848 q 320 519 320 683 q 399 263 320 347 q 624 180 477 180 m 624 1110 q 410 1166 485 1110 q 321 1312 335 1222 l 467 1312 q 516 1247 478 1271 q 624 1224 553 1224 q 780 1312 758 1224 l 926 1312 q 838 1166 912 1221 q 624 1110 763 1110 z "},"Ô":{"ha":1248,"x_min":69,"x_max":1178,"o":"m 624 -13 q 329 48 454 -13 q 137 228 204 110 q 69 514 69 347 q 137 800 69 681 q 329 980 204 918 q 624 1041 454 1041 q 919 979 794 1041 q 1111 799 1044 917 q 1178 514 1178 681 q 1111 229 1178 347 q 918 49 1043 110 q 624 -13 793 -13 m 624 180 q 848 263 769 180 q 927 509 927 345 q 848 764 927 679 q 624 848 768 848 q 400 766 480 848 q 320 519 320 683 q 399 263 320 347 q 624 180 477 180 m 946 1108 l 749 1108 l 624 1230 l 498 1108 l 301 1108 l 522 1318 l 725 1318 l 946 1108 z "},"Ố":{"ha":1248,"x_min":69,"x_max":1178,"o":"m 624 -13 q 329 48 454 -13 q 137 228 204 110 q 69 514 69 347 q 137 800 69 681 q 329 980 204 918 q 624 1041 454 1041 q 919 979 794 1041 q 1111 799 1044 917 q 1178 514 1178 681 q 1111 229 1178 347 q 918 49 1043 110 q 624 -13 793 -13 m 624 180 q 848 263 769 180 q 927 509 927 345 q 848 764 927 679 q 624 848 768 848 q 400 766 480 848 q 320 519 320 683 q 399 263 320 347 q 624 180 477 180 m 913 1433 l 1085 1433 l 958 1262 l 816 1262 l 913 1433 m 522 1297 l 725 1297 l 946 1108 l 749 1108 l 624 1219 l 498 1108 l 301 1108 l 522 1297 z "},"Ộ":{"ha":1248,"x_min":69,"x_max":1178,"o":"m 624 -13 q 329 48 454 -13 q 137 228 204 110 q 69 514 69 347 q 137 800 69 681 q 329 980 204 918 q 624 1041 454 1041 q 919 979 794 1041 q 1111 799 1044 917 q 1178 514 1178 681 q 1111 229 1178 347 q 918 49 1043 110 q 624 -13 793 -13 m 624 180 q 848 263 769 180 q 927 509 927 345 q 848 764 927 679 q 624 848 768 848 q 400 766 480 848 q 320 519 320 683 q 399 263 320 347 q 624 180 477 180 m 624 -290 q 515 -264 551 -290 q 480 -190 480 -237 q 515 -116 480 -143 q 624 -89 551 -89 q 732 -116 697 -89 q 767 -190 767 -143 q 732 -264 767 -237 q 624 -290 697 -290 m 946 1108 l 749 1108 l 624 1230 l 498 1108 l 301 1108 l 522 1318 l 725 1318 l 946 1108 z "},"Ồ":{"ha":1248,"x_min":69,"x_max":1178,"o":"m 624 -13 q 329 48 454 -13 q 137 228 204 110 q 69 514 69 347 q 137 800 69 681 q 329 980 204 918 q 624 1041 454 1041 q 919 979 794 1041 q 1111 799 1044 917 q 1178 514 1178 681 q 1111 229 1178 347 q 918 49 1043 110 q 624 -13 793 -13 m 624 180 q 848 263 769 180 q 927 509 927 345 q 848 764 927 679 q 624 848 768 848 q 400 766 480 848 q 320 519 320 683 q 399 263 320 347 q 624 180 477 180 m 981 1262 l 840 1262 l 712 1433 l 883 1433 l 981 1262 m 522 1297 l 725 1297 l 946 1108 l 749 1108 l 624 1219 l 498 1108 l 301 1108 l 522 1297 z "},"Ổ":{"ha":1248,"x_min":69,"x_max":1178,"o":"m 624 -13 q 329 48 454 -13 q 137 228 204 110 q 69 514 69 347 q 137 800 69 681 q 329 980 204 918 q 624 1041 454 1041 q 919 979 794 1041 q 1111 799 1044 917 q 1178 514 1178 681 q 1111 229 1178 347 q 918 49 1043 110 q 624 -13 793 -13 m 624 180 q 848 263 769 180 q 927 509 927 345 q 848 764 927 679 q 624 848 768 848 q 400 766 480 848 q 320 519 320 683 q 399 263 320 347 q 624 180 477 180 m 876 1463 q 1018 1441 972 1463 q 1064 1378 1064 1419 q 1053 1343 1064 1358 q 1026 1320 1042 1329 q 985 1299 1010 1311 q 948 1281 960 1289 q 934 1262 935 1272 l 815 1262 q 837 1301 817 1287 q 894 1331 858 1316 q 932 1348 921 1341 q 943 1365 943 1355 q 860 1388 943 1388 q 789 1384 823 1388 q 715 1372 756 1381 l 715 1445 q 792 1458 749 1453 q 876 1463 835 1463 m 522 1297 l 725 1297 l 946 1108 l 749 1108 l 624 1219 l 498 1108 l 301 1108 l 522 1297 z "},"Ỗ":{"ha":1248,"x_min":69,"x_max":1178,"o":"m 624 -13 q 329 48 454 -13 q 137 228 204 110 q 69 514 69 347 q 137 800 69 681 q 329 980 204 918 q 624 1041 454 1041 q 919 979 794 1041 q 1111 799 1044 917 q 1178 514 1178 681 q 1111 229 1178 347 q 918 49 1043 110 q 624 -13 793 -13 m 624 180 q 848 263 769 180 q 927 509 927 345 q 848 764 927 679 q 624 848 768 848 q 400 766 480 848 q 320 519 320 683 q 399 263 320 347 q 624 180 477 180 m 769 1419 q 854 1430 814 1419 q 946 1466 894 1440 l 946 1369 q 861 1335 902 1344 q 767 1326 819 1326 q 692 1332 728 1326 q 607 1349 656 1338 q 533 1364 560 1360 q 478 1369 506 1369 q 393 1358 433 1369 q 301 1322 353 1348 l 301 1419 q 387 1454 346 1444 q 480 1463 428 1463 q 554 1457 519 1463 q 640 1440 588 1451 q 713 1424 684 1429 q 769 1419 741 1419 m 522 1297 l 725 1297 l 946 1108 l 749 1108 l 624 1219 l 498 1108 l 301 1108 l 522 1297 z "},"Ȍ":{"ha":1248,"x_min":69,"x_max":1178,"o":"m 624 -13 q 329 48 454 -13 q 137 228 204 110 q 69 514 69 347 q 137 800 69 681 q 329 980 204 918 q 624 1041 454 1041 q 919 979 794 1041 q 1111 799 1044 917 q 1178 514 1178 681 q 1111 229 1178 347 q 918 49 1043 110 q 624 -13 793 -13 m 624 180 q 848 263 769 180 q 927 509 927 345 q 848 764 927 679 q 624 848 768 848 q 400 766 480 848 q 320 519 320 683 q 399 263 320 347 q 624 180 477 180 m 388 1108 l 263 1318 l 447 1318 l 560 1108 l 388 1108 m 688 1108 l 562 1318 l 747 1318 l 860 1108 l 688 1108 z "},"Ö":{"ha":1248,"x_min":69,"x_max":1178,"o":"m 624 -13 q 329 48 454 -13 q 137 228 204 110 q 69 514 69 347 q 137 800 69 681 q 329 980 204 918 q 624 1041 454 1041 q 919 979 794 1041 q 1111 799 1044 917 q 1178 514 1178 681 q 1111 229 1178 347 q 918 49 1043 110 q 624 -13 793 -13 m 624 180 q 848 263 769 180 q 927 509 927 345 q 848 764 927 679 q 624 848 768 848 q 400 766 480 848 q 320 519 320 683 q 399 263 320 347 q 624 180 477 180 m 426 1115 q 332 1142 363 1115 q 301 1216 301 1168 q 332 1290 301 1264 q 426 1317 363 1317 q 519 1290 488 1317 q 549 1216 549 1264 q 519 1142 549 1168 q 426 1115 488 1115 m 822 1115 q 728 1142 759 1115 q 698 1216 698 1168 q 728 1290 698 1264 q 822 1317 759 1317 q 915 1290 884 1317 q 946 1216 946 1264 q 915 1142 946 1168 q 822 1115 884 1115 z "},"Ȫ":{"ha":1248,"x_min":69,"x_max":1178,"o":"m 624 -13 q 329 48 454 -13 q 137 228 204 110 q 69 514 69 347 q 137 800 69 681 q 329 980 204 918 q 624 1041 454 1041 q 919 979 794 1041 q 1111 799 1044 917 q 1178 514 1178 681 q 1111 229 1178 347 q 918 49 1043 110 q 624 -13 793 -13 m 624 180 q 848 263 769 180 q 927 509 927 345 q 848 764 927 679 q 624 848 768 848 q 400 766 480 848 q 320 519 320 683 q 399 263 320 347 q 624 180 477 180 m 426 1115 q 332 1142 363 1115 q 301 1216 301 1168 q 332 1290 301 1264 q 426 1317 363 1317 q 519 1290 488 1317 q 549 1216 549 1264 q 519 1142 549 1168 q 426 1115 488 1115 m 822 1115 q 728 1142 759 1115 q 698 1216 698 1168 q 728 1290 698 1264 q 822 1317 759 1317 q 915 1290 884 1317 q 946 1216 946 1264 q 915 1142 946 1168 q 822 1115 884 1115 m 345 1397 l 345 1531 l 902 1531 l 902 1397 l 345 1397 z "},"Ȱ":{"ha":1248,"x_min":69,"x_max":1178,"o":"m 624 -13 q 329 48 454 -13 q 137 228 204 110 q 69 514 69 347 q 137 800 69 681 q 329 980 204 918 q 624 1041 454 1041 q 919 979 794 1041 q 1111 799 1044 917 q 1178 514 1178 681 q 1111 229 1178 347 q 918 49 1043 110 q 624 -13 793 -13 m 624 180 q 848 263 769 180 q 927 509 927 345 q 848 764 927 679 q 624 848 768 848 q 400 766 480 848 q 320 519 320 683 q 399 263 320 347 q 624 180 477 180 m 624 1115 q 515 1142 551 1115 q 480 1216 480 1169 q 515 1290 480 1263 q 624 1317 551 1317 q 732 1290 697 1317 q 767 1216 767 1263 q 732 1142 767 1169 q 624 1115 697 1115 m 345 1397 l 345 1531 l 902 1531 l 902 1397 l 345 1397 z "},"Ọ":{"ha":1248,"x_min":69,"x_max":1178,"o":"m 624 -13 q 329 48 454 -13 q 137 228 204 110 q 69 514 69 347 q 137 800 69 681 q 329 980 204 918 q 624 1041 454 1041 q 919 979 794 1041 q 1111 799 1044 917 q 1178 514 1178 681 q 1111 229 1178 347 q 918 49 1043 110 q 624 -13 793 -13 m 624 180 q 848 263 769 180 q 927 509 927 345 q 848 764 927 679 q 624 848 768 848 q 400 766 480 848 q 320 519 320 683 q 399 263 320 347 q 624 180 477 180 m 624 -290 q 515 -264 551 -290 q 480 -190 480 -237 q 515 -116 480 -143 q 624 -89 551 -89 q 732 -116 697 -89 q 767 -190 767 -143 q 732 -264 767 -237 q 624 -290 697 -290 z "},"Ò":{"ha":1248,"x_min":69,"x_max":1178,"o":"m 624 -13 q 329 48 454 -13 q 137 228 204 110 q 69 514 69 347 q 137 800 69 681 q 329 980 204 918 q 624 1041 454 1041 q 919 979 794 1041 q 1111 799 1044 917 q 1178 514 1178 681 q 1111 229 1178 347 q 918 49 1043 110 q 624 -13 793 -13 m 624 180 q 848 263 769 180 q 927 509 927 345 q 848 764 927 679 q 624 848 768 848 q 400 766 480 848 q 320 519 320 683 q 399 263 320 347 q 624 180 477 180 m 514 1108 l 333 1318 l 588 1318 l 733 1108 l 514 1108 z "},"Ỏ":{"ha":1248,"x_min":69,"x_max":1178,"o":"m 624 -13 q 329 48 454 -13 q 137 228 204 110 q 69 514 69 347 q 137 800 69 681 q 329 980 204 918 q 624 1041 454 1041 q 919 979 794 1041 q 1111 799 1044 917 q 1178 514 1178 681 q 1111 229 1178 347 q 918 49 1043 110 q 624 -13 793 -13 m 624 180 q 848 263 769 180 q 927 509 927 345 q 848 764 927 679 q 624 848 768 848 q 400 766 480 848 q 320 519 320 683 q 399 263 320 347 q 624 180 477 180 m 564 1108 q 586 1151 565 1135 q 643 1183 606 1167 q 680 1202 669 1194 q 692 1222 692 1210 q 672 1240 692 1234 q 608 1247 651 1247 q 538 1243 571 1247 q 463 1229 504 1239 l 463 1313 q 539 1326 496 1322 q 625 1331 582 1331 q 767 1307 721 1331 q 813 1237 813 1283 q 792 1186 813 1205 q 733 1149 772 1168 q 696 1128 708 1136 q 683 1108 684 1119 l 564 1108 z "},"Ơ":{"ha":1248,"x_min":69,"x_max":1186,"o":"m 1011 920 q 1136 751 1093 853 q 1178 514 1178 649 q 1111 228 1178 347 q 919 48 1044 110 q 624 -13 794 -13 q 329 48 454 -13 q 137 228 204 110 q 69 514 69 347 q 137 800 69 681 q 329 980 204 918 q 624 1041 454 1041 q 752 1033 673 1041 q 876 1026 838 1026 q 991 1052 954 1026 q 1028 1135 1028 1077 q 1017 1233 1028 1178 l 1172 1233 q 1183 1180 1180 1204 q 1186 1129 1186 1156 q 1141 987 1186 1040 q 1011 920 1095 934 m 624 180 q 848 263 769 180 q 927 509 927 345 q 848 764 927 679 q 624 848 768 848 q 400 766 480 848 q 320 519 320 683 q 399 263 320 347 q 624 180 477 180 z "},"Ớ":{"ha":1248,"x_min":69,"x_max":1186,"o":"m 1011 920 q 1136 751 1093 853 q 1178 514 1178 649 q 1111 228 1178 347 q 919 48 1044 110 q 624 -13 794 -13 q 329 48 454 -13 q 137 228 204 110 q 69 514 69 347 q 137 800 69 681 q 329 980 204 918 q 624 1041 454 1041 q 752 1033 673 1041 q 876 1026 838 1026 q 991 1052 954 1026 q 1028 1135 1028 1077 q 1017 1233 1028 1178 l 1172 1233 q 1183 1180 1180 1204 q 1186 1129 1186 1156 q 1141 987 1186 1040 q 1011 920 1095 934 m 624 180 q 848 263 769 180 q 927 509 927 345 q 848 764 927 679 q 624 848 768 848 q 400 766 480 848 q 320 519 320 683 q 399 263 320 347 q 624 180 477 180 m 512 1108 l 657 1318 l 913 1318 l 731 1108 l 512 1108 z "},"Ợ":{"ha":1248,"x_min":69,"x_max":1186,"o":"m 1011 920 q 1136 751 1093 853 q 1178 514 1178 649 q 1111 228 1178 347 q 919 48 1044 110 q 624 -13 794 -13 q 329 48 454 -13 q 137 228 204 110 q 69 514 69 347 q 137 800 69 681 q 329 980 204 918 q 624 1041 454 1041 q 752 1033 673 1041 q 876 1026 838 1026 q 991 1052 954 1026 q 1028 1135 1028 1077 q 1017 1233 1028 1178 l 1172 1233 q 1183 1180 1180 1204 q 1186 1129 1186 1156 q 1141 987 1186 1040 q 1011 920 1095 934 m 624 180 q 848 263 769 180 q 927 509 927 345 q 848 764 927 679 q 624 848 768 848 q 400 766 480 848 q 320 519 320 683 q 399 263 320 347 q 624 180 477 180 m 624 -290 q 515 -264 551 -290 q 480 -190 480 -237 q 515 -116 480 -143 q 624 -89 551 -89 q 732 -116 697 -89 q 767 -190 767 -143 q 732 -264 767 -237 q 624 -290 697 -290 z "},"Ờ":{"ha":1248,"x_min":69,"x_max":1186,"o":"m 1011 920 q 1136 751 1093 853 q 1178 514 1178 649 q 1111 228 1178 347 q 919 48 1044 110 q 624 -13 794 -13 q 329 48 454 -13 q 137 228 204 110 q 69 514 69 347 q 137 800 69 681 q 329 980 204 918 q 624 1041 454 1041 q 752 1033 673 1041 q 876 1026 838 1026 q 991 1052 954 1026 q 1028 1135 1028 1077 q 1017 1233 1028 1178 l 1172 1233 q 1183 1180 1180 1204 q 1186 1129 1186 1156 q 1141 987 1186 1040 q 1011 920 1095 934 m 624 180 q 848 263 769 180 q 927 509 927 345 q 848 764 927 679 q 624 848 768 848 q 400 766 480 848 q 320 519 320 683 q 399 263 320 347 q 624 180 477 180 m 514 1108 l 333 1318 l 588 1318 l 733 1108 l 514 1108 z "},"Ở":{"ha":1248,"x_min":69,"x_max":1186,"o":"m 1011 920 q 1136 751 1093 853 q 1178 514 1178 649 q 1111 228 1178 347 q 919 48 1044 110 q 624 -13 794 -13 q 329 48 454 -13 q 137 228 204 110 q 69 514 69 347 q 137 800 69 681 q 329 980 204 918 q 624 1041 454 1041 q 752 1033 673 1041 q 876 1026 838 1026 q 991 1052 954 1026 q 1028 1135 1028 1077 q 1017 1233 1028 1178 l 1172 1233 q 1183 1180 1180 1204 q 1186 1129 1186 1156 q 1141 987 1186 1040 q 1011 920 1095 934 m 624 180 q 848 263 769 180 q 927 509 927 345 q 848 764 927 679 q 624 848 768 848 q 400 766 480 848 q 320 519 320 683 q 399 263 320 347 q 624 180 477 180 m 564 1108 q 586 1151 565 1135 q 643 1183 606 1167 q 680 1202 669 1194 q 692 1222 692 1210 q 672 1240 692 1234 q 608 1247 651 1247 q 538 1243 571 1247 q 463 1229 504 1239 l 463 1313 q 539 1326 496 1322 q 625 1331 582 1331 q 767 1307 721 1331 q 813 1237 813 1283 q 792 1186 813 1205 q 733 1149 772 1168 q 696 1128 708 1136 q 683 1108 684 1119 l 564 1108 z "},"Ỡ":{"ha":1248,"x_min":69,"x_max":1186,"o":"m 753 1124 q 686 1131 718 1124 q 613 1151 655 1138 q 546 1169 574 1163 q 488 1175 518 1175 q 409 1164 443 1175 q 338 1129 374 1153 l 338 1256 q 406 1294 369 1282 q 494 1306 443 1306 q 560 1300 530 1306 q 635 1279 591 1293 q 702 1261 674 1267 q 759 1255 730 1255 q 839 1266 804 1255 q 910 1300 874 1276 l 910 1173 q 842 1136 879 1148 q 753 1124 805 1124 m 1011 920 q 1136 751 1093 853 q 1178 514 1178 649 q 1111 228 1178 347 q 919 48 1044 110 q 624 -13 794 -13 q 329 48 454 -13 q 137 228 204 110 q 69 514 69 347 q 137 800 69 681 q 329 980 204 918 q 624 1041 454 1041 q 752 1033 673 1041 q 876 1026 838 1026 q 991 1052 954 1026 q 1028 1135 1028 1077 q 1017 1233 1028 1178 l 1172 1233 q 1183 1180 1180 1204 q 1186 1129 1186 1156 q 1141 987 1186 1040 q 1011 920 1095 934 m 624 180 q 848 263 769 180 q 927 509 927 345 q 848 764 927 679 q 624 848 768 848 q 400 766 480 848 q 320 519 320 683 q 399 263 320 347 q 624 180 477 180 z "},"Ő":{"ha":1248,"x_min":69,"x_max":1178,"o":"m 624 -13 q 329 48 454 -13 q 137 228 204 110 q 69 514 69 347 q 137 800 69 681 q 329 980 204 918 q 624 1041 454 1041 q 919 979 794 1041 q 1111 799 1044 917 q 1178 514 1178 681 q 1111 229 1178 347 q 918 49 1043 110 q 624 -13 793 -13 m 624 180 q 848 263 769 180 q 927 509 927 345 q 848 764 927 679 q 624 848 768 848 q 400 766 480 848 q 320 519 320 683 q 399 263 320 347 q 624 180 477 180 m 388 1108 l 501 1318 l 685 1318 l 560 1108 l 388 1108 m 688 1108 l 801 1318 l 985 1318 l 860 1108 l 688 1108 z "},"Ȏ":{"ha":1248,"x_min":69,"x_max":1178,"o":"m 624 -13 q 329 48 454 -13 q 137 228 204 110 q 69 514 69 347 q 137 800 69 681 q 329 980 204 918 q 624 1041 454 1041 q 919 979 794 1041 q 1111 799 1044 917 q 1178 514 1178 681 q 1111 229 1178 347 q 918 49 1043 110 q 624 -13 793 -13 m 624 180 q 848 263 769 180 q 927 509 927 345 q 848 764 927 679 q 624 848 768 848 q 400 766 480 848 q 320 519 320 683 q 399 263 320 347 q 624 180 477 180 m 321 1113 q 410 1260 335 1205 q 623 1315 484 1315 q 837 1260 763 1315 q 926 1113 912 1204 l 780 1113 q 623 1201 758 1201 q 467 1113 489 1201 l 321 1113 z "},"Ō":{"ha":1248,"x_min":69,"x_max":1178,"o":"m 624 -13 q 329 48 454 -13 q 137 228 204 110 q 69 514 69 347 q 137 800 69 681 q 329 980 204 918 q 624 1041 454 1041 q 919 979 794 1041 q 1111 799 1044 917 q 1178 514 1178 681 q 1111 229 1178 347 q 918 49 1043 110 q 624 -13 793 -13 m 624 180 q 848 263 769 180 q 927 509 927 345 q 848 764 927 679 q 624 848 768 848 q 400 766 480 848 q 320 519 320 683 q 399 263 320 347 q 624 180 477 180 m 345 1146 l 345 1281 l 902 1281 l 902 1146 l 345 1146 z "},"Ṓ":{"ha":1248,"x_min":69,"x_max":1178,"o":"m 624 -13 q 329 48 454 -13 q 137 228 204 110 q 69 514 69 347 q 137 800 69 681 q 329 980 204 918 q 624 1041 454 1041 q 919 979 794 1041 q 1111 799 1044 917 q 1178 514 1178 681 q 1111 229 1178 347 q 918 49 1043 110 q 624 -13 793 -13 m 624 180 q 848 263 769 180 q 927 509 927 345 q 848 764 927 679 q 624 848 768 848 q 400 766 480 848 q 320 519 320 683 q 399 263 320 347 q 624 180 477 180 m 499 1358 l 644 1519 l 929 1519 l 749 1358 l 499 1358 m 345 1146 l 345 1281 l 902 1281 l 902 1146 l 345 1146 z "},"Ṑ":{"ha":1248,"x_min":69,"x_max":1178,"o":"m 624 -13 q 329 48 454 -13 q 137 228 204 110 q 69 514 69 347 q 137 800 69 681 q 329 980 204 918 q 624 1041 454 1041 q 919 979 794 1041 q 1111 799 1044 917 q 1178 514 1178 681 q 1111 229 1178 347 q 918 49 1043 110 q 624 -13 793 -13 m 624 180 q 848 263 769 180 q 927 509 927 345 q 848 764 927 679 q 624 848 768 848 q 400 766 480 848 q 320 519 320 683 q 399 263 320 347 q 624 180 477 180 m 499 1358 l 318 1519 l 603 1519 l 748 1358 l 499 1358 m 345 1146 l 345 1281 l 902 1281 l 902 1146 l 345 1146 z "},"Ǫ":{"ha":1248,"x_min":69,"x_max":1178,"o":"m 803 7 q 648 -59 692 -21 q 604 -143 604 -97 q 631 -196 604 -177 q 710 -215 657 -215 q 813 -195 753 -215 l 813 -284 q 675 -307 749 -307 q 520 -268 573 -307 q 467 -162 467 -230 q 562 -11 467 -68 q 299 64 410 0 q 129 243 188 128 q 69 514 69 357 q 137 800 69 681 q 329 980 204 918 q 624 1041 454 1041 q 919 980 794 1041 q 1111 800 1044 918 q 1178 514 1178 681 q 1129 265 1178 370 q 995 97 1079 160 q 803 7 911 33 m 320 519 q 399 263 320 347 q 624 180 477 180 q 848 263 769 180 q 927 509 927 345 q 848 764 927 679 q 624 848 768 848 q 400 766 480 848 q 320 519 320 683 z "},"Ø":{"ha":1248,"x_min":69,"x_max":1178,"o":"m 1047 887 q 1145 725 1111 819 q 1178 514 1178 631 q 1111 229 1178 347 q 918 49 1043 110 q 624 -13 793 -13 q 299 65 431 -13 l 210 -33 l 118 50 l 201 142 q 103 302 137 208 q 69 514 69 397 q 137 800 69 681 q 329 980 204 918 q 624 1041 454 1041 q 949 963 816 1041 l 1038 1061 l 1129 978 l 1047 887 m 320 519 q 361 317 320 395 l 802 802 q 624 848 731 848 q 400 766 480 848 q 320 519 320 683 m 624 180 q 848 263 769 180 q 927 509 927 345 q 885 710 927 630 l 444 225 q 624 180 515 180 z "},"Ǿ":{"ha":1248,"x_min":69,"x_max":1178,"o":"m 1047 887 q 1145 725 1111 819 q 1178 514 1178 631 q 1111 229 1178 347 q 918 49 1043 110 q 624 -13 793 -13 q 299 65 431 -13 l 210 -33 l 118 50 l 201 142 q 103 302 137 208 q 69 514 69 397 q 137 800 69 681 q 329 980 204 918 q 624 1041 454 1041 q 949 963 816 1041 l 1038 1061 l 1129 978 l 1047 887 m 320 519 q 361 317 320 395 l 802 802 q 624 848 731 848 q 400 766 480 848 q 320 519 320 683 m 624 180 q 848 263 769 180 q 927 509 927 345 q 885 710 927 630 l 444 225 q 624 180 515 180 m 508 1108 l 653 1318 l 910 1318 l 728 1108 l 508 1108 z "},"Õ":{"ha":1248,"x_min":69,"x_max":1178,"o":"m 624 -13 q 329 48 454 -13 q 137 228 204 110 q 69 514 69 347 q 137 800 69 681 q 329 980 204 918 q 624 1041 454 1041 q 919 979 794 1041 q 1111 799 1044 917 q 1178 514 1178 681 q 1111 229 1178 347 q 918 49 1043 110 q 624 -13 793 -13 m 624 180 q 848 263 769 180 q 927 509 927 345 q 848 764 927 679 q 624 848 768 848 q 400 766 480 848 q 320 519 320 683 q 399 263 320 347 q 624 180 477 180 m 753 1124 q 688 1131 718 1124 q 612 1151 658 1137 q 545 1169 573 1163 q 488 1175 517 1175 q 409 1164 443 1175 q 338 1129 374 1153 l 338 1256 q 405 1294 368 1282 q 494 1306 442 1306 q 560 1299 530 1306 q 635 1279 591 1292 q 702 1261 674 1267 q 759 1255 730 1255 q 839 1266 804 1255 q 910 1300 874 1276 l 910 1173 q 842 1136 879 1148 q 753 1124 805 1124 z "},"Ṍ":{"ha":1248,"x_min":69,"x_max":1178,"o":"m 624 -13 q 329 48 454 -13 q 137 228 204 110 q 69 514 69 347 q 137 800 69 681 q 329 980 204 918 q 624 1041 454 1041 q 919 979 794 1041 q 1111 799 1044 917 q 1178 514 1178 681 q 1111 229 1178 347 q 918 49 1043 110 q 624 -13 793 -13 m 624 180 q 848 263 769 180 q 927 509 927 345 q 848 764 927 679 q 624 848 768 848 q 400 766 480 848 q 320 519 320 683 q 399 263 320 347 q 624 180 477 180 m 499 1358 l 644 1519 l 929 1519 l 749 1358 l 499 1358 m 753 1124 q 688 1131 718 1124 q 612 1151 658 1137 q 545 1169 573 1163 q 488 1175 517 1175 q 409 1164 443 1175 q 338 1129 374 1153 l 338 1256 q 405 1294 368 1282 q 494 1306 442 1306 q 560 1299 530 1306 q 635 1279 591 1292 q 702 1261 674 1267 q 759 1255 730 1255 q 839 1266 804 1255 q 910 1300 874 1276 l 910 1173 q 842 1136 879 1148 q 753 1124 805 1124 z "},"Ṏ":{"ha":1248,"x_min":69,"x_max":1178,"o":"m 624 -13 q 329 48 454 -13 q 137 228 204 110 q 69 514 69 347 q 137 800 69 681 q 329 980 204 918 q 624 1041 454 1041 q 919 979 794 1041 q 1111 799 1044 917 q 1178 514 1178 681 q 1111 229 1178 347 q 918 49 1043 110 q 624 -13 793 -13 m 624 180 q 848 263 769 180 q 927 509 927 345 q 848 764 927 679 q 624 848 768 848 q 400 766 480 848 q 320 519 320 683 q 399 263 320 347 q 624 180 477 180 m 753 1124 q 688 1131 718 1124 q 612 1151 658 1137 q 545 1169 573 1163 q 488 1175 517 1175 q 409 1164 443 1175 q 338 1129 374 1153 l 338 1256 q 405 1294 368 1282 q 494 1306 442 1306 q 560 1299 530 1306 q 635 1279 591 1292 q 702 1261 674 1267 q 759 1255 730 1255 q 839 1266 804 1255 q 910 1300 874 1276 l 910 1173 q 842 1136 879 1148 q 753 1124 805 1124 m 426 1366 q 332 1392 363 1366 q 301 1467 301 1419 q 332 1541 301 1515 q 426 1567 363 1567 q 519 1541 488 1567 q 549 1467 549 1515 q 519 1392 549 1419 q 426 1366 488 1366 m 822 1366 q 728 1392 759 1366 q 698 1467 698 1419 q 728 1541 698 1515 q 822 1567 759 1567 q 915 1541 884 1567 q 946 1467 946 1515 q 915 1392 946 1419 q 822 1366 884 1366 z "},"Ȭ":{"ha":1248,"x_min":69,"x_max":1178,"o":"m 624 -13 q 329 48 454 -13 q 137 228 204 110 q 69 514 69 347 q 137 800 69 681 q 329 980 204 918 q 624 1041 454 1041 q 919 979 794 1041 q 1111 799 1044 917 q 1178 514 1178 681 q 1111 229 1178 347 q 918 49 1043 110 q 624 -13 793 -13 m 624 180 q 848 263 769 180 q 927 509 927 345 q 848 764 927 679 q 624 848 768 848 q 400 766 480 848 q 320 519 320 683 q 399 263 320 347 q 624 180 477 180 m 753 1124 q 688 1131 718 1124 q 612 1151 658 1137 q 545 1169 573 1163 q 488 1175 517 1175 q 409 1164 443 1175 q 338 1129 374 1153 l 338 1256 q 405 1294 368 1282 q 494 1306 442 1306 q 560 1299 530 1306 q 635 1279 591 1292 q 702 1261 674 1267 q 759 1255 730 1255 q 839 1266 804 1255 q 910 1300 874 1276 l 910 1173 q 842 1136 879 1148 q 753 1124 805 1124 m 345 1397 l 345 1531 l 902 1531 l 902 1397 l 345 1397 z "},"Œ":{"ha":1684,"x_min":69,"x_max":1619,"o":"m 1619 184 l 1619 0 l 1001 0 q 867 -5 947 0 q 749 -9 783 -9 q 366 45 515 -9 q 143 215 216 100 q 69 514 69 330 q 237 909 69 781 q 738 1038 404 1038 q 863 1033 787 1038 q 919 1030 876 1032 q 997 1028 962 1028 l 1613 1028 l 1613 844 l 1067 844 l 1067 617 l 1540 617 l 1540 433 l 1067 433 l 1067 184 l 1619 184 m 824 838 q 685 842 763 842 q 409 763 499 842 q 319 512 319 683 q 409 265 319 344 q 685 186 499 186 q 824 190 779 186 l 824 838 z "},"P":{"ha":1017,"x_min":108,"x_max":957,"o":"m 108 1008 q 456 1040 278 1040 q 833 950 708 1040 q 957 669 957 860 q 835 390 957 484 q 471 297 714 297 q 354 300 420 297 l 354 0 l 108 0 l 108 1008 m 473 469 q 614 489 560 469 q 693 553 668 510 q 719 669 719 597 q 660 820 719 773 q 478 868 602 868 q 354 858 414 868 l 354 476 q 473 469 410 469 z "},"Þ":{"ha":1024,"x_min":108,"x_max":957,"o":"m 108 1028 l 354 1028 l 354 893 q 460 900 414 900 q 834 810 711 900 q 957 528 957 719 q 836 250 957 344 q 473 156 715 156 q 354 160 433 156 l 354 0 l 108 0 l 108 1028 m 473 328 q 614 349 560 328 q 693 413 668 369 q 719 528 719 457 q 660 680 719 632 q 478 727 602 727 q 354 717 408 727 l 354 335 q 473 328 415 328 z "},"Q":{"ha":1248,"x_min":69,"x_max":1178,"o":"m 1178 514 q 1082 182 1178 313 q 794 16 985 51 q 1167 -45 956 -22 l 1132 -229 q 492 -75 725 -176 q 164 168 258 26 q 69 504 69 310 q 137 797 69 676 q 329 979 204 917 q 624 1041 453 1041 q 919 980 794 1041 q 1111 800 1044 918 q 1178 514 1178 681 m 320 519 q 624 180 320 180 q 848 263 769 180 q 927 509 927 345 q 848 764 927 679 q 624 848 768 848 q 400 766 480 848 q 320 519 320 683 z "},"R":{"ha":1061,"x_min":108,"x_max":1043,"o":"m 771 0 l 485 374 l 477 374 q 349 379 427 374 l 349 0 l 108 0 l 108 999 q 284 1029 187 1017 q 469 1040 381 1040 q 830 960 710 1040 q 949 709 949 880 q 892 523 949 599 q 727 410 835 448 l 1043 0 l 771 0 m 349 556 q 488 548 422 548 q 665 586 608 548 q 721 708 721 624 q 666 831 721 794 q 490 869 610 869 q 349 856 422 869 l 349 556 z "},"Ŕ":{"ha":1061,"x_min":108,"x_max":1043,"o":"m 771 0 l 485 374 l 477 374 q 349 379 427 374 l 349 0 l 108 0 l 108 999 q 284 1029 187 1017 q 469 1040 381 1040 q 830 960 710 1040 q 949 709 949 880 q 892 523 949 599 q 727 410 835 448 l 1043 0 l 771 0 m 349 556 q 488 548 422 548 q 665 586 608 548 q 721 708 721 624 q 666 831 721 794 q 490 869 610 869 q 349 856 422 869 l 349 556 m 417 1108 l 562 1318 l 818 1318 l 636 1108 l 417 1108 z "},"Ř":{"ha":1061,"x_min":108,"x_max":1043,"o":"m 771 0 l 485 374 l 477 374 q 349 379 427 374 l 349 0 l 108 0 l 108 999 q 284 1029 187 1017 q 469 1040 381 1040 q 830 960 710 1040 q 949 709 949 880 q 892 523 949 599 q 727 410 835 448 l 1043 0 l 771 0 m 349 556 q 488 548 422 548 q 665 586 608 548 q 721 708 721 624 q 666 831 721 794 q 490 869 610 869 q 349 856 422 869 l 349 556 m 654 1318 l 851 1318 l 630 1108 l 427 1108 l 206 1318 l 403 1318 l 528 1195 l 654 1318 z "},"Ŗ":{"ha":1061,"x_min":108,"x_max":1043,"o":"m 771 0 l 485 374 l 477 374 q 349 379 427 374 l 349 0 l 108 0 l 108 999 q 284 1029 187 1017 q 469 1040 381 1040 q 830 960 710 1040 q 949 709 949 880 q 892 523 949 599 q 727 410 835 448 l 1043 0 l 771 0 m 349 556 q 488 548 422 548 q 665 586 608 548 q 721 708 721 624 q 666 831 721 794 q 490 869 610 869 q 349 856 422 869 l 349 556 m 548 -89 q 683 -193 683 -89 q 667 -273 683 -231 q 626 -347 652 -315 l 481 -347 q 519 -246 511 -290 q 439 -222 464 -241 q 415 -168 415 -202 q 447 -109 415 -130 q 548 -89 480 -89 z "},"Ȑ":{"ha":1061,"x_min":108,"x_max":1043,"o":"m 771 0 l 485 374 l 477 374 q 349 379 427 374 l 349 0 l 108 0 l 108 999 q 284 1029 187 1017 q 469 1040 381 1040 q 830 960 710 1040 q 949 709 949 880 q 892 523 949 599 q 727 410 835 448 l 1043 0 l 771 0 m 349 556 q 488 548 422 548 q 665 586 608 548 q 721 708 721 624 q 666 831 721 794 q 490 869 610 869 q 349 856 422 869 l 349 556 m 292 1108 l 167 1318 l 351 1318 l 465 1108 l 292 1108 m 592 1108 l 467 1318 l 651 1318 l 765 1108 l 592 1108 z "},"Ṛ":{"ha":1061,"x_min":108,"x_max":1043,"o":"m 771 0 l 485 374 l 477 374 q 349 379 427 374 l 349 0 l 108 0 l 108 999 q 284 1029 187 1017 q 469 1040 381 1040 q 830 960 710 1040 q 949 709 949 880 q 892 523 949 599 q 727 410 835 448 l 1043 0 l 771 0 m 349 556 q 488 548 422 548 q 665 586 608 548 q 721 708 721 624 q 666 831 721 794 q 490 869 610 869 q 349 856 422 869 l 349 556 m 549 -290 q 440 -264 476 -290 q 405 -190 405 -237 q 440 -116 405 -143 q 549 -89 476 -89 q 657 -116 622 -89 q 692 -190 692 -143 q 657 -264 692 -237 q 549 -290 622 -290 z "},"Ȓ":{"ha":1061,"x_min":108,"x_max":1043,"o":"m 771 0 l 485 374 l 477 374 q 349 379 427 374 l 349 0 l 108 0 l 108 999 q 284 1029 187 1017 q 469 1040 381 1040 q 830 960 710 1040 q 949 709 949 880 q 892 523 949 599 q 727 410 835 448 l 1043 0 l 771 0 m 349 556 q 488 548 422 548 q 665 586 608 548 q 721 708 721 624 q 666 831 721 794 q 490 869 610 869 q 349 856 422 869 l 349 556 m 226 1113 q 315 1260 240 1205 q 528 1315 389 1315 q 742 1260 667 1315 q 831 1113 817 1204 l 685 1113 q 528 1201 663 1201 q 372 1113 394 1201 l 226 1113 z "},"Ṟ":{"ha":1061,"x_min":108,"x_max":1043,"o":"m 771 0 l 485 374 l 477 374 q 349 379 427 374 l 349 0 l 108 0 l 108 999 q 284 1029 187 1017 q 469 1040 381 1040 q 830 960 710 1040 q 949 709 949 880 q 892 523 949 599 q 727 410 835 448 l 1043 0 l 771 0 m 349 556 q 488 548 422 548 q 665 586 608 548 q 721 708 721 624 q 666 831 721 794 q 490 869 610 869 q 349 856 422 869 l 349 556 m 270 -252 l 270 -117 l 827 -117 l 827 -252 l 270 -252 z "},"S":{"ha":910,"x_min":52,"x_max":858,"o":"m 406 -13 q 76 34 228 -13 l 76 227 q 239 190 147 203 q 408 176 331 176 q 568 206 520 176 q 616 294 616 236 q 601 348 616 327 q 552 383 587 369 q 455 410 517 398 l 370 426 q 127 532 203 459 q 52 726 52 604 q 171 959 52 878 q 524 1041 290 1041 q 803 1008 679 1041 l 803 814 q 675 841 747 831 q 530 851 602 851 q 349 821 403 851 q 294 734 294 791 q 307 683 294 703 q 350 649 319 663 q 434 624 380 635 l 519 607 q 716 543 642 583 q 825 444 791 502 q 858 307 858 386 q 804 135 858 208 q 648 25 750 63 q 406 -13 547 -13 z "},"Ś":{"ha":910,"x_min":52,"x_max":858,"o":"m 406 -13 q 76 34 228 -13 l 76 227 q 239 190 147 203 q 408 176 331 176 q 568 206 520 176 q 616 294 616 236 q 601 348 616 327 q 552 383 587 369 q 455 410 517 398 l 370 426 q 127 532 203 459 q 52 726 52 604 q 171 959 52 878 q 524 1041 290 1041 q 803 1008 679 1041 l 803 814 q 675 841 747 831 q 530 851 602 851 q 349 821 403 851 q 294 734 294 791 q 307 683 294 703 q 350 649 319 663 q 434 624 380 635 l 519 607 q 716 543 642 583 q 825 444 791 502 q 858 307 858 386 q 804 135 858 208 q 648 25 750 63 q 406 -13 547 -13 m 352 1108 l 497 1318 l 753 1318 l 572 1108 l 352 1108 z "},"Ṥ":{"ha":910,"x_min":52,"x_max":858,"o":"m 406 -13 q 76 34 228 -13 l 76 227 q 239 190 147 203 q 408 176 331 176 q 568 206 520 176 q 616 294 616 236 q 601 348 616 327 q 552 383 587 369 q 455 410 517 398 l 370 426 q 127 532 203 459 q 52 726 52 604 q 171 959 52 878 q 524 1041 290 1041 q 803 1008 679 1041 l 803 814 q 675 841 747 831 q 530 851 602 851 q 349 821 403 851 q 294 734 294 791 q 307 683 294 703 q 350 649 319 663 q 434 624 380 635 l 519 607 q 716 543 642 583 q 825 444 791 502 q 858 307 858 386 q 804 135 858 208 q 648 25 750 63 q 406 -13 547 -13 m 309 1290 q 221 1313 250 1290 q 192 1373 192 1335 q 221 1434 192 1412 q 309 1457 250 1457 q 398 1434 369 1457 q 426 1373 426 1412 q 398 1313 426 1335 q 309 1290 369 1290 m 352 1108 l 497 1318 l 753 1318 l 572 1108 l 352 1108 z "},"Š":{"ha":910,"x_min":52,"x_max":858,"o":"m 406 -13 q 76 34 228 -13 l 76 227 q 239 190 147 203 q 408 176 331 176 q 568 206 520 176 q 616 294 616 236 q 601 348 616 327 q 552 383 587 369 q 455 410 517 398 l 370 426 q 127 532 203 459 q 52 726 52 604 q 171 959 52 878 q 524 1041 290 1041 q 803 1008 679 1041 l 803 814 q 675 841 747 831 q 530 851 602 851 q 349 821 403 851 q 294 734 294 791 q 307 683 294 703 q 350 649 319 663 q 434 624 380 635 l 519 607 q 716 543 642 583 q 825 444 791 502 q 858 307 858 386 q 804 135 858 208 q 648 25 750 63 q 406 -13 547 -13 m 590 1318 l 786 1318 l 565 1108 l 363 1108 l 142 1318 l 338 1318 l 464 1195 l 590 1318 z "},"Ṧ":{"ha":910,"x_min":52,"x_max":858,"o":"m 406 -13 q 76 34 228 -13 l 76 227 q 239 190 147 203 q 408 176 331 176 q 568 206 520 176 q 616 294 616 236 q 601 348 616 327 q 552 383 587 369 q 455 410 517 398 l 370 426 q 127 532 203 459 q 52 726 52 604 q 171 959 52 878 q 524 1041 290 1041 q 803 1008 679 1041 l 803 814 q 675 841 747 831 q 530 851 602 851 q 349 821 403 851 q 294 734 294 791 q 307 683 294 703 q 350 649 319 663 q 434 624 380 635 l 519 607 q 716 543 642 583 q 825 444 791 502 q 858 307 858 386 q 804 135 858 208 q 648 25 750 63 q 406 -13 547 -13 m 464 1338 q 375 1360 404 1338 q 347 1420 347 1382 q 375 1482 347 1459 q 464 1504 404 1504 q 552 1482 524 1504 q 581 1420 581 1459 q 552 1360 581 1382 q 464 1338 524 1338 m 590 1318 l 786 1318 l 565 1108 l 363 1108 l 142 1318 l 338 1318 l 464 1195 l 590 1318 z "},"Ş":{"ha":910,"x_min":52,"x_max":858,"o":"m 858 307 q 817 153 858 219 q 696 46 775 87 q 506 -8 617 5 l 506 -58 q 608 -97 574 -66 q 642 -180 642 -128 q 591 -274 642 -240 q 444 -307 540 -307 q 291 -283 360 -307 l 291 -197 q 433 -220 358 -220 q 499 -209 477 -220 q 521 -173 521 -198 q 499 -135 521 -147 q 434 -124 477 -124 l 396 -124 l 396 -13 q 76 34 224 -12 l 76 227 q 239 190 147 203 q 408 176 331 176 q 568 206 520 176 q 616 294 616 236 q 601 348 616 327 q 552 383 587 369 q 455 410 517 398 l 370 426 q 127 532 203 459 q 52 726 52 604 q 171 959 52 878 q 524 1041 290 1041 q 803 1008 679 1041 l 803 814 q 675 841 747 831 q 530 851 602 851 q 349 821 403 851 q 294 734 294 791 q 307 683 294 703 q 350 649 319 663 q 434 624 380 635 l 519 607 q 716 543 642 583 q 825 444 791 502 q 858 307 858 386 z "},"Ŝ":{"ha":910,"x_min":52,"x_max":858,"o":"m 406 -13 q 76 34 228 -13 l 76 227 q 239 190 147 203 q 408 176 331 176 q 568 206 520 176 q 616 294 616 236 q 601 348 616 327 q 552 383 587 369 q 455 410 517 398 l 370 426 q 127 532 203 459 q 52 726 52 604 q 171 959 52 878 q 524 1041 290 1041 q 803 1008 679 1041 l 803 814 q 675 841 747 831 q 530 851 602 851 q 349 821 403 851 q 294 734 294 791 q 307 683 294 703 q 350 649 319 663 q 434 624 380 635 l 519 607 q 716 543 642 583 q 825 444 791 502 q 858 307 858 386 q 804 135 858 208 q 648 25 750 63 q 406 -13 547 -13 m 786 1108 l 590 1108 l 464 1230 l 338 1108 l 142 1108 l 363 1318 l 565 1318 l 786 1108 z "},"Ș":{"ha":910,"x_min":52,"x_max":858,"o":"m 406 -13 q 76 34 228 -13 l 76 227 q 239 190 147 203 q 408 176 331 176 q 568 206 520 176 q 616 294 616 236 q 601 348 616 327 q 552 383 587 369 q 455 410 517 398 l 370 426 q 127 532 203 459 q 52 726 52 604 q 171 959 52 878 q 524 1041 290 1041 q 803 1008 679 1041 l 803 814 q 675 841 747 831 q 530 851 602 851 q 349 821 403 851 q 294 734 294 791 q 307 683 294 703 q 350 649 319 663 q 434 624 380 635 l 519 607 q 716 543 642 583 q 825 444 791 502 q 858 307 858 386 q 804 135 858 208 q 648 25 750 63 q 406 -13 547 -13 m 463 -89 q 598 -193 598 -89 q 583 -273 598 -231 q 542 -347 567 -315 l 396 -347 q 435 -246 426 -290 q 355 -222 379 -241 q 330 -168 330 -202 q 363 -109 330 -130 q 463 -89 395 -89 z "},"Ṡ":{"ha":910,"x_min":52,"x_max":858,"o":"m 406 -13 q 76 34 228 -13 l 76 227 q 239 190 147 203 q 408 176 331 176 q 568 206 520 176 q 616 294 616 236 q 601 348 616 327 q 552 383 587 369 q 455 410 517 398 l 370 426 q 127 532 203 459 q 52 726 52 604 q 171 959 52 878 q 524 1041 290 1041 q 803 1008 679 1041 l 803 814 q 675 841 747 831 q 530 851 602 851 q 349 821 403 851 q 294 734 294 791 q 307 683 294 703 q 350 649 319 663 q 434 624 380 635 l 519 607 q 716 543 642 583 q 825 444 791 502 q 858 307 858 386 q 804 135 858 208 q 648 25 750 63 q 406 -13 547 -13 m 464 1115 q 356 1142 391 1115 q 320 1216 320 1169 q 356 1290 320 1263 q 464 1317 391 1317 q 572 1290 537 1317 q 608 1216 608 1263 q 572 1142 608 1169 q 464 1115 537 1115 z "},"Ṣ":{"ha":910,"x_min":52,"x_max":858,"o":"m 406 -13 q 76 34 228 -13 l 76 227 q 239 190 147 203 q 408 176 331 176 q 568 206 520 176 q 616 294 616 236 q 601 348 616 327 q 552 383 587 369 q 455 410 517 398 l 370 426 q 127 532 203 459 q 52 726 52 604 q 171 959 52 878 q 524 1041 290 1041 q 803 1008 679 1041 l 803 814 q 675 841 747 831 q 530 851 602 851 q 349 821 403 851 q 294 734 294 791 q 307 683 294 703 q 350 649 319 663 q 434 624 380 635 l 519 607 q 716 543 642 583 q 825 444 791 502 q 858 307 858 386 q 804 135 858 208 q 648 25 750 63 q 406 -13 547 -13 m 464 -290 q 356 -264 391 -290 q 320 -190 320 -237 q 356 -116 320 -143 q 464 -89 391 -89 q 572 -116 537 -89 q 608 -190 608 -143 q 572 -264 608 -237 q 464 -290 537 -290 z "},"Ṩ":{"ha":910,"x_min":52,"x_max":858,"o":"m 406 -13 q 76 34 228 -13 l 76 227 q 239 190 147 203 q 408 176 331 176 q 568 206 520 176 q 616 294 616 236 q 601 348 616 327 q 552 383 587 369 q 455 410 517 398 l 370 426 q 127 532 203 459 q 52 726 52 604 q 171 959 52 878 q 524 1041 290 1041 q 803 1008 679 1041 l 803 814 q 675 841 747 831 q 530 851 602 851 q 349 821 403 851 q 294 734 294 791 q 307 683 294 703 q 350 649 319 663 q 434 624 380 635 l 519 607 q 716 543 642 583 q 825 444 791 502 q 858 307 858 386 q 804 135 858 208 q 648 25 750 63 q 406 -13 547 -13 m 464 -290 q 356 -264 391 -290 q 320 -190 320 -237 q 356 -116 320 -143 q 464 -89 391 -89 q 572 -116 537 -89 q 608 -190 608 -143 q 572 -264 608 -237 q 464 -290 537 -290 m 464 1115 q 356 1142 391 1115 q 320 1216 320 1169 q 356 1290 320 1263 q 464 1317 391 1317 q 572 1290 537 1317 q 608 1216 608 1263 q 572 1142 608 1169 q 464 1115 537 1115 z "},"ẞ":{"ha":1428,"x_min":108,"x_max":1376,"o":"m 1049 607 q 1239 542 1167 583 q 1343 444 1311 502 q 1376 307 1376 386 q 1323 135 1376 207 q 1172 25 1271 63 q 935 -13 1072 -13 q 622 31 771 -13 l 622 224 q 778 189 690 202 q 933 176 867 176 q 1091 206 1044 176 q 1138 294 1138 236 q 1124 348 1138 327 q 1077 384 1110 369 q 988 410 1045 399 l 906 426 q 672 532 744 460 q 599 726 599 604 q 621 845 599 793 q 565 850 597 850 q 354 631 354 850 l 354 0 l 108 0 l 108 601 q 221 928 108 816 q 565 1041 334 1041 q 791 999 692 1041 q 1058 1041 897 1041 q 1199 1033 1131 1041 q 1323 1010 1267 1024 l 1323 816 q 1200 842 1269 832 q 1068 851 1131 851 q 891 821 944 851 q 838 734 838 791 q 849 683 838 703 q 890 648 861 662 q 967 624 918 633 l 1049 607 z "},"Ə":{"ha":1231,"x_min":63,"x_max":1162,"o":"m 476 1041 q 990 909 818 1041 q 1162 503 1162 778 q 1097 224 1162 340 q 911 48 1033 108 q 622 -13 790 -13 q 324 48 450 -13 q 130 226 198 108 q 63 510 63 343 l 63 587 l 914 587 q 775 788 888 726 q 460 849 661 849 q 297 841 382 849 q 138 816 212 832 l 138 1010 q 476 1041 297 1041 m 625 168 q 827 226 753 168 q 917 416 900 285 l 317 416 q 410 227 334 286 q 625 168 486 168 z "},"T":{"ha":1004,"x_min":15,"x_max":990,"o":"m 379 0 l 379 835 l 15 835 l 15 1028 l 990 1028 l 990 835 l 625 835 l 625 0 l 379 0 z "},"Ŧ":{"ha":1004,"x_min":15,"x_max":990,"o":"m 990 835 l 625 835 l 625 581 l 863 581 l 863 433 l 625 433 l 625 0 l 379 0 l 379 433 l 142 433 l 142 581 l 379 581 l 379 835 l 15 835 l 15 1028 l 990 1028 l 990 835 z "},"Ť":{"ha":1004,"x_min":15,"x_max":990,"o":"m 379 0 l 379 835 l 15 835 l 15 1028 l 990 1028 l 990 835 l 625 835 l 625 0 l 379 0 m 628 1318 l 824 1318 l 603 1108 l 401 1108 l 180 1318 l 376 1318 l 502 1195 l 628 1318 z "},"Ţ":{"ha":1004,"x_min":15,"x_max":990,"o":"m 544 0 l 544 -58 q 646 -97 612 -66 q 680 -180 680 -128 q 629 -274 680 -240 q 482 -307 578 -307 q 329 -283 399 -307 l 329 -197 q 472 -220 396 -220 q 537 -209 515 -220 q 559 -173 559 -198 q 537 -135 559 -147 q 472 -124 515 -124 l 434 -124 l 434 0 l 379 0 l 379 835 l 15 835 l 15 1028 l 990 1028 l 990 835 l 625 835 l 625 0 l 544 0 z "},"Ț":{"ha":1004,"x_min":15,"x_max":990,"o":"m 379 0 l 379 835 l 15 835 l 15 1028 l 990 1028 l 990 835 l 625 835 l 625 0 l 379 0 m 501 -89 q 636 -193 636 -89 q 621 -273 636 -231 q 580 -347 606 -315 l 434 -347 q 473 -246 465 -290 q 393 -222 417 -241 q 368 -168 368 -202 q 401 -109 368 -130 q 501 -89 433 -89 z "},"Ṭ":{"ha":1004,"x_min":15,"x_max":990,"o":"m 379 0 l 379 835 l 15 835 l 15 1028 l 990 1028 l 990 835 l 625 835 l 625 0 l 379 0 m 502 -290 q 394 -264 429 -290 q 358 -190 358 -237 q 394 -116 358 -143 q 502 -89 429 -89 q 610 -116 575 -89 q 646 -190 646 -143 q 610 -264 646 -237 q 502 -290 575 -290 z "},"Ṯ":{"ha":1004,"x_min":15,"x_max":990,"o":"m 379 0 l 379 835 l 15 835 l 15 1028 l 990 1028 l 990 835 l 625 835 l 625 0 l 379 0 m 224 -252 l 224 -117 l 781 -117 l 781 -252 l 224 -252 z "},"U":{"ha":1176,"x_min":103,"x_max":1072,"o":"m 590 -13 q 220 105 338 -13 q 103 456 103 223 l 103 1028 l 349 1028 l 349 435 q 409 244 349 305 q 590 183 468 183 q 772 244 713 183 q 831 435 831 305 l 831 1028 l 1072 1028 l 1072 456 q 956 105 1072 223 q 590 -13 839 -13 z "},"Ú":{"ha":1176,"x_min":103,"x_max":1072,"o":"m 590 -13 q 220 105 338 -13 q 103 456 103 223 l 103 1028 l 349 1028 l 349 435 q 409 244 349 305 q 590 183 468 183 q 772 244 713 183 q 831 435 831 305 l 831 1028 l 1072 1028 l 1072 456 q 956 105 1072 223 q 590 -13 839 -13 m 478 1108 l 624 1318 l 880 1318 l 698 1108 l 478 1108 z "},"Ŭ":{"ha":1176,"x_min":103,"x_max":1072,"o":"m 590 -13 q 220 105 338 -13 q 103 456 103 223 l 103 1028 l 349 1028 l 349 435 q 409 244 349 305 q 590 183 468 183 q 772 244 713 183 q 831 435 831 305 l 831 1028 l 1072 1028 l 1072 456 q 956 105 1072 223 q 590 -13 839 -13 m 591 1110 q 377 1166 451 1110 q 288 1312 302 1222 l 434 1312 q 482 1247 444 1271 q 591 1224 520 1224 q 747 1312 725 1224 l 893 1312 q 804 1166 878 1221 q 591 1110 730 1110 z "},"Û":{"ha":1176,"x_min":103,"x_max":1072,"o":"m 590 -13 q 220 105 338 -13 q 103 456 103 223 l 103 1028 l 349 1028 l 349 435 q 409 244 349 305 q 590 183 468 183 q 772 244 713 183 q 831 435 831 305 l 831 1028 l 1072 1028 l 1072 456 q 956 105 1072 223 q 590 -13 839 -13 m 913 1108 l 716 1108 l 590 1230 l 465 1108 l 268 1108 l 489 1318 l 692 1318 l 913 1108 z "},"Ȕ":{"ha":1176,"x_min":103,"x_max":1072,"o":"m 590 -13 q 220 105 338 -13 q 103 456 103 223 l 103 1028 l 349 1028 l 349 435 q 409 244 349 305 q 590 183 468 183 q 772 244 713 183 q 831 435 831 305 l 831 1028 l 1072 1028 l 1072 456 q 956 105 1072 223 q 590 -13 839 -13 m 354 1108 l 229 1318 l 413 1318 l 526 1108 l 354 1108 m 654 1108 l 528 1318 l 713 1318 l 826 1108 l 654 1108 z "},"Ü":{"ha":1176,"x_min":103,"x_max":1072,"o":"m 590 -13 q 220 105 338 -13 q 103 456 103 223 l 103 1028 l 349 1028 l 349 435 q 409 244 349 305 q 590 183 468 183 q 772 244 713 183 q 831 435 831 305 l 831 1028 l 1072 1028 l 1072 456 q 956 105 1072 223 q 590 -13 839 -13 m 392 1115 q 299 1142 330 1115 q 268 1216 268 1168 q 299 1290 268 1264 q 392 1317 330 1317 q 485 1290 455 1317 q 516 1216 516 1264 q 485 1142 516 1168 q 392 1115 455 1115 m 788 1115 q 695 1142 726 1115 q 665 1216 665 1168 q 695 1290 665 1264 q 788 1317 726 1317 q 882 1290 851 1317 q 913 1216 913 1264 q 882 1142 913 1168 q 788 1115 851 1115 z "},"Ụ":{"ha":1176,"x_min":103,"x_max":1072,"o":"m 590 -13 q 220 105 338 -13 q 103 456 103 223 l 103 1028 l 349 1028 l 349 435 q 409 244 349 305 q 590 183 468 183 q 772 244 713 183 q 831 435 831 305 l 831 1028 l 1072 1028 l 1072 456 q 956 105 1072 223 q 590 -13 839 -13 m 590 -290 q 482 -264 517 -290 q 447 -190 447 -237 q 482 -116 447 -143 q 590 -89 517 -89 q 699 -116 663 -89 q 734 -190 734 -143 q 699 -264 734 -237 q 590 -290 663 -290 z "},"Ù":{"ha":1176,"x_min":103,"x_max":1072,"o":"m 590 -13 q 220 105 338 -13 q 103 456 103 223 l 103 1028 l 349 1028 l 349 435 q 409 244 349 305 q 590 183 468 183 q 772 244 713 183 q 831 435 831 305 l 831 1028 l 1072 1028 l 1072 456 q 956 105 1072 223 q 590 -13 839 -13 m 481 1108 l 299 1318 l 555 1318 l 700 1108 l 481 1108 z "},"Ủ":{"ha":1176,"x_min":103,"x_max":1072,"o":"m 590 -13 q 220 105 338 -13 q 103 456 103 223 l 103 1028 l 349 1028 l 349 435 q 409 244 349 305 q 590 183 468 183 q 772 244 713 183 q 831 435 831 305 l 831 1028 l 1072 1028 l 1072 456 q 956 105 1072 223 q 590 -13 839 -13 m 531 1108 q 552 1151 532 1135 q 610 1183 573 1167 q 647 1202 635 1194 q 658 1222 658 1210 q 638 1240 658 1234 q 575 1247 618 1247 q 504 1243 538 1247 q 430 1229 471 1239 l 430 1313 q 506 1326 463 1322 q 592 1331 549 1331 q 734 1307 688 1331 q 780 1237 780 1283 q 759 1186 780 1205 q 700 1149 738 1168 q 663 1128 674 1136 q 649 1108 651 1119 l 531 1108 z "},"Ư":{"ha":1176,"x_min":103,"x_max":1214,"o":"m 590 -13 q 220 105 338 -13 q 103 456 103 223 l 103 1028 l 349 1028 l 349 435 q 409 244 349 305 q 590 183 468 183 q 772 244 713 183 q 831 435 831 305 l 831 1028 l 904 1028 q 1019 1052 983 1028 q 1056 1135 1056 1077 q 1044 1233 1056 1178 l 1199 1233 q 1211 1180 1208 1204 q 1214 1129 1214 1156 q 1177 1001 1214 1051 q 1072 933 1140 951 l 1072 456 q 956 105 1072 223 q 590 -13 839 -13 z "},"Ứ":{"ha":1176,"x_min":103,"x_max":1214,"o":"m 590 -13 q 220 105 338 -13 q 103 456 103 223 l 103 1028 l 349 1028 l 349 435 q 409 244 349 305 q 590 183 468 183 q 772 244 713 183 q 831 435 831 305 l 831 1028 l 904 1028 q 1019 1052 983 1028 q 1056 1135 1056 1077 q 1044 1233 1056 1178 l 1199 1233 q 1211 1180 1208 1204 q 1214 1129 1214 1156 q 1177 1001 1214 1051 q 1072 933 1140 951 l 1072 456 q 956 105 1072 223 q 590 -13 839 -13 m 476 1108 l 622 1318 l 878 1318 l 696 1108 l 476 1108 z "},"Ự":{"ha":1176,"x_min":103,"x_max":1214,"o":"m 590 -13 q 220 105 338 -13 q 103 456 103 223 l 103 1028 l 349 1028 l 349 435 q 409 244 349 305 q 590 183 468 183 q 772 244 713 183 q 831 435 831 305 l 831 1028 l 904 1028 q 1019 1052 983 1028 q 1056 1135 1056 1077 q 1044 1233 1056 1178 l 1199 1233 q 1211 1180 1208 1204 q 1214 1129 1214 1156 q 1177 1001 1214 1051 q 1072 933 1140 951 l 1072 456 q 956 105 1072 223 q 590 -13 839 -13 m 588 -290 q 480 -264 515 -290 q 444 -190 444 -237 q 480 -116 444 -143 q 588 -89 515 -89 q 697 -116 661 -89 q 732 -190 732 -143 q 697 -264 732 -237 q 588 -290 661 -290 z "},"Ừ":{"ha":1176,"x_min":103,"x_max":1214,"o":"m 590 -13 q 220 105 338 -13 q 103 456 103 223 l 103 1028 l 349 1028 l 349 435 q 409 244 349 305 q 590 183 468 183 q 772 244 713 183 q 831 435 831 305 l 831 1028 l 904 1028 q 1019 1052 983 1028 q 1056 1135 1056 1077 q 1044 1233 1056 1178 l 1199 1233 q 1211 1180 1208 1204 q 1214 1129 1214 1156 q 1177 1001 1214 1051 q 1072 933 1140 951 l 1072 456 q 956 105 1072 223 q 590 -13 839 -13 m 478 1108 l 297 1318 l 553 1318 l 698 1108 l 478 1108 z "},"Ử":{"ha":1176,"x_min":103,"x_max":1214,"o":"m 590 -13 q 220 105 338 -13 q 103 456 103 223 l 103 1028 l 349 1028 l 349 435 q 409 244 349 305 q 590 183 468 183 q 772 244 713 183 q 831 435 831 305 l 831 1028 l 904 1028 q 1019 1052 983 1028 q 1056 1135 1056 1077 q 1044 1233 1056 1178 l 1199 1233 q 1211 1180 1208 1204 q 1214 1129 1214 1156 q 1177 1001 1214 1051 q 1072 933 1140 951 l 1072 456 q 956 105 1072 223 q 590 -13 839 -13 m 528 1108 q 550 1151 530 1135 q 608 1183 571 1167 q 645 1202 633 1194 q 656 1222 656 1210 q 636 1240 656 1234 q 573 1247 616 1247 q 502 1243 535 1247 q 428 1229 469 1239 l 428 1313 q 503 1326 460 1322 q 590 1331 547 1331 q 732 1307 685 1331 q 778 1237 778 1283 q 757 1186 778 1205 q 698 1149 736 1168 q 660 1128 672 1136 q 647 1108 649 1119 l 528 1108 z "},"Ữ":{"ha":1176,"x_min":103,"x_max":1214,"o":"m 590 -13 q 220 105 338 -13 q 103 456 103 223 l 103 1028 l 349 1028 l 349 435 q 409 244 349 305 q 590 183 468 183 q 772 244 713 183 q 831 435 831 305 l 831 1028 l 904 1028 q 1019 1052 983 1028 q 1056 1135 1056 1077 q 1044 1233 1056 1178 l 1199 1233 q 1211 1180 1208 1204 q 1214 1129 1214 1156 q 1177 1001 1214 1051 q 1072 933 1140 951 l 1072 456 q 956 105 1072 223 q 590 -13 839 -13 m 718 1124 q 653 1131 683 1124 q 576 1151 623 1137 q 510 1169 538 1163 q 453 1175 482 1175 q 373 1164 408 1175 q 302 1129 339 1153 l 302 1256 q 370 1294 333 1282 q 458 1306 407 1306 q 525 1299 494 1306 q 600 1279 556 1292 q 667 1261 639 1267 q 724 1255 694 1255 q 803 1266 769 1255 q 874 1300 838 1276 l 874 1173 q 807 1136 844 1148 q 718 1124 769 1124 z "},"Ű":{"ha":1176,"x_min":103,"x_max":1072,"o":"m 590 -13 q 220 105 338 -13 q 103 456 103 223 l 103 1028 l 349 1028 l 349 435 q 409 244 349 305 q 590 183 468 183 q 772 244 713 183 q 831 435 831 305 l 831 1028 l 1072 1028 l 1072 456 q 956 105 1072 223 q 590 -13 839 -13 m 354 1108 l 467 1318 l 652 1318 l 526 1108 l 354 1108 m 654 1108 l 767 1318 l 951 1318 l 826 1108 l 654 1108 z "},"Ȗ":{"ha":1176,"x_min":103,"x_max":1072,"o":"m 590 -13 q 220 105 338 -13 q 103 456 103 223 l 103 1028 l 349 1028 l 349 435 q 409 244 349 305 q 590 183 468 183 q 772 244 713 183 q 831 435 831 305 l 831 1028 l 1072 1028 l 1072 456 q 956 105 1072 223 q 590 -13 839 -13 m 288 1113 q 376 1260 302 1205 q 590 1315 451 1315 q 804 1260 729 1315 q 893 1113 878 1204 l 747 1113 q 590 1201 725 1201 q 434 1113 456 1201 l 288 1113 z "},"Ū":{"ha":1176,"x_min":103,"x_max":1072,"o":"m 590 -13 q 220 105 338 -13 q 103 456 103 223 l 103 1028 l 349 1028 l 349 435 q 409 244 349 305 q 590 183 468 183 q 772 244 713 183 q 831 435 831 305 l 831 1028 l 1072 1028 l 1072 456 q 956 105 1072 223 q 590 -13 839 -13 m 312 1146 l 312 1281 l 869 1281 l 869 1146 l 312 1146 z "},"Ṻ":{"ha":1176,"x_min":103,"x_max":1072,"o":"m 590 -13 q 220 105 338 -13 q 103 456 103 223 l 103 1028 l 349 1028 l 349 435 q 409 244 349 305 q 590 183 468 183 q 772 244 713 183 q 831 435 831 305 l 831 1028 l 1072 1028 l 1072 456 q 956 105 1072 223 q 590 -13 839 -13 m 312 1146 l 312 1281 l 869 1281 l 869 1146 l 312 1146 m 392 1366 q 299 1392 330 1366 q 268 1467 268 1419 q 299 1541 268 1515 q 392 1567 330 1567 q 485 1541 455 1567 q 516 1467 516 1515 q 485 1392 516 1419 q 392 1366 455 1366 m 788 1366 q 695 1392 726 1366 q 665 1467 665 1419 q 695 1541 665 1515 q 788 1567 726 1567 q 882 1541 851 1567 q 913 1467 913 1515 q 882 1392 913 1419 q 788 1366 851 1366 z "},"Ų":{"ha":1176,"x_min":103,"x_max":1072,"o":"m 1072 1028 l 1072 456 q 1004 165 1072 276 q 790 12 935 53 q 630 -59 676 -22 q 583 -141 583 -95 q 609 -195 583 -176 q 688 -215 635 -215 q 792 -194 733 -215 l 792 -283 q 654 -306 725 -306 q 499 -267 551 -306 q 447 -159 447 -228 q 540 -12 447 -69 q 209 117 314 -1 q 103 456 103 235 l 103 1028 l 349 1028 l 349 435 q 409 244 349 305 q 590 183 468 183 q 772 244 713 183 q 831 435 831 305 l 831 1028 l 1072 1028 z "},"Ů":{"ha":1176,"x_min":103,"x_max":1072,"o":"m 590 -13 q 220 105 338 -13 q 103 456 103 223 l 103 1028 l 349 1028 l 349 435 q 409 244 349 305 q 590 183 468 183 q 772 244 713 183 q 831 435 831 305 l 831 1028 l 1072 1028 l 1072 456 q 956 105 1072 223 q 590 -13 839 -13 m 590 1099 q 514 1118 548 1099 q 460 1170 480 1137 q 441 1244 441 1203 q 460 1319 441 1286 q 514 1371 480 1352 q 590 1390 548 1390 q 667 1371 633 1390 q 720 1319 701 1352 q 740 1244 740 1286 q 720 1170 740 1203 q 667 1118 701 1137 q 590 1099 633 1099 m 590 1177 q 637 1195 619 1177 q 655 1244 655 1213 q 637 1293 655 1275 q 590 1312 619 1312 q 543 1293 561 1312 q 526 1244 526 1275 q 543 1195 526 1213 q 590 1177 561 1177 z "},"Ũ":{"ha":1176,"x_min":103,"x_max":1072,"o":"m 590 -13 q 220 105 338 -13 q 103 456 103 223 l 103 1028 l 349 1028 l 349 435 q 409 244 349 305 q 590 183 468 183 q 772 244 713 183 q 831 435 831 305 l 831 1028 l 1072 1028 l 1072 456 q 956 105 1072 223 q 590 -13 839 -13 m 720 1124 q 655 1131 685 1124 q 578 1151 625 1137 q 512 1169 540 1163 q 455 1175 484 1175 q 375 1164 410 1175 q 304 1129 341 1153 l 304 1256 q 372 1294 335 1282 q 460 1306 409 1306 q 527 1299 497 1306 q 602 1279 558 1292 q 669 1261 641 1267 q 726 1255 697 1255 q 806 1266 771 1255 q 876 1300 840 1276 l 876 1173 q 809 1136 846 1148 q 720 1124 772 1124 z "},"Ṹ":{"ha":1176,"x_min":103,"x_max":1072,"o":"m 590 -13 q 220 105 338 -13 q 103 456 103 223 l 103 1028 l 349 1028 l 349 435 q 409 244 349 305 q 590 183 468 183 q 772 244 713 183 q 831 435 831 305 l 831 1028 l 1072 1028 l 1072 456 q 956 105 1072 223 q 590 -13 839 -13 m 466 1358 l 611 1519 l 896 1519 l 715 1358 l 466 1358 m 720 1124 q 655 1131 685 1124 q 578 1151 625 1137 q 512 1169 540 1163 q 455 1175 484 1175 q 375 1164 410 1175 q 304 1129 341 1153 l 304 1256 q 372 1294 335 1282 q 460 1306 409 1306 q 527 1299 497 1306 q 602 1279 558 1292 q 669 1261 641 1267 q 726 1255 697 1255 q 806 1266 771 1255 q 876 1300 840 1276 l 876 1173 q 809 1136 846 1148 q 720 1124 772 1124 z "},"V":{"ha":1137,"x_min":8,"x_max":1129,"o":"m 886 1028 l 1129 1028 l 746 0 l 391 0 l 8 1028 l 268 1028 l 575 183 l 886 1028 z "},"W":{"ha":1810,"x_min":28,"x_max":1781,"o":"m 1546 1028 l 1781 1028 l 1465 0 l 1152 0 l 908 792 l 657 0 l 345 0 l 28 1028 l 278 1028 l 518 215 l 774 1028 l 1047 1028 l 1299 203 l 1546 1028 z "},"Ẃ":{"ha":1810,"x_min":28,"x_max":1781,"o":"m 1546 1028 l 1781 1028 l 1465 0 l 1152 0 l 908 792 l 657 0 l 345 0 l 28 1028 l 278 1028 l 518 215 l 774 1028 l 1047 1028 l 1299 203 l 1546 1028 m 793 1108 l 938 1318 l 1194 1318 l 1013 1108 l 793 1108 z "},"Ŵ":{"ha":1810,"x_min":28,"x_max":1781,"o":"m 1546 1028 l 1781 1028 l 1465 0 l 1152 0 l 908 792 l 657 0 l 345 0 l 28 1028 l 278 1028 l 518 215 l 774 1028 l 1047 1028 l 1299 203 l 1546 1028 m 1227 1108 l 1031 1108 l 905 1230 l 779 1108 l 583 1108 l 803 1318 l 1006 1318 l 1227 1108 z "},"Ẅ":{"ha":1810,"x_min":28,"x_max":1781,"o":"m 1546 1028 l 1781 1028 l 1465 0 l 1152 0 l 908 792 l 657 0 l 345 0 l 28 1028 l 278 1028 l 518 215 l 774 1028 l 1047 1028 l 1299 203 l 1546 1028 m 707 1115 q 614 1142 644 1115 q 583 1216 583 1168 q 614 1290 583 1264 q 707 1317 644 1317 q 800 1290 769 1317 q 831 1216 831 1264 q 800 1142 831 1168 q 707 1115 769 1115 m 1103 1115 q 1010 1142 1040 1115 q 979 1216 979 1168 q 1010 1290 979 1264 q 1103 1317 1040 1317 q 1196 1290 1165 1317 q 1227 1216 1227 1264 q 1196 1142 1227 1168 q 1103 1115 1165 1115 z "},"Ẁ":{"ha":1810,"x_min":28,"x_max":1781,"o":"m 1546 1028 l 1781 1028 l 1465 0 l 1152 0 l 908 792 l 657 0 l 345 0 l 28 1028 l 278 1028 l 518 215 l 774 1028 l 1047 1028 l 1299 203 l 1546 1028 m 795 1108 l 614 1318 l 869 1318 l 1015 1108 l 795 1108 z "},"X":{"ha":1059,"x_min":-25,"x_max":1085,"o":"m 673 536 l 1085 0 l 809 0 l 525 372 l 242 0 l -25 0 l 383 532 l -1 1028 l 275 1028 l 531 695 l 785 1028 l 1052 1028 l 673 536 z "},"Y":{"ha":1004,"x_min":-33,"x_max":1026,"o":"m 1026 1028 l 627 434 l 627 0 l 381 0 l 381 432 l -33 1028 l 231 1028 l 508 626 l 780 1028 l 1026 1028 z "},"Ý":{"ha":1004,"x_min":-33,"x_max":1026,"o":"m 1026 1028 l 627 434 l 627 0 l 381 0 l 381 432 l -33 1028 l 231 1028 l 508 626 l 780 1028 l 1026 1028 m 390 1108 l 535 1318 l 791 1318 l 609 1108 l 390 1108 z "},"Ŷ":{"ha":1004,"x_min":-33,"x_max":1026,"o":"m 1026 1028 l 627 434 l 627 0 l 381 0 l 381 432 l -33 1028 l 231 1028 l 508 626 l 780 1028 l 1026 1028 m 824 1108 l 627 1108 l 501 1230 l 376 1108 l 179 1108 l 400 1318 l 603 1318 l 824 1108 z "},"Ÿ":{"ha":1004,"x_min":-33,"x_max":1026,"o":"m 1026 1028 l 627 434 l 627 0 l 381 0 l 381 432 l -33 1028 l 231 1028 l 508 626 l 780 1028 l 1026 1028 m 303 1115 q 210 1142 241 1115 q 179 1216 179 1168 q 210 1290 179 1264 q 303 1317 241 1317 q 397 1290 366 1317 q 427 1216 427 1264 q 397 1142 427 1168 q 303 1115 366 1115 m 699 1115 q 606 1142 637 1115 q 576 1216 576 1168 q 606 1290 576 1264 q 699 1317 637 1317 q 793 1290 762 1317 q 824 1216 824 1264 q 793 1142 824 1168 q 699 1115 762 1115 z "},"Ẏ":{"ha":1004,"x_min":-33,"x_max":1026,"o":"m 1026 1028 l 627 434 l 627 0 l 381 0 l 381 432 l -33 1028 l 231 1028 l 508 626 l 780 1028 l 1026 1028 m 501 1115 q 393 1142 428 1115 q 358 1216 358 1169 q 393 1290 358 1263 q 501 1317 428 1317 q 610 1290 574 1317 q 645 1216 645 1263 q 610 1142 645 1169 q 501 1115 574 1115 z "},"Ỵ":{"ha":1004,"x_min":-33,"x_max":1026,"o":"m 1026 1028 l 627 434 l 627 0 l 381 0 l 381 432 l -33 1028 l 231 1028 l 508 626 l 780 1028 l 1026 1028 m 501 -290 q 393 -264 428 -290 q 358 -190 358 -237 q 393 -116 358 -143 q 501 -89 428 -89 q 610 -116 574 -89 q 645 -190 645 -143 q 610 -264 645 -237 q 501 -290 574 -290 z "},"Ỳ":{"ha":1004,"x_min":-33,"x_max":1026,"o":"m 1026 1028 l 627 434 l 627 0 l 381 0 l 381 432 l -33 1028 l 231 1028 l 508 626 l 780 1028 l 1026 1028 m 392 1108 l 210 1318 l 466 1318 l 611 1108 l 392 1108 z "},"Ỷ":{"ha":1004,"x_min":-33,"x_max":1026,"o":"m 1026 1028 l 627 434 l 627 0 l 381 0 l 381 432 l -33 1028 l 231 1028 l 508 626 l 780 1028 l 1026 1028 m 442 1108 q 464 1151 443 1135 q 521 1183 484 1167 q 558 1202 547 1194 q 569 1222 569 1210 q 549 1240 569 1234 q 486 1247 529 1247 q 415 1243 449 1247 q 341 1229 382 1239 l 341 1313 q 417 1326 374 1322 q 503 1331 460 1331 q 645 1307 599 1331 q 691 1237 691 1283 q 670 1186 691 1205 q 611 1149 649 1168 q 574 1128 585 1136 q 560 1108 562 1119 l 442 1108 z "},"Ȳ":{"ha":1004,"x_min":-33,"x_max":1026,"o":"m 1026 1028 l 627 434 l 627 0 l 381 0 l 381 432 l -33 1028 l 231 1028 l 508 626 l 780 1028 l 1026 1028 m 223 1146 l 223 1281 l 780 1281 l 780 1146 l 223 1146 z "},"Ỹ":{"ha":1004,"x_min":-33,"x_max":1026,"o":"m 1026 1028 l 627 434 l 627 0 l 381 0 l 381 432 l -33 1028 l 231 1028 l 508 626 l 780 1028 l 1026 1028 m 631 1124 q 566 1131 596 1124 q 490 1151 536 1137 q 423 1169 451 1163 q 366 1175 395 1175 q 286 1164 321 1175 q 215 1129 252 1153 l 215 1256 q 283 1294 246 1282 q 372 1306 320 1306 q 438 1299 408 1306 q 513 1279 469 1292 q 580 1261 552 1267 q 637 1255 608 1255 q 717 1266 682 1255 q 788 1300 751 1276 l 788 1173 q 720 1136 757 1148 q 631 1124 683 1124 z "},"Z":{"ha":983,"x_min":56,"x_max":927,"o":"m 374 192 l 927 192 l 927 0 l 56 0 l 56 132 l 600 835 l 63 835 l 63 1028 l 919 1028 l 919 896 l 374 192 z "},"Ź":{"ha":983,"x_min":56,"x_max":927,"o":"m 374 192 l 927 192 l 927 0 l 56 0 l 56 132 l 600 835 l 63 835 l 63 1028 l 919 1028 l 919 896 l 374 192 m 380 1108 l 525 1318 l 781 1318 l 599 1108 l 380 1108 z "},"Ž":{"ha":983,"x_min":56,"x_max":927,"o":"m 374 192 l 927 192 l 927 0 l 56 0 l 56 132 l 600 835 l 63 835 l 63 1028 l 919 1028 l 919 896 l 374 192 m 617 1318 l 814 1318 l 593 1108 l 390 1108 l 169 1318 l 366 1318 l 492 1195 l 617 1318 z "},"Ż":{"ha":983,"x_min":56,"x_max":927,"o":"m 374 192 l 927 192 l 927 0 l 56 0 l 56 132 l 600 835 l 63 835 l 63 1028 l 919 1028 l 919 896 l 374 192 m 492 1115 q 383 1142 419 1115 q 348 1216 348 1169 q 383 1290 348 1263 q 492 1317 419 1317 q 600 1290 565 1317 q 635 1216 635 1263 q 600 1142 635 1169 q 492 1115 565 1115 z "},"Ẓ":{"ha":983,"x_min":56,"x_max":927,"o":"m 374 192 l 927 192 l 927 0 l 56 0 l 56 132 l 600 835 l 63 835 l 63 1028 l 919 1028 l 919 896 l 374 192 m 492 -290 q 383 -264 419 -290 q 348 -190 348 -237 q 383 -116 348 -143 q 492 -89 419 -89 q 600 -116 565 -89 q 635 -190 635 -143 q 600 -264 635 -237 q 492 -290 565 -290 z "},"a":{"ha":884,"x_min":56,"x_max":794,"o":"m 399 772 q 626 740 540 772 q 753 634 712 708 q 794 433 794 560 l 794 0 l 595 0 l 579 72 l 567 72 q 467 8 527 30 q 337 -14 407 -14 q 183 14 247 -14 q 88 92 120 42 q 56 208 56 142 q 141 374 56 315 q 407 445 226 433 l 559 457 q 538 542 558 511 q 475 585 517 572 q 358 599 432 599 q 243 590 306 599 q 124 565 180 581 l 124 735 q 259 763 186 753 q 399 772 333 772 m 411 143 q 489 155 451 143 q 559 192 528 167 l 559 328 l 428 318 q 325 290 356 312 q 294 227 294 267 q 324 165 294 188 q 411 143 353 143 z "},"á":{"ha":884,"x_min":56,"x_max":794,"o":"m 399 772 q 626 740 540 772 q 753 634 712 708 q 794 433 794 560 l 794 0 l 595 0 l 579 72 l 567 72 q 467 8 527 30 q 337 -14 407 -14 q 183 14 247 -14 q 88 92 120 42 q 56 208 56 142 q 141 374 56 315 q 407 445 226 433 l 559 457 q 538 542 558 511 q 475 585 517 572 q 358 599 432 599 q 243 590 306 599 q 124 565 180 581 l 124 735 q 259 763 186 753 q 399 772 333 772 m 411 143 q 489 155 451 143 q 559 192 528 167 l 559 328 l 428 318 q 325 290 356 312 q 294 227 294 267 q 324 165 294 188 q 411 143 353 143 m 325 856 l 506 1122 l 771 1122 l 554 856 l 325 856 z "},"ă":{"ha":884,"x_min":56,"x_max":794,"o":"m 399 772 q 626 740 540 772 q 753 634 712 708 q 794 433 794 560 l 794 0 l 595 0 l 579 72 l 567 72 q 467 8 527 30 q 337 -14 407 -14 q 183 14 247 -14 q 88 92 120 42 q 56 208 56 142 q 141 374 56 315 q 407 445 226 433 l 559 457 q 538 542 558 511 q 475 585 517 572 q 358 599 432 599 q 243 590 306 599 q 124 565 180 581 l 124 735 q 259 763 186 753 q 399 772 333 772 m 411 143 q 489 155 451 143 q 559 192 528 167 l 559 328 l 428 318 q 325 290 356 312 q 294 227 294 267 q 324 165 294 188 q 411 143 353 143 m 440 860 q 288 891 351 860 q 191 976 225 921 q 153 1107 157 1031 l 297 1107 q 440 979 310 979 q 542 1012 508 979 q 582 1107 576 1045 l 726 1107 q 647 926 720 992 q 440 860 573 860 z "},"ắ":{"ha":884,"x_min":56,"x_max":794,"o":"m 399 772 q 626 740 540 772 q 753 634 712 708 q 794 433 794 560 l 794 0 l 595 0 l 579 72 l 567 72 q 467 8 527 30 q 337 -14 407 -14 q 183 14 247 -14 q 88 92 120 42 q 56 208 56 142 q 141 374 56 315 q 407 445 226 433 l 559 457 q 538 542 558 511 q 475 585 517 572 q 358 599 432 599 q 243 590 306 599 q 124 565 180 581 l 124 735 q 259 763 186 753 q 399 772 333 772 m 411 143 q 489 155 451 143 q 559 192 528 167 l 559 328 l 428 318 q 325 290 356 312 q 294 227 294 267 q 324 165 294 188 q 411 143 353 143 m 352 1109 l 498 1297 l 705 1297 l 523 1109 l 352 1109 m 440 865 q 228 925 303 865 q 141 1083 154 985 l 287 1083 q 334 1006 297 1034 q 440 978 371 978 q 546 1006 509 978 q 592 1083 583 1034 l 738 1083 q 651 924 725 984 q 440 865 577 865 z "},"ặ":{"ha":884,"x_min":56,"x_max":794,"o":"m 399 772 q 626 740 540 772 q 753 634 712 708 q 794 433 794 560 l 794 0 l 595 0 l 579 72 l 567 72 q 467 8 527 30 q 337 -14 407 -14 q 183 14 247 -14 q 88 92 120 42 q 56 208 56 142 q 141 374 56 315 q 407 445 226 433 l 559 457 q 538 542 558 511 q 475 585 517 572 q 358 599 432 599 q 243 590 306 599 q 124 565 180 581 l 124 735 q 259 763 186 753 q 399 772 333 772 m 411 143 q 489 155 451 143 q 559 192 528 167 l 559 328 l 428 318 q 325 290 356 312 q 294 227 294 267 q 324 165 294 188 q 411 143 353 143 m 444 -308 q 349 -278 381 -308 q 317 -199 317 -249 q 349 -118 317 -147 q 444 -89 381 -89 q 540 -118 508 -89 q 572 -199 572 -147 q 540 -278 572 -249 q 444 -308 508 -308 m 440 860 q 288 891 351 860 q 191 976 225 921 q 153 1107 157 1031 l 297 1107 q 440 979 310 979 q 542 1012 508 979 q 582 1107 576 1045 l 726 1107 q 647 926 720 992 q 440 860 573 860 z "},"ằ":{"ha":884,"x_min":56,"x_max":794,"o":"m 399 772 q 626 740 540 772 q 753 634 712 708 q 794 433 794 560 l 794 0 l 595 0 l 579 72 l 567 72 q 467 8 527 30 q 337 -14 407 -14 q 183 14 247 -14 q 88 92 120 42 q 56 208 56 142 q 141 374 56 315 q 407 445 226 433 l 559 457 q 538 542 558 511 q 475 585 517 572 q 358 599 432 599 q 243 590 306 599 q 124 565 180 581 l 124 735 q 259 763 186 753 q 399 772 333 772 m 411 143 q 489 155 451 143 q 559 192 528 167 l 559 328 l 428 318 q 325 290 356 312 q 294 227 294 267 q 324 165 294 188 q 411 143 353 143 m 356 1109 l 174 1297 l 381 1297 l 527 1109 l 356 1109 m 440 865 q 228 925 303 865 q 141 1083 154 985 l 287 1083 q 334 1006 297 1034 q 440 978 371 978 q 546 1006 509 978 q 592 1083 583 1034 l 738 1083 q 651 924 725 984 q 440 865 577 865 z "},"ẳ":{"ha":884,"x_min":56,"x_max":794,"o":"m 399 772 q 626 740 540 772 q 753 634 712 708 q 794 433 794 560 l 794 0 l 595 0 l 579 72 l 567 72 q 467 8 527 30 q 337 -14 407 -14 q 183 14 247 -14 q 88 92 120 42 q 56 208 56 142 q 141 374 56 315 q 407 445 226 433 l 559 457 q 538 542 558 511 q 475 585 517 572 q 358 599 432 599 q 243 590 306 599 q 124 565 180 581 l 124 735 q 259 763 186 753 q 399 772 333 772 m 411 143 q 489 155 451 143 q 559 192 528 167 l 559 328 l 428 318 q 325 290 356 312 q 294 227 294 267 q 324 165 294 188 q 411 143 353 143 m 380 1109 q 392 1140 381 1127 q 419 1160 404 1153 q 459 1178 434 1168 q 496 1195 484 1188 q 508 1213 508 1202 q 424 1235 508 1235 q 354 1232 388 1235 q 279 1219 321 1228 l 279 1292 q 357 1305 313 1300 q 441 1310 400 1310 q 583 1288 537 1310 q 629 1225 629 1266 q 618 1191 629 1205 q 591 1167 606 1176 q 549 1147 575 1158 q 513 1128 525 1136 q 499 1109 500 1119 l 380 1109 m 440 865 q 228 925 303 865 q 141 1083 154 985 l 287 1083 q 334 1006 297 1034 q 440 978 371 978 q 546 1006 509 978 q 592 1083 583 1034 l 738 1083 q 651 924 725 984 q 440 865 577 865 z "},"ẵ":{"ha":884,"x_min":56,"x_max":794,"o":"m 399 772 q 626 740 540 772 q 753 634 712 708 q 794 433 794 560 l 794 0 l 595 0 l 579 72 l 567 72 q 467 8 527 30 q 337 -14 407 -14 q 183 14 247 -14 q 88 92 120 42 q 56 208 56 142 q 141 374 56 315 q 407 445 226 433 l 559 457 q 538 542 558 511 q 475 585 517 572 q 358 599 432 599 q 243 590 306 599 q 124 565 180 581 l 124 735 q 259 763 186 753 q 399 772 333 772 m 411 143 q 489 155 451 143 q 559 192 528 167 l 559 328 l 428 318 q 325 290 356 312 q 294 227 294 267 q 324 165 294 188 q 411 143 353 143 m 576 1125 q 505 1131 538 1125 q 427 1149 472 1137 q 357 1165 387 1159 q 297 1170 328 1170 q 213 1160 250 1170 q 138 1128 176 1150 l 138 1240 q 211 1274 172 1263 q 303 1285 250 1285 q 373 1279 341 1285 q 452 1260 404 1273 q 523 1244 495 1249 q 582 1238 551 1238 q 666 1248 629 1238 q 741 1280 703 1258 l 741 1169 q 669 1135 708 1145 q 576 1125 631 1125 m 440 865 q 228 925 303 865 q 141 1083 154 985 l 287 1083 q 334 1006 297 1034 q 440 978 371 978 q 546 1006 509 978 q 592 1083 583 1034 l 738 1083 q 651 924 725 984 q 440 865 577 865 z "},"â":{"ha":884,"x_min":56,"x_max":794,"o":"m 399 772 q 626 740 540 772 q 753 634 712 708 q 794 433 794 560 l 794 0 l 595 0 l 579 72 l 567 72 q 467 8 527 30 q 337 -14 407 -14 q 183 14 247 -14 q 88 92 120 42 q 56 208 56 142 q 141 374 56 315 q 407 445 226 433 l 559 457 q 538 542 558 511 q 475 585 517 572 q 358 599 432 599 q 243 590 306 599 q 124 565 180 581 l 124 735 q 259 763 186 753 q 399 772 333 772 m 411 143 q 489 155 451 143 q 559 192 528 167 l 559 328 l 428 318 q 325 290 356 312 q 294 227 294 267 q 324 165 294 188 q 411 143 353 143 m 728 856 l 549 856 l 440 1011 l 331 856 l 151 856 l 345 1122 l 534 1122 l 728 856 z "},"ấ":{"ha":884,"x_min":56,"x_max":960,"o":"m 399 772 q 626 740 540 772 q 753 634 712 708 q 794 433 794 560 l 794 0 l 595 0 l 579 72 l 567 72 q 467 8 527 30 q 337 -14 407 -14 q 183 14 247 -14 q 88 92 120 42 q 56 208 56 142 q 141 374 56 315 q 407 445 226 433 l 559 457 q 538 542 558 511 q 475 585 517 572 q 358 599 432 599 q 243 590 306 599 q 124 565 180 581 l 124 735 q 259 763 186 753 q 399 772 333 772 m 411 143 q 489 155 451 143 q 559 192 528 167 l 559 328 l 428 318 q 325 290 356 312 q 294 227 294 267 q 324 165 294 188 q 411 143 353 143 m 753 1297 l 960 1297 l 778 1109 l 608 1109 l 753 1297 m 345 1122 l 534 1122 l 728 856 l 549 856 l 440 1011 l 331 856 l 151 856 l 345 1122 z "},"ậ":{"ha":884,"x_min":56,"x_max":794,"o":"m 399 772 q 626 740 540 772 q 753 634 712 708 q 794 433 794 560 l 794 0 l 595 0 l 579 72 l 567 72 q 467 8 527 30 q 337 -14 407 -14 q 183 14 247 -14 q 88 92 120 42 q 56 208 56 142 q 141 374 56 315 q 407 445 226 433 l 559 457 q 538 542 558 511 q 475 585 517 572 q 358 599 432 599 q 243 590 306 599 q 124 565 180 581 l 124 735 q 259 763 186 753 q 399 772 333 772 m 411 143 q 489 155 451 143 q 559 192 528 167 l 559 328 l 428 318 q 325 290 356 312 q 294 227 294 267 q 324 165 294 188 q 411 143 353 143 m 444 -308 q 349 -278 381 -308 q 317 -199 317 -249 q 349 -118 317 -147 q 444 -89 381 -89 q 540 -118 508 -89 q 572 -199 572 -147 q 540 -278 572 -249 q 444 -308 508 -308 m 728 856 l 549 856 l 440 1011 l 331 856 l 151 856 l 345 1122 l 534 1122 l 728 856 z "},"ầ":{"ha":884,"x_min":56,"x_max":803,"o":"m 399 772 q 626 740 540 772 q 753 634 712 708 q 794 433 794 560 l 794 0 l 595 0 l 579 72 l 567 72 q 467 8 527 30 q 337 -14 407 -14 q 183 14 247 -14 q 88 92 120 42 q 56 208 56 142 q 141 374 56 315 q 407 445 226 433 l 559 457 q 538 542 558 511 q 475 585 517 572 q 358 599 432 599 q 243 590 306 599 q 124 565 180 581 l 124 735 q 259 763 186 753 q 399 772 333 772 m 411 143 q 489 155 451 143 q 559 192 528 167 l 559 328 l 428 318 q 325 290 356 312 q 294 227 294 267 q 324 165 294 188 q 411 143 353 143 m 803 1109 l 633 1109 l 451 1297 l 658 1297 l 803 1109 m 345 1122 l 534 1122 l 728 856 l 549 856 l 440 1011 l 331 856 l 151 856 l 345 1122 z "},"ẩ":{"ha":884,"x_min":56,"x_max":832,"o":"m 399 772 q 626 740 540 772 q 753 634 712 708 q 794 433 794 560 l 794 0 l 595 0 l 579 72 l 567 72 q 467 8 527 30 q 337 -14 407 -14 q 183 14 247 -14 q 88 92 120 42 q 56 208 56 142 q 141 374 56 315 q 407 445 226 433 l 559 457 q 538 542 558 511 q 475 585 517 572 q 358 599 432 599 q 243 590 306 599 q 124 565 180 581 l 124 735 q 259 763 186 753 q 399 772 333 772 m 411 143 q 489 155 451 143 q 559 192 528 167 l 559 328 l 428 318 q 325 290 356 312 q 294 227 294 267 q 324 165 294 188 q 411 143 353 143 m 664 1310 q 792 1289 751 1310 q 832 1226 832 1269 q 817 1189 832 1203 q 772 1161 801 1176 q 731 1137 744 1148 q 715 1109 717 1126 l 610 1109 q 631 1156 612 1140 q 684 1185 651 1172 q 711 1199 703 1193 q 719 1213 719 1205 q 702 1231 719 1225 q 647 1238 685 1238 q 517 1222 577 1238 l 517 1292 q 585 1305 544 1300 q 664 1310 626 1310 m 345 1122 l 534 1122 l 728 856 l 549 856 l 440 1011 l 331 856 l 151 856 l 345 1122 z "},"ẫ":{"ha":884,"x_min":56,"x_max":794,"o":"m 399 772 q 626 740 540 772 q 753 634 712 708 q 794 433 794 560 l 794 0 l 595 0 l 579 72 l 567 72 q 467 8 527 30 q 337 -14 407 -14 q 183 14 247 -14 q 88 92 120 42 q 56 208 56 142 q 141 374 56 315 q 407 445 226 433 l 559 457 q 538 542 558 511 q 475 585 517 572 q 358 599 432 599 q 243 590 306 599 q 124 565 180 581 l 124 735 q 259 763 186 753 q 399 772 333 772 m 411 143 q 489 155 451 143 q 559 192 528 167 l 559 328 l 428 318 q 325 290 356 312 q 294 227 294 267 q 324 165 294 188 q 411 143 353 143 m 567 1125 q 500 1131 532 1125 q 428 1149 469 1137 q 362 1165 388 1160 q 306 1170 335 1170 q 228 1160 263 1170 q 158 1129 194 1151 l 158 1240 q 225 1274 188 1263 q 312 1285 263 1285 q 377 1278 347 1285 q 451 1260 408 1272 q 519 1243 493 1249 q 573 1238 544 1238 q 651 1248 617 1238 q 722 1280 685 1258 l 722 1169 q 655 1135 692 1146 q 567 1125 617 1125 m 757 858 l 563 858 l 440 994 l 316 858 l 122 858 l 338 1084 l 541 1084 l 757 858 z "},"ȁ":{"ha":884,"x_min":56,"x_max":794,"o":"m 399 772 q 626 740 540 772 q 753 634 712 708 q 794 433 794 560 l 794 0 l 595 0 l 579 72 l 567 72 q 467 8 527 30 q 337 -14 407 -14 q 183 14 247 -14 q 88 92 120 42 q 56 208 56 142 q 141 374 56 315 q 407 445 226 433 l 559 457 q 538 542 558 511 q 475 585 517 572 q 358 599 432 599 q 243 590 306 599 q 124 565 180 581 l 124 735 q 259 763 186 753 q 399 772 333 772 m 411 143 q 489 155 451 143 q 559 192 528 167 l 559 328 l 428 318 q 325 290 356 312 q 294 227 294 267 q 324 165 294 188 q 411 143 353 143 m 203 856 l 73 1122 l 258 1122 l 376 856 l 203 856 m 503 856 l 373 1122 l 558 1122 l 676 856 l 503 856 z "},"ä":{"ha":884,"x_min":56,"x_max":794,"o":"m 399 772 q 626 740 540 772 q 753 634 712 708 q 794 433 794 560 l 794 0 l 595 0 l 579 72 l 567 72 q 467 8 527 30 q 337 -14 407 -14 q 183 14 247 -14 q 88 92 120 42 q 56 208 56 142 q 141 374 56 315 q 407 445 226 433 l 559 457 q 538 542 558 511 q 475 585 517 572 q 358 599 432 599 q 243 590 306 599 q 124 565 180 581 l 124 735 q 259 763 186 753 q 399 772 333 772 m 411 143 q 489 155 451 143 q 559 192 528 167 l 559 328 l 428 318 q 325 290 356 312 q 294 227 294 267 q 324 165 294 188 q 411 143 353 143 m 251 872 q 155 901 187 872 q 124 985 124 931 q 155 1070 124 1040 q 251 1100 187 1100 q 345 1070 314 1100 q 377 985 377 1040 q 345 901 377 931 q 251 872 314 872 m 628 872 q 534 901 565 872 q 502 985 502 931 q 534 1070 502 1040 q 628 1100 565 1100 q 724 1070 692 1100 q 756 985 756 1040 q 724 901 756 931 q 628 872 692 872 z "},"ạ":{"ha":884,"x_min":56,"x_max":794,"o":"m 399 772 q 626 740 540 772 q 753 634 712 708 q 794 433 794 560 l 794 0 l 595 0 l 579 72 l 567 72 q 467 8 527 30 q 337 -14 407 -14 q 183 14 247 -14 q 88 92 120 42 q 56 208 56 142 q 141 374 56 315 q 407 445 226 433 l 559 457 q 538 542 558 511 q 475 585 517 572 q 358 599 432 599 q 243 590 306 599 q 124 565 180 581 l 124 735 q 259 763 186 753 q 399 772 333 772 m 411 143 q 489 155 451 143 q 559 192 528 167 l 559 328 l 428 318 q 325 290 356 312 q 294 227 294 267 q 324 165 294 188 q 411 143 353 143 m 444 -308 q 349 -278 381 -308 q 317 -199 317 -249 q 349 -118 317 -147 q 444 -89 381 -89 q 540 -118 508 -89 q 572 -199 572 -147 q 540 -278 572 -249 q 444 -308 508 -308 z "},"à":{"ha":884,"x_min":56,"x_max":794,"o":"m 399 772 q 626 740 540 772 q 753 634 712 708 q 794 433 794 560 l 794 0 l 595 0 l 579 72 l 567 72 q 467 8 527 30 q 337 -14 407 -14 q 183 14 247 -14 q 88 92 120 42 q 56 208 56 142 q 141 374 56 315 q 407 445 226 433 l 559 457 q 538 542 558 511 q 475 585 517 572 q 358 599 432 599 q 243 590 306 599 q 124 565 180 581 l 124 735 q 259 763 186 753 q 399 772 333 772 m 411 143 q 489 155 451 143 q 559 192 528 167 l 559 328 l 428 318 q 325 290 356 312 q 294 227 294 267 q 324 165 294 188 q 411 143 353 143 m 325 856 l 108 1122 l 373 1122 l 554 856 l 325 856 z "},"ả":{"ha":884,"x_min":56,"x_max":794,"o":"m 399 772 q 626 740 540 772 q 753 634 712 708 q 794 433 794 560 l 794 0 l 595 0 l 579 72 l 567 72 q 467 8 527 30 q 337 -14 407 -14 q 183 14 247 -14 q 88 92 120 42 q 56 208 56 142 q 141 374 56 315 q 407 445 226 433 l 559 457 q 538 542 558 511 q 475 585 517 572 q 358 599 432 599 q 243 590 306 599 q 124 565 180 581 l 124 735 q 259 763 186 753 q 399 772 333 772 m 411 143 q 489 155 451 143 q 559 192 528 167 l 559 328 l 428 318 q 325 290 356 312 q 294 227 294 267 q 324 165 294 188 q 411 143 353 143 m 381 856 q 393 905 382 885 q 419 937 405 925 q 456 965 433 949 q 488 988 478 979 q 497 1010 497 997 q 480 1035 497 1028 q 421 1043 463 1043 q 295 1026 361 1043 l 295 1113 q 363 1126 323 1121 q 436 1131 403 1131 q 575 1104 531 1131 q 619 1024 619 1078 q 610 982 619 999 q 589 954 601 965 q 556 928 576 943 q 515 896 529 911 q 499 856 501 881 l 381 856 z "},"ȃ":{"ha":884,"x_min":56,"x_max":794,"o":"m 399 772 q 626 740 540 772 q 753 634 712 708 q 794 433 794 560 l 794 0 l 595 0 l 579 72 l 567 72 q 467 8 527 30 q 337 -14 407 -14 q 183 14 247 -14 q 88 92 120 42 q 56 208 56 142 q 141 374 56 315 q 407 445 226 433 l 559 457 q 538 542 558 511 q 475 585 517 572 q 358 599 432 599 q 243 590 306 599 q 124 565 180 581 l 124 735 q 259 763 186 753 q 399 772 333 772 m 411 143 q 489 155 451 143 q 559 192 528 167 l 559 328 l 428 318 q 325 290 356 312 q 294 227 294 267 q 324 165 294 188 q 411 143 353 143 m 153 876 q 232 1056 159 991 q 439 1122 306 1122 q 646 1056 572 1122 q 726 876 720 990 l 582 876 q 439 1003 569 1003 q 297 876 310 1003 l 153 876 z "},"ā":{"ha":884,"x_min":56,"x_max":794,"o":"m 399 772 q 626 740 540 772 q 753 634 712 708 q 794 433 794 560 l 794 0 l 595 0 l 579 72 l 567 72 q 467 8 527 30 q 337 -14 407 -14 q 183 14 247 -14 q 88 92 120 42 q 56 208 56 142 q 141 374 56 315 q 407 445 226 433 l 559 457 q 538 542 558 511 q 475 585 517 572 q 358 599 432 599 q 243 590 306 599 q 124 565 180 581 l 124 735 q 259 763 186 753 q 399 772 333 772 m 411 143 q 489 155 451 143 q 559 192 528 167 l 559 328 l 428 318 q 325 290 356 312 q 294 227 294 267 q 324 165 294 188 q 411 143 353 143 m 172 919 l 172 1053 l 708 1053 l 708 919 l 172 919 z "},"ą":{"ha":884,"x_min":56,"x_max":828,"o":"m 735 -215 q 828 -194 782 -215 l 828 -284 q 701 -307 768 -307 q 557 -268 607 -307 q 508 -162 508 -229 q 614 0 508 -60 l 595 0 l 579 72 l 567 72 q 467 8 527 30 q 337 -14 407 -14 q 183 14 247 -14 q 88 92 120 42 q 56 208 56 142 q 141 374 56 315 q 407 445 226 433 l 559 457 q 538 542 558 511 q 475 585 517 572 q 358 599 432 599 q 243 590 306 599 q 124 565 180 581 l 124 735 q 259 763 186 753 q 399 772 333 772 q 626 740 540 772 q 753 634 712 708 q 794 433 794 560 l 794 0 q 678 -66 713 -32 q 644 -144 644 -101 q 668 -196 644 -177 q 735 -215 692 -215 m 411 143 q 489 155 451 143 q 559 192 528 167 l 559 328 l 428 318 q 325 290 356 312 q 294 227 294 267 q 324 165 294 188 q 411 143 353 143 z "},"å":{"ha":884,"x_min":56,"x_max":794,"o":"m 399 772 q 626 740 540 772 q 753 634 712 708 q 794 433 794 560 l 794 0 l 595 0 l 579 72 l 567 72 q 467 8 527 30 q 337 -14 407 -14 q 183 14 247 -14 q 88 92 120 42 q 56 208 56 142 q 141 374 56 315 q 407 445 226 433 l 559 457 q 538 542 558 511 q 475 585 517 572 q 358 599 432 599 q 243 590 306 599 q 124 565 180 581 l 124 735 q 259 763 186 753 q 399 772 333 772 m 411 143 q 489 155 451 143 q 559 192 528 167 l 559 328 l 428 318 q 325 290 356 312 q 294 227 294 267 q 324 165 294 188 q 411 143 353 143 m 440 853 q 363 872 397 853 q 310 923 329 890 q 290 998 290 956 q 310 1073 290 1040 q 363 1124 329 1106 q 440 1143 397 1143 q 516 1124 482 1143 q 569 1073 550 1106 q 589 998 589 1040 q 569 923 589 956 q 516 872 550 890 q 440 853 482 853 m 440 931 q 486 949 469 931 q 504 998 504 967 q 486 1047 504 1029 q 440 1065 469 1065 q 393 1047 410 1065 q 375 998 375 1029 q 393 949 375 967 q 440 931 410 931 z "},"ǻ":{"ha":884,"x_min":56,"x_max":794,"o":"m 399 772 q 626 740 540 772 q 753 634 712 708 q 794 433 794 560 l 794 0 l 595 0 l 579 72 l 567 72 q 467 8 527 30 q 337 -14 407 -14 q 183 14 247 -14 q 88 92 120 42 q 56 208 56 142 q 141 374 56 315 q 407 445 226 433 l 559 457 q 538 542 558 511 q 475 585 517 572 q 358 599 432 599 q 243 590 306 599 q 124 565 180 581 l 124 735 q 259 763 186 753 q 399 772 333 772 m 411 143 q 489 155 451 143 q 559 192 528 167 l 559 328 l 428 318 q 325 290 356 312 q 294 227 294 267 q 324 165 294 188 q 411 143 353 143 m 569 1073 q 589 998 589 1040 q 569 923 589 956 q 516 872 550 890 q 440 853 482 853 q 363 872 397 853 q 310 923 329 890 q 290 998 290 956 q 310 1073 290 1040 q 363 1124 329 1106 q 440 1143 397 1143 q 474 1140 456 1143 l 551 1236 l 713 1236 l 569 1073 m 440 931 q 486 949 469 931 q 504 998 504 967 q 486 1047 504 1029 q 440 1065 469 1065 q 393 1047 410 1065 q 375 998 375 1029 q 393 949 375 967 q 440 931 410 931 z "},"ã":{"ha":884,"x_min":56,"x_max":794,"o":"m 399 772 q 626 740 540 772 q 753 634 712 708 q 794 433 794 560 l 794 0 l 595 0 l 579 72 l 567 72 q 467 8 527 30 q 337 -14 407 -14 q 183 14 247 -14 q 88 92 120 42 q 56 208 56 142 q 141 374 56 315 q 407 445 226 433 l 559 457 q 538 542 558 511 q 475 585 517 572 q 358 599 432 599 q 243 590 306 599 q 124 565 180 581 l 124 735 q 259 763 186 753 q 399 772 333 772 m 411 143 q 489 155 451 143 q 559 192 528 167 l 559 328 l 428 318 q 325 290 356 312 q 294 227 294 267 q 324 165 294 188 q 411 143 353 143 m 558 890 q 498 899 526 890 q 427 924 469 907 q 367 947 392 940 q 316 955 342 955 q 240 941 274 955 q 172 896 206 927 l 172 1038 q 238 1078 201 1065 q 322 1092 274 1092 q 382 1083 353 1092 q 452 1058 410 1075 q 512 1035 487 1042 q 563 1027 538 1027 q 639 1041 605 1027 q 708 1086 673 1055 l 708 944 q 641 903 678 917 q 558 890 605 890 z "},"æ":{"ha":1372,"x_min":56,"x_max":1323,"o":"m 1323 314 l 796 314 q 826 223 800 257 q 909 173 853 189 q 1061 157 965 157 q 1165 163 1109 157 q 1275 181 1221 169 l 1275 11 q 1024 -15 1150 -15 q 803 13 895 -15 q 654 98 711 41 q 357 -14 528 -14 q 190 14 258 -14 q 90 93 123 42 q 56 209 56 143 q 144 383 56 320 q 414 445 231 445 l 559 445 l 559 451 q 539 540 559 508 q 476 585 519 572 q 358 599 433 599 q 243 590 306 599 q 124 565 180 581 l 124 735 q 256 763 187 753 q 390 772 324 772 q 576 749 501 772 q 696 674 651 726 q 812 747 744 722 q 963 772 880 772 q 1158 724 1078 772 q 1281 586 1239 676 q 1323 371 1323 497 l 1323 314 m 949 626 q 836 582 874 626 q 794 445 797 538 l 1101 445 q 1060 582 1098 538 q 949 626 1022 626 m 413 143 q 502 158 460 143 q 585 210 544 174 q 562 316 568 258 l 433 316 q 294 226 294 316 q 324 165 294 187 q 413 143 353 143 z "},"ǽ":{"ha":1372,"x_min":56,"x_max":1323,"o":"m 1323 314 l 796 314 q 826 223 800 257 q 909 173 853 189 q 1061 157 965 157 q 1165 163 1109 157 q 1275 181 1221 169 l 1275 11 q 1024 -15 1150 -15 q 803 13 895 -15 q 654 98 711 41 q 357 -14 528 -14 q 190 14 258 -14 q 90 93 123 42 q 56 209 56 143 q 144 383 56 320 q 414 445 231 445 l 559 445 l 559 451 q 539 540 559 508 q 476 585 519 572 q 358 599 433 599 q 243 590 306 599 q 124 565 180 581 l 124 735 q 256 763 187 753 q 390 772 324 772 q 576 749 501 772 q 696 674 651 726 q 812 747 744 722 q 963 772 880 772 q 1158 724 1078 772 q 1281 586 1239 676 q 1323 371 1323 497 l 1323 314 m 949 626 q 836 582 874 626 q 794 445 797 538 l 1101 445 q 1060 582 1098 538 q 949 626 1022 626 m 413 143 q 502 158 460 143 q 585 210 544 174 q 562 316 568 258 l 433 316 q 294 226 294 316 q 324 165 294 187 q 413 143 353 143 m 569 856 l 750 1122 l 1015 1122 l 798 856 l 569 856 z "},"b":{"ha":981,"x_min":97,"x_max":922,"o":"m 440 -15 q 262 -3 350 -15 q 97 31 174 8 l 97 1122 l 338 1122 l 338 688 l 349 688 q 583 772 438 772 q 755 731 678 772 q 877 606 832 690 q 922 399 922 522 q 800 91 922 197 q 440 -15 678 -15 m 462 165 q 628 218 574 165 q 683 381 683 272 q 499 581 683 581 q 412 568 453 581 q 338 528 370 555 l 338 180 q 462 165 394 165 z "},"c":{"ha":778,"x_min":58,"x_max":735,"o":"m 512 -15 q 175 86 292 -15 q 58 378 58 187 q 179 670 58 569 q 531 772 300 772 q 735 750 647 772 l 735 566 q 642 580 684 576 q 554 585 599 585 q 364 534 425 585 q 303 378 303 483 q 537 173 303 173 q 626 179 581 173 q 735 201 671 185 l 735 17 q 512 -15 636 -15 z "},"ć":{"ha":778,"x_min":58,"x_max":766,"o":"m 512 -15 q 175 86 292 -15 q 58 378 58 187 q 179 670 58 569 q 531 772 300 772 q 735 750 647 772 l 735 566 q 642 580 684 576 q 554 585 599 585 q 364 534 425 585 q 303 378 303 483 q 537 173 303 173 q 626 179 581 173 q 735 201 671 185 l 735 17 q 512 -15 636 -15 m 320 856 l 501 1122 l 766 1122 l 549 856 l 320 856 z "},"č":{"ha":778,"x_min":58,"x_max":735,"o":"m 512 -15 q 175 86 292 -15 q 58 378 58 187 q 179 670 58 569 q 531 772 300 772 q 735 750 647 772 l 735 566 q 642 580 684 576 q 554 585 599 585 q 364 534 425 585 q 303 378 303 483 q 537 173 303 173 q 626 179 581 173 q 735 201 671 185 l 735 17 q 512 -15 636 -15 m 545 1122 l 724 1122 l 529 856 l 340 856 l 145 1122 l 324 1122 l 435 967 l 545 1122 z "},"ç":{"ha":778,"x_min":58,"x_max":735,"o":"m 554 585 q 364 534 425 585 q 303 378 303 483 q 537 173 303 173 q 626 179 581 173 q 735 201 671 185 l 735 17 q 512 -15 636 -15 l 509 -15 l 509 -59 q 601 -100 570 -68 q 631 -183 631 -132 q 584 -274 631 -242 q 447 -307 536 -307 q 373 -301 409 -307 q 308 -283 336 -294 l 308 -197 q 370 -214 335 -208 q 437 -220 406 -220 q 492 -209 474 -220 q 510 -172 510 -198 q 492 -135 510 -147 q 437 -124 474 -124 l 399 -124 l 399 -7 q 145 115 232 17 q 58 378 58 213 q 179 670 58 569 q 531 772 300 772 q 735 750 647 772 l 735 566 q 642 580 684 576 q 554 585 599 585 z "},"ḉ":{"ha":778,"x_min":58,"x_max":766,"o":"m 766 1122 l 549 856 l 320 856 l 501 1122 l 766 1122 m 58 378 q 179 670 58 569 q 531 772 300 772 q 735 750 647 772 l 735 566 q 642 580 684 576 q 554 585 599 585 q 364 534 425 585 q 303 378 303 483 q 537 173 303 173 q 626 179 581 173 q 735 201 671 185 l 735 17 q 512 -15 636 -15 l 509 -15 l 509 -59 q 601 -100 570 -68 q 631 -183 631 -132 q 584 -274 631 -242 q 447 -307 536 -307 q 373 -301 409 -307 q 308 -283 336 -294 l 308 -197 q 370 -214 335 -208 q 437 -220 406 -220 q 492 -209 474 -220 q 510 -172 510 -198 q 492 -135 510 -147 q 437 -124 474 -124 l 399 -124 l 399 -7 q 145 115 232 17 q 58 378 58 213 z "},"ĉ":{"ha":778,"x_min":58,"x_max":735,"o":"m 512 -15 q 175 86 292 -15 q 58 378 58 187 q 179 670 58 569 q 531 772 300 772 q 735 750 647 772 l 735 566 q 642 580 684 576 q 554 585 599 585 q 364 534 425 585 q 303 378 303 483 q 537 173 303 173 q 626 179 581 173 q 735 201 671 185 l 735 17 q 512 -15 636 -15 m 723 856 l 544 856 l 435 1011 l 326 856 l 147 856 l 340 1122 l 529 1122 l 723 856 z "},"ċ":{"ha":778,"x_min":58,"x_max":735,"o":"m 512 -15 q 175 86 292 -15 q 58 378 58 187 q 179 670 58 569 q 531 772 300 772 q 735 750 647 772 l 735 566 q 642 580 684 576 q 554 585 599 585 q 364 534 425 585 q 303 378 303 483 q 537 173 303 173 q 626 179 581 173 q 735 201 671 185 l 735 17 q 512 -15 636 -15 m 435 869 q 288 985 288 869 q 325 1072 288 1042 q 435 1102 361 1102 q 545 1072 508 1102 q 581 985 581 1042 q 435 869 581 869 z "},"d":{"ha":981,"x_min":58,"x_max":883,"o":"m 417 -12 q 234 27 315 -12 q 106 152 153 67 q 58 364 58 237 q 112 586 58 494 q 266 726 165 678 q 507 774 367 774 q 643 765 571 774 l 643 1122 l 883 1122 l 883 0 l 683 0 l 670 79 l 658 79 q 552 12 614 36 q 417 -12 491 -12 m 482 178 q 570 193 528 178 q 643 239 613 208 l 643 581 q 523 593 588 593 q 352 540 408 593 q 297 380 297 488 q 482 178 297 178 z "},"ð":{"ha":963,"x_min":58,"x_max":907,"o":"m 728 903 q 860 668 813 792 q 907 424 907 544 q 856 181 907 279 q 710 34 806 83 q 482 -15 615 -15 q 257 32 353 -15 q 110 167 162 78 q 58 380 58 256 q 108 591 58 504 q 247 721 158 677 q 456 765 337 765 q 574 747 522 765 q 493 866 541 806 l 145 812 l 123 944 l 381 984 q 196 1122 299 1058 l 499 1122 q 623 1022 567 1076 l 858 1058 l 881 926 l 728 903 m 482 169 q 619 221 572 169 q 666 379 666 273 q 619 539 666 488 q 481 590 572 590 q 343 539 390 590 q 297 381 297 488 q 343 220 297 272 q 482 169 390 169 z "},"ď":{"ha":981,"x_min":58,"x_max":1117,"o":"m 417 -12 q 234 27 315 -12 q 106 152 153 67 q 58 364 58 237 q 112 586 58 494 q 266 726 165 678 q 507 774 367 774 q 643 765 571 774 l 643 1122 l 883 1122 l 883 0 l 683 0 l 670 79 l 658 79 q 552 12 614 36 q 417 -12 491 -12 m 482 178 q 570 193 528 178 q 643 239 613 208 l 643 581 q 523 593 588 593 q 352 540 408 593 q 297 380 297 488 q 482 178 297 178 m 940 819 q 956 968 951 895 q 961 1122 961 1040 l 1117 1122 q 1104 961 1117 1040 q 1067 819 1091 882 l 940 819 z "},"đ":{"ha":981,"x_min":58,"x_max":976,"o":"m 976 872 l 883 872 l 883 0 l 683 0 l 670 79 l 658 79 q 552 12 614 36 q 417 -12 491 -12 q 234 27 315 -12 q 106 152 153 67 q 58 364 58 237 q 112 586 58 494 q 266 726 165 678 q 507 774 367 774 q 643 765 571 774 l 643 872 l 349 872 l 349 1011 l 643 1011 l 643 1122 l 883 1122 l 883 1011 l 976 1011 l 976 872 m 643 581 q 523 593 588 593 q 352 540 408 593 q 297 380 297 488 q 482 178 297 178 q 570 193 528 178 q 643 239 613 208 l 643 581 z "},"ḍ":{"ha":981,"x_min":58,"x_max":883,"o":"m 417 -12 q 234 27 315 -12 q 106 152 153 67 q 58 364 58 237 q 112 586 58 494 q 266 726 165 678 q 507 774 367 774 q 643 765 571 774 l 643 1122 l 883 1122 l 883 0 l 683 0 l 670 79 l 658 79 q 552 12 614 36 q 417 -12 491 -12 m 482 178 q 570 193 528 178 q 643 239 613 208 l 643 581 q 523 593 588 593 q 352 540 408 593 q 297 380 297 488 q 482 178 297 178 m 497 -308 q 402 -278 434 -308 q 370 -199 370 -249 q 402 -118 370 -147 q 497 -89 434 -89 q 592 -118 560 -89 q 624 -199 624 -147 q 592 -278 624 -249 q 497 -308 560 -308 z "},"ḏ":{"ha":981,"x_min":58,"x_max":883,"o":"m 417 -12 q 234 27 315 -12 q 106 152 153 67 q 58 364 58 237 q 112 586 58 494 q 266 726 165 678 q 507 774 367 774 q 643 765 571 774 l 643 1122 l 883 1122 l 883 0 l 683 0 l 670 79 l 658 79 q 552 12 614 36 q 417 -12 491 -12 m 482 178 q 570 193 528 178 q 643 239 613 208 l 643 581 q 523 593 588 593 q 352 540 408 593 q 297 380 297 488 q 482 178 297 178 m 237 -264 l 237 -131 l 758 -131 l 758 -264 l 237 -264 z "},"ǳ":{"ha":1806,"x_min":58,"x_max":1760,"o":"m 417 -12 q 234 27 315 -12 q 106 152 153 67 q 58 364 58 237 q 112 586 58 494 q 266 726 165 678 q 507 774 367 774 q 643 765 571 774 l 643 1122 l 883 1122 l 883 0 l 683 0 l 670 79 l 658 79 q 552 12 614 36 q 417 -12 491 -12 m 482 178 q 570 193 528 178 q 643 239 613 208 l 643 581 q 523 593 588 593 q 352 540 408 593 q 297 380 297 488 q 482 178 297 178 m 1360 189 l 1760 189 l 1760 0 l 1040 0 l 1040 155 l 1431 571 l 1047 571 l 1047 760 l 1752 760 l 1752 606 l 1360 189 z "},"ǆ":{"ha":1806,"x_min":58,"x_max":1760,"o":"m 417 -12 q 234 27 315 -12 q 106 152 153 67 q 58 364 58 237 q 112 586 58 494 q 266 726 165 678 q 507 774 367 774 q 643 765 571 774 l 643 1122 l 883 1122 l 883 0 l 683 0 l 670 79 l 658 79 q 552 12 614 36 q 417 -12 491 -12 m 482 178 q 570 193 528 178 q 643 239 613 208 l 643 581 q 523 593 588 593 q 352 540 408 593 q 297 380 297 488 q 482 178 297 178 m 1360 189 l 1760 189 l 1760 0 l 1040 0 l 1040 155 l 1431 571 l 1047 571 l 1047 760 l 1752 760 l 1752 606 l 1360 189 m 1510 1122 l 1690 1122 l 1494 856 l 1306 856 l 1110 1122 l 1290 1122 l 1400 967 l 1510 1122 z "},"e":{"ha":878,"x_min":58,"x_max":829,"o":"m 829 314 l 297 314 q 327 223 301 256 q 411 173 353 189 q 566 157 468 157 q 781 181 665 157 l 781 11 q 529 -15 655 -15 q 173 81 288 -15 q 58 378 58 176 q 105 589 58 501 q 240 725 151 678 q 456 772 329 772 q 660 724 576 772 q 786 586 744 676 q 829 370 829 497 l 829 314 m 451 626 q 336 582 375 626 q 295 445 298 538 l 607 445 q 566 582 604 538 q 451 626 527 626 z "},"é":{"ha":878,"x_min":58,"x_max":829,"o":"m 829 314 l 297 314 q 327 223 301 256 q 411 173 353 189 q 566 157 468 157 q 781 181 665 157 l 781 11 q 529 -15 655 -15 q 173 81 288 -15 q 58 378 58 176 q 105 589 58 501 q 240 725 151 678 q 456 772 329 772 q 660 724 576 772 q 786 586 744 676 q 829 370 829 497 l 829 314 m 451 626 q 336 582 375 626 q 295 445 298 538 l 607 445 q 566 582 604 538 q 451 626 527 626 m 338 856 l 519 1122 l 784 1122 l 567 856 l 338 856 z "},"ĕ":{"ha":878,"x_min":58,"x_max":829,"o":"m 829 314 l 297 314 q 327 223 301 256 q 411 173 353 189 q 566 157 468 157 q 781 181 665 157 l 781 11 q 529 -15 655 -15 q 173 81 288 -15 q 58 378 58 176 q 105 589 58 501 q 240 725 151 678 q 456 772 329 772 q 660 724 576 772 q 786 586 744 676 q 829 370 829 497 l 829 314 m 451 626 q 336 582 375 626 q 295 445 298 538 l 607 445 q 566 582 604 538 q 451 626 527 626 m 453 860 q 301 891 364 860 q 204 976 238 921 q 166 1107 170 1031 l 310 1107 q 453 979 323 979 q 555 1012 522 979 q 595 1107 589 1045 l 740 1107 q 660 926 733 992 q 453 860 586 860 z "},"ě":{"ha":878,"x_min":58,"x_max":829,"o":"m 829 314 l 297 314 q 327 223 301 256 q 411 173 353 189 q 566 157 468 157 q 781 181 665 157 l 781 11 q 529 -15 655 -15 q 173 81 288 -15 q 58 378 58 176 q 105 589 58 501 q 240 725 151 678 q 456 772 329 772 q 660 724 576 772 q 786 586 744 676 q 829 370 829 497 l 829 314 m 451 626 q 336 582 375 626 q 295 445 298 538 l 607 445 q 566 582 604 538 q 451 626 527 626 m 563 1122 l 742 1122 l 547 856 l 358 856 l 163 1122 l 342 1122 l 453 967 l 563 1122 z "},"ḝ":{"ha":878,"x_min":58,"x_max":829,"o":"m 453 860 q 301 891 364 860 q 204 976 238 921 q 166 1107 170 1031 l 310 1107 q 453 979 323 979 q 555 1012 522 979 q 595 1107 589 1045 l 740 1107 q 660 926 733 992 q 453 860 586 860 m 829 314 l 297 314 q 327 223 301 256 q 411 173 353 189 q 566 157 468 157 q 781 181 665 157 l 781 11 q 529 -15 655 -15 l 515 -15 l 515 -59 q 606 -100 576 -68 q 637 -183 637 -132 q 589 -274 637 -242 q 453 -307 542 -307 q 378 -301 415 -307 q 314 -283 342 -294 l 314 -197 q 376 -214 341 -208 q 442 -220 411 -220 q 498 -209 479 -220 q 516 -172 516 -198 q 498 -135 516 -147 q 442 -124 479 -124 l 404 -124 l 404 -7 q 143 110 228 15 q 58 378 58 204 q 105 589 58 501 q 240 725 151 678 q 456 772 329 772 q 660 724 576 772 q 786 586 744 676 q 829 370 829 497 l 829 314 m 451 626 q 336 582 375 626 q 295 445 298 538 l 607 445 q 566 582 604 538 q 451 626 527 626 z "},"ê":{"ha":878,"x_min":58,"x_max":829,"o":"m 829 314 l 297 314 q 327 223 301 256 q 411 173 353 189 q 566 157 468 157 q 781 181 665 157 l 781 11 q 529 -15 655 -15 q 173 81 288 -15 q 58 378 58 176 q 105 589 58 501 q 240 725 151 678 q 456 772 329 772 q 660 724 576 772 q 786 586 744 676 q 829 370 829 497 l 829 314 m 451 626 q 336 582 375 626 q 295 445 298 538 l 607 445 q 566 582 604 538 q 451 626 527 626 m 741 856 l 562 856 l 453 1011 l 344 856 l 165 856 l 358 1122 l 547 1122 l 741 856 z "},"ế":{"ha":878,"x_min":58,"x_max":974,"o":"m 829 314 l 297 314 q 327 223 301 256 q 411 173 353 189 q 566 157 468 157 q 781 181 665 157 l 781 11 q 529 -15 655 -15 q 173 81 288 -15 q 58 378 58 176 q 105 589 58 501 q 240 725 151 678 q 456 772 329 772 q 660 724 576 772 q 786 586 744 676 q 829 370 829 497 l 829 314 m 451 626 q 336 582 375 626 q 295 445 298 538 l 607 445 q 566 582 604 538 q 451 626 527 626 m 767 1297 l 974 1297 l 792 1109 l 621 1109 l 767 1297 m 358 1122 l 547 1122 l 741 856 l 562 856 l 453 1011 l 344 856 l 165 856 l 358 1122 z "},"ệ":{"ha":878,"x_min":58,"x_max":829,"o":"m 829 314 l 297 314 q 327 223 301 256 q 411 173 353 189 q 566 157 468 157 q 781 181 665 157 l 781 11 q 529 -15 655 -15 q 173 81 288 -15 q 58 378 58 176 q 105 589 58 501 q 240 725 151 678 q 456 772 329 772 q 660 724 576 772 q 786 586 744 676 q 829 370 829 497 l 829 314 m 451 626 q 336 582 375 626 q 295 445 298 538 l 607 445 q 566 582 604 538 q 451 626 527 626 m 453 -308 q 358 -278 390 -308 q 326 -199 326 -249 q 358 -118 326 -147 q 453 -89 390 -89 q 548 -118 516 -89 q 580 -199 580 -147 q 548 -278 580 -249 q 453 -308 516 -308 m 741 856 l 562 856 l 453 1011 l 344 856 l 165 856 l 358 1122 l 547 1122 l 741 856 z "},"ề":{"ha":878,"x_min":58,"x_max":829,"o":"m 829 314 l 297 314 q 327 223 301 256 q 411 173 353 189 q 566 157 468 157 q 781 181 665 157 l 781 11 q 529 -15 655 -15 q 173 81 288 -15 q 58 378 58 176 q 105 589 58 501 q 240 725 151 678 q 456 772 329 772 q 660 724 576 772 q 786 586 744 676 q 829 370 829 497 l 829 314 m 451 626 q 336 582 375 626 q 295 445 298 538 l 607 445 q 566 582 604 538 q 451 626 527 626 m 817 1109 l 646 1109 l 465 1297 l 672 1297 l 817 1109 m 358 1122 l 547 1122 l 741 856 l 562 856 l 453 1011 l 344 856 l 165 856 l 358 1122 z "},"ể":{"ha":878,"x_min":58,"x_max":845,"o":"m 829 314 l 297 314 q 327 223 301 256 q 411 173 353 189 q 566 157 468 157 q 781 181 665 157 l 781 11 q 529 -15 655 -15 q 173 81 288 -15 q 58 378 58 176 q 105 589 58 501 q 240 725 151 678 q 456 772 329 772 q 660 724 576 772 q 786 586 744 676 q 829 370 829 497 l 829 314 m 451 626 q 336 582 375 626 q 295 445 298 538 l 607 445 q 566 582 604 538 q 451 626 527 626 m 677 1310 q 805 1289 765 1310 q 845 1226 845 1269 q 830 1189 845 1203 q 785 1161 815 1176 q 744 1137 758 1148 q 728 1109 731 1126 l 623 1109 q 644 1156 625 1140 q 697 1185 664 1172 q 724 1199 716 1193 q 733 1213 733 1205 q 716 1231 733 1225 q 660 1238 699 1238 q 530 1222 590 1238 l 530 1292 q 598 1305 557 1300 q 677 1310 640 1310 m 358 1122 l 547 1122 l 741 856 l 562 856 l 453 1011 l 344 856 l 165 856 l 358 1122 z "},"ễ":{"ha":878,"x_min":58,"x_max":829,"o":"m 829 314 l 297 314 q 327 223 301 256 q 411 173 353 189 q 566 157 468 157 q 781 181 665 157 l 781 11 q 529 -15 655 -15 q 173 81 288 -15 q 58 378 58 176 q 105 589 58 501 q 240 725 151 678 q 456 772 329 772 q 660 724 576 772 q 786 586 744 676 q 829 370 829 497 l 829 314 m 451 626 q 336 582 375 626 q 295 445 298 538 l 607 445 q 566 582 604 538 q 451 626 527 626 m 581 1125 q 514 1131 545 1125 q 441 1149 482 1137 q 375 1165 401 1160 q 319 1170 349 1170 q 241 1160 276 1170 q 171 1129 207 1151 l 171 1240 q 239 1274 201 1263 q 325 1285 276 1285 q 391 1278 360 1285 q 465 1260 422 1272 q 532 1243 506 1249 q 586 1238 558 1238 q 664 1248 630 1238 q 735 1280 699 1258 l 735 1169 q 668 1135 705 1146 q 581 1125 631 1125 m 770 858 l 576 858 l 453 994 l 329 858 l 135 858 l 351 1084 l 554 1084 l 770 858 z "},"ȅ":{"ha":878,"x_min":58,"x_max":829,"o":"m 829 314 l 297 314 q 327 223 301 256 q 411 173 353 189 q 566 157 468 157 q 781 181 665 157 l 781 11 q 529 -15 655 -15 q 173 81 288 -15 q 58 378 58 176 q 105 589 58 501 q 240 725 151 678 q 456 772 329 772 q 660 724 576 772 q 786 586 744 676 q 829 370 829 497 l 829 314 m 451 626 q 336 582 375 626 q 295 445 298 538 l 607 445 q 566 582 604 538 q 451 626 527 626 m 217 856 l 86 1122 l 272 1122 l 389 856 l 217 856 m 517 856 l 386 1122 l 571 1122 l 689 856 l 517 856 z "},"ë":{"ha":878,"x_min":58,"x_max":829,"o":"m 829 314 l 297 314 q 327 223 301 256 q 411 173 353 189 q 566 157 468 157 q 781 181 665 157 l 781 11 q 529 -15 655 -15 q 173 81 288 -15 q 58 378 58 176 q 105 589 58 501 q 240 725 151 678 q 456 772 329 772 q 660 724 576 772 q 786 586 744 676 q 829 370 829 497 l 829 314 m 451 626 q 336 582 375 626 q 295 445 298 538 l 607 445 q 566 582 604 538 q 451 626 527 626 m 264 872 q 168 901 200 872 q 137 985 137 931 q 168 1070 137 1040 q 264 1100 200 1100 q 359 1070 327 1100 q 390 985 390 1040 q 359 901 390 931 q 264 872 327 872 m 642 872 q 547 901 578 872 q 515 985 515 931 q 547 1070 515 1040 q 642 1100 578 1100 q 737 1070 706 1100 q 769 985 769 1040 q 737 901 769 931 q 642 872 706 872 z "},"ė":{"ha":878,"x_min":58,"x_max":829,"o":"m 829 314 l 297 314 q 327 223 301 256 q 411 173 353 189 q 566 157 468 157 q 781 181 665 157 l 781 11 q 529 -15 655 -15 q 173 81 288 -15 q 58 378 58 176 q 105 589 58 501 q 240 725 151 678 q 456 772 329 772 q 660 724 576 772 q 786 586 744 676 q 829 370 829 497 l 829 314 m 451 626 q 336 582 375 626 q 295 445 298 538 l 607 445 q 566 582 604 538 q 451 626 527 626 m 453 869 q 306 985 306 869 q 343 1072 306 1042 q 453 1102 379 1102 q 563 1072 526 1102 q 599 985 599 1042 q 453 869 599 869 z "},"ẹ":{"ha":878,"x_min":58,"x_max":829,"o":"m 829 314 l 297 314 q 327 223 301 256 q 411 173 353 189 q 566 157 468 157 q 781 181 665 157 l 781 11 q 529 -15 655 -15 q 173 81 288 -15 q 58 378 58 176 q 105 589 58 501 q 240 725 151 678 q 456 772 329 772 q 660 724 576 772 q 786 586 744 676 q 829 370 829 497 l 829 314 m 451 626 q 336 582 375 626 q 295 445 298 538 l 607 445 q 566 582 604 538 q 451 626 527 626 m 453 -308 q 358 -278 390 -308 q 326 -199 326 -249 q 358 -118 326 -147 q 453 -89 390 -89 q 548 -118 516 -89 q 580 -199 580 -147 q 548 -278 580 -249 q 453 -308 516 -308 z "},"è":{"ha":878,"x_min":58,"x_max":829,"o":"m 829 314 l 297 314 q 327 223 301 256 q 411 173 353 189 q 566 157 468 157 q 781 181 665 157 l 781 11 q 529 -15 655 -15 q 173 81 288 -15 q 58 378 58 176 q 105 589 58 501 q 240 725 151 678 q 456 772 329 772 q 660 724 576 772 q 786 586 744 676 q 829 370 829 497 l 829 314 m 451 626 q 336 582 375 626 q 295 445 298 538 l 607 445 q 566 582 604 538 q 451 626 527 626 m 338 856 l 122 1122 l 386 1122 l 567 856 l 338 856 z "},"ẻ":{"ha":878,"x_min":58,"x_max":829,"o":"m 829 314 l 297 314 q 327 223 301 256 q 411 173 353 189 q 566 157 468 157 q 781 181 665 157 l 781 11 q 529 -15 655 -15 q 173 81 288 -15 q 58 378 58 176 q 105 589 58 501 q 240 725 151 678 q 456 772 329 772 q 660 724 576 772 q 786 586 744 676 q 829 370 829 497 l 829 314 m 451 626 q 336 582 375 626 q 295 445 298 538 l 607 445 q 566 582 604 538 q 451 626 527 626 m 394 856 q 407 905 395 885 q 432 937 418 925 q 469 965 447 949 q 501 988 491 979 q 510 1010 510 997 q 493 1035 510 1028 q 434 1043 476 1043 q 308 1026 374 1043 l 308 1113 q 376 1126 336 1121 q 449 1131 416 1131 q 588 1104 544 1131 q 632 1024 632 1078 q 623 982 632 999 q 602 954 615 965 q 569 928 590 943 q 528 896 542 911 q 512 856 515 881 l 394 856 z "},"ȇ":{"ha":878,"x_min":58,"x_max":829,"o":"m 829 314 l 297 314 q 327 223 301 256 q 411 173 353 189 q 566 157 468 157 q 781 181 665 157 l 781 11 q 529 -15 655 -15 q 173 81 288 -15 q 58 378 58 176 q 105 589 58 501 q 240 725 151 678 q 456 772 329 772 q 660 724 576 772 q 786 586 744 676 q 829 370 829 497 l 829 314 m 451 626 q 336 582 375 626 q 295 445 298 538 l 607 445 q 566 582 604 538 q 451 626 527 626 m 166 876 q 245 1056 172 991 q 452 1122 319 1122 q 659 1056 585 1122 q 740 876 733 990 l 595 876 q 452 1003 583 1003 q 310 876 323 1003 l 166 876 z "},"ē":{"ha":878,"x_min":58,"x_max":829,"o":"m 829 314 l 297 314 q 327 223 301 256 q 411 173 353 189 q 566 157 468 157 q 781 181 665 157 l 781 11 q 529 -15 655 -15 q 173 81 288 -15 q 58 378 58 176 q 105 589 58 501 q 240 725 151 678 q 456 772 329 772 q 660 724 576 772 q 786 586 744 676 q 829 370 829 497 l 829 314 m 451 626 q 336 582 375 626 q 295 445 298 538 l 607 445 q 566 582 604 538 q 451 626 527 626 m 185 919 l 185 1053 l 721 1053 l 721 919 l 185 919 z "},"ḗ":{"ha":878,"x_min":58,"x_max":829,"o":"m 829 314 l 297 314 q 327 223 301 256 q 411 173 353 189 q 566 157 468 157 q 781 181 665 157 l 781 11 q 529 -15 655 -15 q 173 81 288 -15 q 58 378 58 176 q 105 589 58 501 q 240 725 151 678 q 456 772 329 772 q 660 724 576 772 q 786 586 744 676 q 829 370 829 497 l 829 314 m 451 626 q 336 582 375 626 q 295 445 298 538 l 607 445 q 566 582 604 538 q 451 626 527 626 m 185 919 l 185 1053 l 721 1053 l 721 919 l 185 919 m 341 1162 l 486 1372 l 742 1372 l 560 1162 l 341 1162 z "},"ḕ":{"ha":878,"x_min":58,"x_max":829,"o":"m 829 314 l 297 314 q 327 223 301 256 q 411 173 353 189 q 566 157 468 157 q 781 181 665 157 l 781 11 q 529 -15 655 -15 q 173 81 288 -15 q 58 378 58 176 q 105 589 58 501 q 240 725 151 678 q 456 772 329 772 q 660 724 576 772 q 786 586 744 676 q 829 370 829 497 l 829 314 m 451 626 q 336 582 375 626 q 295 445 298 538 l 607 445 q 566 582 604 538 q 451 626 527 626 m 185 919 l 185 1053 l 721 1053 l 721 919 l 185 919 m 343 1162 l 162 1372 l 417 1372 l 563 1162 l 343 1162 z "},"ę":{"ha":878,"x_min":58,"x_max":829,"o":"m 829 314 l 297 314 q 327 223 301 256 q 411 173 353 189 q 566 157 468 157 q 781 181 665 157 l 781 11 q 638 -58 680 -19 q 597 -144 597 -98 q 620 -196 597 -177 q 688 -215 644 -215 q 781 -194 735 -215 l 781 -284 q 653 -307 721 -307 q 510 -268 560 -307 q 460 -162 460 -229 q 544 -15 460 -71 l 529 -15 q 173 81 288 -15 q 58 378 58 176 q 105 589 58 501 q 240 725 151 678 q 456 772 329 772 q 660 724 576 772 q 786 586 744 676 q 829 370 829 497 l 829 314 m 451 621 q 336 577 375 621 q 295 440 298 533 l 607 440 q 566 577 604 533 q 451 621 527 621 z "},"ẽ":{"ha":878,"x_min":58,"x_max":829,"o":"m 829 314 l 297 314 q 327 223 301 256 q 411 173 353 189 q 566 157 468 157 q 781 181 665 157 l 781 11 q 529 -15 655 -15 q 173 81 288 -15 q 58 378 58 176 q 105 589 58 501 q 240 725 151 678 q 456 772 329 772 q 660 724 576 772 q 786 586 744 676 q 829 370 829 497 l 829 314 m 451 626 q 336 582 375 626 q 295 445 298 538 l 607 445 q 566 582 604 538 q 451 626 527 626 m 571 890 q 511 899 539 890 q 440 924 483 907 q 380 947 406 940 q 329 955 355 955 q 253 941 288 955 q 185 896 219 927 l 185 1038 q 251 1078 215 1065 q 335 1092 288 1092 q 395 1083 367 1092 q 465 1058 423 1075 q 525 1035 500 1042 q 576 1027 551 1027 q 652 1041 618 1027 q 721 1086 686 1055 l 721 944 q 655 903 691 917 q 571 890 618 890 z "},"ə":{"ha":878,"x_min":49,"x_max":820,"o":"m 349 774 q 705 679 590 774 q 820 382 820 583 q 774 170 820 259 q 639 35 728 82 q 423 -12 549 -12 q 218 36 302 -12 q 92 173 135 83 q 49 390 49 263 l 49 446 l 582 446 q 551 537 578 503 q 468 587 525 571 q 313 603 410 603 q 97 579 214 603 l 97 749 q 349 774 224 774 m 427 134 q 542 178 503 134 q 583 315 581 222 l 272 315 q 313 178 274 222 q 427 134 351 134 z "},"f":{"ha":638,"x_min":29,"x_max":669,"o":"m 581 950 q 449 914 491 950 q 407 800 407 877 l 407 760 l 633 760 l 633 571 l 407 571 l 407 0 l 167 0 l 167 571 l 29 571 l 29 760 l 167 760 l 167 792 q 211 976 167 899 q 340 1095 256 1053 q 543 1136 425 1136 q 669 1127 600 1136 l 669 944 q 581 950 623 950 z "},"g":{"ha":981,"x_min":58,"x_max":883,"o":"m 416 -319 q 113 -283 252 -319 l 113 -99 q 264 -130 190 -120 q 399 -140 338 -140 q 541 -121 488 -140 q 619 -63 594 -102 q 643 40 643 -24 l 643 83 l 632 83 q 397 -1 542 -1 q 226 41 303 -1 q 103 165 149 83 q 58 364 58 247 q 113 584 58 493 q 275 724 167 676 q 541 772 383 772 q 720 760 628 772 q 883 727 812 748 l 883 85 q 833 -145 883 -56 q 680 -277 783 -234 q 416 -319 577 -319 m 481 190 q 568 203 526 190 q 643 243 610 217 l 643 578 q 520 592 589 592 q 353 540 410 592 q 297 383 297 488 q 345 236 297 282 q 481 190 394 190 z "},"ǵ":{"ha":981,"x_min":58,"x_max":883,"o":"m 416 -319 q 113 -283 252 -319 l 113 -99 q 264 -130 190 -120 q 399 -140 338 -140 q 541 -121 488 -140 q 619 -63 594 -102 q 643 40 643 -24 l 643 83 l 632 83 q 397 -1 542 -1 q 226 41 303 -1 q 103 165 149 83 q 58 364 58 247 q 113 584 58 493 q 275 724 167 676 q 541 772 383 772 q 720 760 628 772 q 883 727 812 748 l 883 85 q 833 -145 883 -56 q 680 -277 783 -234 q 416 -319 577 -319 m 481 190 q 568 203 526 190 q 643 243 610 217 l 643 578 q 520 592 589 592 q 353 540 410 592 q 297 383 297 488 q 345 236 297 282 q 481 190 394 190 m 396 856 l 577 1122 l 842 1122 l 625 856 l 396 856 z "},"ğ":{"ha":981,"x_min":58,"x_max":883,"o":"m 416 -319 q 113 -283 252 -319 l 113 -99 q 264 -130 190 -120 q 399 -140 338 -140 q 541 -121 488 -140 q 619 -63 594 -102 q 643 40 643 -24 l 643 83 l 632 83 q 397 -1 542 -1 q 226 41 303 -1 q 103 165 149 83 q 58 364 58 247 q 113 584 58 493 q 275 724 167 676 q 541 772 383 772 q 720 760 628 772 q 883 727 812 748 l 883 85 q 833 -145 883 -56 q 680 -277 783 -234 q 416 -319 577 -319 m 481 190 q 568 203 526 190 q 643 243 610 217 l 643 578 q 520 592 589 592 q 353 540 410 592 q 297 383 297 488 q 345 236 297 282 q 481 190 394 190 m 511 860 q 359 891 422 860 q 262 976 296 921 q 224 1107 228 1031 l 368 1107 q 511 979 381 979 q 613 1012 579 979 q 653 1107 647 1045 l 797 1107 q 717 926 791 992 q 511 860 644 860 z "},"ǧ":{"ha":981,"x_min":58,"x_max":883,"o":"m 416 -319 q 113 -283 252 -319 l 113 -99 q 264 -130 190 -120 q 399 -140 338 -140 q 541 -121 488 -140 q 619 -63 594 -102 q 643 40 643 -24 l 643 83 l 632 83 q 397 -1 542 -1 q 226 41 303 -1 q 103 165 149 83 q 58 364 58 247 q 113 584 58 493 q 275 724 167 676 q 541 772 383 772 q 720 760 628 772 q 883 727 812 748 l 883 85 q 833 -145 883 -56 q 680 -277 783 -234 q 416 -319 577 -319 m 481 190 q 568 203 526 190 q 643 243 610 217 l 643 578 q 520 592 589 592 q 353 540 410 592 q 297 383 297 488 q 345 236 297 282 q 481 190 394 190 m 621 1122 l 800 1122 l 605 856 l 416 856 l 221 1122 l 400 1122 l 510 967 l 621 1122 z "},"ĝ":{"ha":981,"x_min":58,"x_max":883,"o":"m 416 -319 q 113 -283 252 -319 l 113 -99 q 264 -130 190 -120 q 399 -140 338 -140 q 541 -121 488 -140 q 619 -63 594 -102 q 643 40 643 -24 l 643 83 l 632 83 q 397 -1 542 -1 q 226 41 303 -1 q 103 165 149 83 q 58 364 58 247 q 113 584 58 493 q 275 724 167 676 q 541 772 383 772 q 720 760 628 772 q 883 727 812 748 l 883 85 q 833 -145 883 -56 q 680 -277 783 -234 q 416 -319 577 -319 m 481 190 q 568 203 526 190 q 643 243 610 217 l 643 578 q 520 592 589 592 q 353 540 410 592 q 297 383 297 488 q 345 236 297 282 q 481 190 394 190 m 799 856 l 619 856 l 510 1011 l 401 856 l 222 856 l 416 1122 l 605 1122 l 799 856 z "},"ģ":{"ha":981,"x_min":58,"x_max":883,"o":"m 416 -319 q 113 -283 252 -319 l 113 -99 q 264 -130 190 -120 q 399 -140 338 -140 q 541 -121 488 -140 q 619 -63 594 -102 q 643 40 643 -24 l 643 83 l 632 83 q 397 -1 542 -1 q 226 41 303 -1 q 103 165 149 83 q 58 364 58 247 q 113 584 58 493 q 275 724 167 676 q 541 772 383 772 q 720 760 628 772 q 883 727 812 748 l 883 85 q 833 -145 883 -56 q 680 -277 783 -234 q 416 -319 577 -319 m 481 190 q 568 203 526 190 q 643 243 610 217 l 643 578 q 520 592 589 592 q 353 540 410 592 q 297 383 297 488 q 345 236 297 282 q 481 190 394 190 m 540 1029 q 620 1005 595 1024 q 644 951 644 985 q 612 893 644 913 q 511 872 579 872 q 376 977 376 872 q 392 1057 376 1015 q 433 1130 407 1099 l 578 1130 q 540 1029 548 1074 z "},"ġ":{"ha":981,"x_min":58,"x_max":883,"o":"m 416 -319 q 113 -283 252 -319 l 113 -99 q 264 -130 190 -120 q 399 -140 338 -140 q 541 -121 488 -140 q 619 -63 594 -102 q 643 40 643 -24 l 643 83 l 632 83 q 397 -1 542 -1 q 226 41 303 -1 q 103 165 149 83 q 58 364 58 247 q 113 584 58 493 q 275 724 167 676 q 541 772 383 772 q 720 760 628 772 q 883 727 812 748 l 883 85 q 833 -145 883 -56 q 680 -277 783 -234 q 416 -319 577 -319 m 481 190 q 568 203 526 190 q 643 243 610 217 l 643 578 q 520 592 589 592 q 353 540 410 592 q 297 383 297 488 q 345 236 297 282 q 481 190 394 190 m 510 869 q 364 985 364 869 q 400 1072 364 1042 q 510 1102 437 1102 q 620 1072 584 1102 q 657 985 657 1042 q 510 869 657 869 z "},"ḡ":{"ha":981,"x_min":58,"x_max":883,"o":"m 416 -319 q 113 -283 252 -319 l 113 -99 q 264 -130 190 -120 q 399 -140 338 -140 q 541 -121 488 -140 q 619 -63 594 -102 q 643 40 643 -24 l 643 83 l 632 83 q 397 -1 542 -1 q 226 41 303 -1 q 103 165 149 83 q 58 364 58 247 q 113 584 58 493 q 275 724 167 676 q 541 772 383 772 q 720 760 628 772 q 883 727 812 748 l 883 85 q 833 -145 883 -56 q 680 -277 783 -234 q 416 -319 577 -319 m 481 190 q 568 203 526 190 q 643 243 610 217 l 643 578 q 520 592 589 592 q 353 540 410 592 q 297 383 297 488 q 345 236 297 282 q 481 190 394 190 m 242 919 l 242 1053 l 778 1053 l 778 919 l 242 919 z "},"h":{"ha":970,"x_min":97,"x_max":881,"o":"m 97 1122 l 338 1122 l 338 687 l 349 687 q 457 750 395 728 q 588 772 519 772 q 801 691 722 772 q 881 443 881 610 l 881 0 l 640 0 l 640 430 q 607 539 640 506 q 509 571 574 571 q 415 553 460 571 q 338 503 369 536 l 338 0 l 97 0 l 97 1122 z "},"ħ":{"ha":970,"x_min":4,"x_max":881,"o":"m 588 772 q 801 691 722 772 q 881 443 881 610 l 881 0 l 640 0 l 640 430 q 607 539 640 506 q 509 571 574 571 q 415 553 460 571 q 338 503 369 536 l 338 0 l 97 0 l 97 869 l 4 869 l 4 1008 l 97 1008 l 97 1122 l 338 1122 l 338 1008 l 632 1008 l 632 869 l 338 869 l 338 687 l 349 687 q 457 750 395 728 q 588 772 519 772 z "},"ḫ":{"ha":970,"x_min":97,"x_max":881,"o":"m 97 1122 l 338 1122 l 338 687 l 349 687 q 457 750 395 728 q 588 772 519 772 q 801 691 722 772 q 881 443 881 610 l 881 0 l 640 0 l 640 430 q 607 539 640 506 q 509 571 574 571 q 415 553 460 571 q 338 503 369 536 l 338 0 l 97 0 l 97 1122 m 490 -318 q 337 -291 401 -318 q 239 -216 273 -265 q 203 -101 205 -167 l 347 -101 q 386 -174 351 -149 q 490 -199 422 -199 q 594 -174 559 -199 q 632 -101 628 -149 l 776 -101 q 741 -216 774 -167 q 643 -291 707 -265 q 490 -318 580 -318 z "},"ĥ":{"ha":970,"x_min":97,"x_max":881,"o":"m 97 1122 l 338 1122 l 338 687 l 349 687 q 457 750 395 728 q 588 772 519 772 q 801 691 722 772 q 881 443 881 610 l 881 0 l 640 0 l 640 430 q 607 539 640 506 q 509 571 574 571 q 415 553 460 571 q 338 503 369 536 l 338 0 l 97 0 l 97 1122 m 812 1174 l 615 1174 l 490 1297 l 364 1174 l 167 1174 l 388 1385 l 591 1385 l 812 1174 z "},"ḥ":{"ha":970,"x_min":97,"x_max":881,"o":"m 97 1122 l 338 1122 l 338 687 l 349 687 q 457 750 395 728 q 588 772 519 772 q 801 691 722 772 q 881 443 881 610 l 881 0 l 640 0 l 640 430 q 607 539 640 506 q 509 571 574 571 q 415 553 460 571 q 338 503 369 536 l 338 0 l 97 0 l 97 1122 m 490 -308 q 394 -278 426 -308 q 363 -199 363 -249 q 394 -118 363 -147 q 490 -89 426 -89 q 585 -118 553 -89 q 617 -199 617 -147 q 585 -278 617 -249 q 490 -308 553 -308 z "},"i":{"ha":435,"x_min":71,"x_max":364,"o":"m 97 0 l 97 760 l 338 760 l 338 0 l 97 0 m 217 869 q 71 985 71 869 q 107 1072 71 1042 q 217 1102 144 1102 q 327 1072 291 1102 q 364 985 364 1042 q 217 869 364 869 z "},"ı":{"ha":435,"x_min":97,"x_max":338,"o":"m 97 0 l 97 760 l 338 760 l 338 0 l 97 0 z "},"í":{"ha":435,"x_min":97,"x_max":549,"o":"m 97 0 l 97 760 l 338 760 l 338 0 l 97 0 m 103 856 l 284 1122 l 549 1122 l 332 856 l 103 856 z "},"ĭ":{"ha":435,"x_min":-69,"x_max":504,"o":"m 97 0 l 97 760 l 338 760 l 338 0 l 97 0 m 218 860 q 66 891 128 860 q -31 976 3 921 q -69 1107 -65 1031 l 75 1107 q 218 979 88 979 q 320 1012 286 979 q 360 1107 353 1045 l 504 1107 q 424 926 498 992 q 218 860 351 860 z "},"î":{"ha":435,"x_min":-71,"x_max":506,"o":"m 97 0 l 97 760 l 338 760 l 338 0 l 97 0 m 506 856 l 326 856 l 217 1011 l 108 856 l -71 856 l 123 1122 l 312 1122 l 506 856 z "},"ȉ":{"ha":435,"x_min":-149,"x_max":453,"o":"m 97 0 l 97 760 l 338 760 l 338 0 l 97 0 m -19 856 l -149 1122 l 36 1122 l 153 856 l -19 856 m 281 856 l 151 1122 l 335 1122 l 453 856 l 281 856 z "},"ï":{"ha":435,"x_min":-99,"x_max":533,"o":"m 97 0 l 97 760 l 338 760 l 338 0 l 97 0 m 28 872 q -67 901 -35 872 q -99 985 -99 931 q -67 1070 -99 1040 q 28 1100 -35 1100 q 123 1070 92 1100 q 155 985 155 1040 q 123 901 155 931 q 28 872 92 872 m 406 872 q 311 901 343 872 q 280 985 280 931 q 311 1070 280 1040 q 406 1100 343 1100 q 502 1070 470 1100 q 533 985 533 1040 q 502 901 533 931 q 406 872 470 872 z "},"ḯ":{"ha":435,"x_min":-99,"x_max":533,"o":"m 97 0 l 97 760 l 338 760 l 338 0 l 97 0 m 28 872 q -67 901 -35 872 q -99 985 -99 931 q -67 1070 -99 1040 q 28 1100 -35 1100 q 123 1070 92 1100 q 155 985 155 1040 q 123 901 155 931 q 28 872 92 872 m 406 872 q 311 901 343 872 q 280 985 280 931 q 311 1070 280 1040 q 406 1100 343 1100 q 502 1070 470 1100 q 533 985 533 1040 q 502 901 533 931 q 406 872 470 872 m 106 1162 l 251 1372 l 507 1372 l 325 1162 l 106 1162 z "},"ị":{"ha":435,"x_min":71,"x_max":364,"o":"m 97 0 l 97 760 l 338 760 l 338 0 l 97 0 m 217 869 q 71 985 71 869 q 107 1072 71 1042 q 217 1102 144 1102 q 327 1072 291 1102 q 364 985 364 1042 q 217 869 364 869 m 217 -308 q 122 -278 154 -308 q 90 -199 90 -249 q 122 -118 90 -147 q 217 -89 154 -89 q 313 -118 281 -89 q 344 -199 344 -147 q 313 -278 344 -249 q 217 -308 281 -308 z "},"ì":{"ha":435,"x_min":-114,"x_max":338,"o":"m 97 0 l 97 760 l 338 760 l 338 0 l 97 0 m 103 856 l -114 1122 l 151 1122 l 332 856 l 103 856 z "},"ỉ":{"ha":435,"x_min":73,"x_max":397,"o":"m 97 0 l 97 760 l 338 760 l 338 0 l 97 0 m 158 856 q 171 905 160 885 q 197 937 183 925 q 234 965 211 949 q 265 988 256 979 q 275 1010 275 997 q 258 1035 275 1028 q 199 1043 241 1043 q 73 1026 139 1043 l 73 1113 q 141 1126 101 1121 q 214 1131 181 1131 q 352 1104 308 1131 q 397 1024 397 1078 q 388 982 397 999 q 367 954 379 965 q 333 928 354 943 q 293 896 307 911 q 276 856 279 881 l 158 856 z "},"ȋ":{"ha":435,"x_min":-69,"x_max":504,"o":"m 97 0 l 97 760 l 338 760 l 338 0 l 97 0 m -69 876 q 10 1056 -63 991 q 217 1122 83 1122 q 424 1056 350 1122 q 504 876 498 990 l 360 876 q 217 1003 347 1003 q 75 876 88 1003 l -69 876 z "},"ī":{"ha":435,"x_min":-51,"x_max":485,"o":"m 97 0 l 97 760 l 338 760 l 338 0 l 97 0 m -51 919 l -51 1053 l 485 1053 l 485 919 l -51 919 z "},"į":{"ha":435,"x_min":51,"x_max":372,"o":"m 217 869 q 71 985 71 869 q 107 1072 71 1042 q 217 1102 144 1102 q 327 1072 291 1102 q 364 985 364 1042 q 217 869 364 869 m 278 -215 q 372 -194 325 -215 l 372 -284 q 244 -307 311 -307 q 100 -268 150 -307 q 51 -162 51 -229 q 157 0 51 -60 l 97 0 l 97 760 l 338 760 l 338 0 q 222 -66 256 -32 q 188 -144 188 -101 q 211 -196 188 -177 q 278 -215 235 -215 z "},"ĩ":{"ha":435,"x_min":-51,"x_max":485,"o":"m 97 0 l 97 760 l 338 760 l 338 0 l 97 0 m 335 890 q 275 899 303 890 q 205 924 247 907 q 145 947 170 940 q 94 955 119 955 q 18 941 52 955 q -51 896 -16 927 l -51 1038 q 16 1078 -21 1065 q 99 1092 52 1092 q 159 1083 131 1092 q 230 1058 188 1075 q 290 1035 265 1042 q 341 1027 315 1027 q 417 1041 383 1027 q 485 1086 451 1055 l 485 944 q 419 903 456 917 q 335 890 383 890 z "},"j":{"ha":435,"x_min":-18,"x_max":359,"o":"m -18 -226 q 71 -70 44 -151 q 97 122 97 10 l 97 760 l 338 760 l 338 131 q 290 -111 338 -2 q 133 -327 242 -220 l -18 -226 m 213 872 q 66 988 66 872 q 102 1075 66 1045 q 213 1105 139 1105 q 323 1075 286 1105 q 359 988 359 1045 q 213 872 359 872 z "},"ȷ":{"ha":435,"x_min":-18,"x_max":338,"o":"m -18 -226 q 71 -70 44 -151 q 97 122 97 10 l 97 760 l 338 760 l 338 131 q 290 -111 338 -2 q 133 -327 242 -220 l -18 -226 z "},"ĵ":{"ha":435,"x_min":-76,"x_max":501,"o":"m -18 -226 q 71 -70 44 -151 q 97 122 97 10 l 97 760 l 338 760 l 338 131 q 290 -111 338 -2 q 133 -327 242 -220 l -18 -226 m 501 859 l 322 859 l 213 1014 l 103 859 l -76 859 l 118 1125 l 307 1125 l 501 859 z "},"k":{"ha":934,"x_min":97,"x_max":953,"o":"m 690 0 l 462 293 l 338 293 l 338 0 l 97 0 l 97 1122 l 338 1122 l 338 488 l 460 488 l 669 760 l 928 760 l 656 396 l 953 0 l 690 0 z "},"ķ":{"ha":934,"x_min":97,"x_max":953,"o":"m 690 0 l 462 293 l 338 293 l 338 0 l 97 0 l 97 1122 l 338 1122 l 338 488 l 460 488 l 669 760 l 928 760 l 656 396 l 953 0 l 690 0 m 483 -89 q 618 -193 618 -89 q 603 -273 618 -231 q 562 -347 588 -315 l 416 -347 q 455 -246 447 -290 q 375 -222 399 -241 q 350 -168 350 -202 q 383 -109 350 -130 q 483 -89 415 -89 z "},"ĸ":{"ha":934,"x_min":97,"x_max":953,"o":"m 690 0 l 462 293 l 338 293 l 338 0 l 97 0 l 97 760 l 338 760 l 338 488 l 460 488 l 669 760 l 928 760 l 656 396 l 953 0 l 690 0 z "},"l":{"ha":435,"x_min":97,"x_max":338,"o":"m 97 0 l 97 1122 l 338 1122 l 338 0 l 97 0 z "},"ĺ":{"ha":435,"x_min":97,"x_max":507,"o":"m 97 0 l 97 1122 l 338 1122 l 338 0 l 97 0 m 106 1174 l 251 1385 l 507 1385 l 325 1174 l 106 1174 z "},"ľ":{"ha":435,"x_min":97,"x_max":572,"o":"m 97 0 l 97 1122 l 338 1122 l 338 0 l 97 0 m 394 819 q 410 968 406 895 q 415 1122 415 1040 l 572 1122 q 558 961 572 1040 q 521 819 545 882 l 394 819 z "},"ļ":{"ha":435,"x_min":82,"x_max":350,"o":"m 97 0 l 97 1122 l 338 1122 l 338 0 l 97 0 m 215 -89 q 350 -193 350 -89 q 335 -273 350 -231 q 294 -347 319 -315 l 148 -347 q 187 -246 178 -290 q 107 -222 131 -241 q 82 -168 82 -202 q 115 -109 82 -130 q 215 -89 147 -89 z "},"ŀ":{"ha":653,"x_min":97,"x_max":686,"o":"m 97 0 l 97 1122 l 338 1122 l 338 0 l 97 0 m 540 435 q 393 551 393 435 q 540 667 393 667 q 686 551 686 667 q 540 435 686 435 z "},"ḷ":{"ha":435,"x_min":89,"x_max":343,"o":"m 97 0 l 97 1122 l 338 1122 l 338 0 l 97 0 m 216 -308 q 121 -278 153 -308 q 89 -199 89 -249 q 121 -118 89 -147 q 216 -89 153 -89 q 311 -118 279 -89 q 343 -199 343 -147 q 311 -278 343 -249 q 216 -308 279 -308 z "},"ǉ":{"ha":869,"x_min":97,"x_max":794,"o":"m 97 0 l 97 1122 l 338 1122 l 338 0 l 97 0 m 417 -226 q 506 -70 479 -151 q 532 122 532 10 l 532 760 l 772 760 l 772 131 q 725 -111 772 -2 q 567 -327 677 -220 l 417 -226 m 647 872 q 501 988 501 872 q 537 1075 501 1045 q 647 1105 574 1105 q 757 1075 721 1105 q 794 988 794 1045 q 647 872 794 872 z "},"ḻ":{"ha":435,"x_min":-44,"x_max":476,"o":"m 97 0 l 97 1122 l 338 1122 l 338 0 l 97 0 m -44 -264 l -44 -131 l 476 -131 l 476 -264 l -44 -264 z "},"ł":{"ha":474,"x_min":-17,"x_max":491,"o":"m 491 549 l 357 478 l 357 0 l 117 0 l 117 350 l 49 314 l -17 442 l 117 513 l 117 1122 l 357 1122 l 357 641 l 426 678 l 491 549 z "},"m":{"ha":1412,"x_min":97,"x_max":1322,"o":"m 1033 772 q 1245 691 1168 772 q 1322 443 1322 611 l 1322 0 l 1083 0 l 1083 430 q 1053 538 1083 506 q 967 571 1023 571 q 828 515 879 571 q 832 446 832 483 l 832 0 l 597 0 l 597 430 q 569 539 597 506 q 485 571 541 571 q 403 553 441 571 q 338 503 365 536 l 338 0 l 97 0 l 97 760 l 294 760 l 309 685 l 320 685 q 425 749 365 727 q 557 772 485 772 q 683 747 628 772 q 774 672 738 722 q 897 748 831 724 q 1033 772 964 772 z "},"ṃ":{"ha":1412,"x_min":97,"x_max":1322,"o":"m 1033 772 q 1245 691 1168 772 q 1322 443 1322 611 l 1322 0 l 1083 0 l 1083 430 q 1053 538 1083 506 q 967 571 1023 571 q 828 515 879 571 q 832 446 832 483 l 832 0 l 597 0 l 597 430 q 569 539 597 506 q 485 571 541 571 q 403 553 441 571 q 338 503 365 536 l 338 0 l 97 0 l 97 760 l 294 760 l 309 685 l 320 685 q 425 749 365 727 q 557 772 485 772 q 683 747 628 772 q 774 672 738 722 q 897 748 831 724 q 1033 772 964 772 m 715 -308 q 620 -278 652 -308 q 588 -199 588 -249 q 620 -118 588 -147 q 715 -89 652 -89 q 810 -118 778 -89 q 842 -199 842 -147 q 810 -278 842 -249 q 715 -308 778 -308 z "},"n":{"ha":970,"x_min":97,"x_max":881,"o":"m 97 760 l 294 760 l 309 685 l 320 685 q 436 749 369 726 q 576 772 502 772 q 799 691 718 772 q 881 441 881 610 l 881 0 l 640 0 l 640 429 q 608 539 640 506 q 509 571 575 571 q 415 553 461 571 q 338 503 369 536 l 338 0 l 97 0 l 97 760 z "},"ń":{"ha":970,"x_min":97,"x_max":881,"o":"m 97 760 l 294 760 l 309 685 l 320 685 q 436 749 369 726 q 576 772 502 772 q 799 691 718 772 q 881 441 881 610 l 881 0 l 640 0 l 640 429 q 608 539 640 506 q 509 571 575 571 q 415 553 461 571 q 338 503 369 536 l 338 0 l 97 0 l 97 760 m 375 856 l 556 1122 l 821 1122 l 604 856 l 375 856 z "},"ŉ":{"ha":970,"x_min":9,"x_max":881,"o":"m 97 760 l 294 760 l 309 685 l 320 685 q 436 749 369 726 q 576 772 502 772 q 799 691 718 772 q 881 441 881 610 l 881 0 l 640 0 l 640 429 q 608 539 640 506 q 509 571 575 571 q 415 553 461 571 q 338 503 369 536 l 338 0 l 97 0 l 97 760 m 142 1130 q 276 1025 276 1130 q 261 945 276 988 q 221 872 247 903 l 75 872 q 114 973 106 931 q 34 997 58 978 q 9 1051 9 1017 q 42 1109 9 1089 q 142 1130 74 1130 z "},"ň":{"ha":970,"x_min":97,"x_max":881,"o":"m 97 760 l 294 760 l 309 685 l 320 685 q 436 749 369 726 q 576 772 502 772 q 799 691 718 772 q 881 441 881 610 l 881 0 l 640 0 l 640 429 q 608 539 640 506 q 509 571 575 571 q 415 553 461 571 q 338 503 369 536 l 338 0 l 97 0 l 97 760 m 600 1122 l 779 1122 l 584 856 l 395 856 l 200 1122 l 379 1122 l 490 967 l 600 1122 z "},"ņ":{"ha":970,"x_min":97,"x_max":881,"o":"m 97 760 l 294 760 l 309 685 l 320 685 q 436 749 369 726 q 576 772 502 772 q 799 691 718 772 q 881 441 881 610 l 881 0 l 640 0 l 640 429 q 608 539 640 506 q 509 571 575 571 q 415 553 461 571 q 338 503 369 536 l 338 0 l 97 0 l 97 760 m 489 -89 q 624 -193 624 -89 q 608 -273 624 -231 q 567 -347 593 -315 l 422 -347 q 460 -246 452 -290 q 380 -222 405 -241 q 356 -168 356 -202 q 388 -109 356 -130 q 489 -89 421 -89 z "},"ṅ":{"ha":970,"x_min":97,"x_max":881,"o":"m 97 760 l 294 760 l 309 685 l 320 685 q 436 749 369 726 q 576 772 502 772 q 799 691 718 772 q 881 441 881 610 l 881 0 l 640 0 l 640 429 q 608 539 640 506 q 509 571 575 571 q 415 553 461 571 q 338 503 369 536 l 338 0 l 97 0 l 97 760 m 490 869 q 343 985 343 869 q 380 1072 343 1042 q 490 1102 416 1102 q 600 1072 563 1102 q 636 985 636 1042 q 490 869 636 869 z "},"ṇ":{"ha":970,"x_min":97,"x_max":881,"o":"m 97 760 l 294 760 l 309 685 l 320 685 q 436 749 369 726 q 576 772 502 772 q 799 691 718 772 q 881 441 881 610 l 881 0 l 640 0 l 640 429 q 608 539 640 506 q 509 571 575 571 q 415 553 461 571 q 338 503 369 536 l 338 0 l 97 0 l 97 760 m 490 -308 q 394 -278 426 -308 q 363 -199 363 -249 q 394 -118 363 -147 q 490 -89 426 -89 q 585 -118 553 -89 q 617 -199 617 -147 q 585 -278 617 -249 q 490 -308 553 -308 z "},"ŋ":{"ha":970,"x_min":97,"x_max":881,"o":"m 526 -226 q 614 -70 588 -151 q 640 122 640 10 l 640 430 q 607 539 640 506 q 509 571 574 571 q 415 553 460 571 q 338 503 369 536 l 338 0 l 97 0 l 97 760 l 294 760 l 309 685 l 320 685 q 435 749 369 727 q 576 772 501 772 q 799 691 718 772 q 881 443 881 611 l 881 122 q 832 -115 878 -8 q 676 -327 785 -221 l 526 -226 z "},"ǌ":{"ha":1405,"x_min":97,"x_max":1329,"o":"m 97 760 l 294 760 l 309 685 l 320 685 q 436 749 369 726 q 576 772 502 772 q 799 691 718 772 q 881 441 881 610 l 881 0 l 640 0 l 640 429 q 608 539 640 506 q 509 571 575 571 q 415 553 461 571 q 338 503 369 536 l 338 0 l 97 0 l 97 760 m 952 -226 q 1041 -70 1015 -151 q 1067 122 1067 10 l 1067 760 l 1308 760 l 1308 131 q 1260 -111 1308 -2 q 1103 -327 1213 -220 l 952 -226 m 1183 872 q 1036 988 1036 872 q 1073 1075 1036 1045 q 1183 1105 1109 1105 q 1293 1075 1256 1105 q 1329 988 1329 1045 q 1183 872 1329 872 z "},"ṉ":{"ha":970,"x_min":97,"x_max":881,"o":"m 97 760 l 294 760 l 309 685 l 320 685 q 436 749 369 726 q 576 772 502 772 q 799 691 718 772 q 881 441 881 610 l 881 0 l 640 0 l 640 429 q 608 539 640 506 q 509 571 575 571 q 415 553 461 571 q 338 503 369 536 l 338 0 l 97 0 l 97 760 m 229 -264 l 229 -131 l 750 -131 l 750 -264 l 229 -264 z "},"ñ":{"ha":970,"x_min":97,"x_max":881,"o":"m 97 760 l 294 760 l 309 685 l 320 685 q 436 749 369 726 q 576 772 502 772 q 799 691 718 772 q 881 441 881 610 l 881 0 l 640 0 l 640 429 q 608 539 640 506 q 509 571 575 571 q 415 553 461 571 q 338 503 369 536 l 338 0 l 97 0 l 97 760 m 608 890 q 548 899 576 890 q 477 924 519 907 q 417 947 442 940 q 366 955 392 955 q 290 941 324 955 q 222 896 256 927 l 222 1038 q 288 1078 251 1065 q 372 1092 324 1092 q 432 1083 403 1092 q 502 1058 460 1075 q 562 1035 537 1042 q 613 1027 588 1027 q 689 1041 655 1027 q 758 1086 723 1055 l 758 944 q 691 903 728 917 q 608 890 655 890 z "},"o":{"ha":963,"x_min":58,"x_max":904,"o":"m 481 -15 q 258 31 353 -15 q 110 166 163 77 q 58 380 58 255 q 109 593 58 506 q 254 726 159 681 q 481 772 349 772 q 709 727 615 772 q 854 594 804 682 q 904 380 904 506 q 852 167 904 256 q 704 32 799 78 q 481 -15 609 -15 m 481 169 q 666 379 666 169 q 619 538 666 488 q 481 588 572 588 q 344 538 391 588 q 297 381 297 488 q 481 169 297 169 z "},"ó":{"ha":963,"x_min":58,"x_max":904,"o":"m 481 -15 q 258 31 353 -15 q 110 166 163 77 q 58 380 58 255 q 109 593 58 506 q 254 726 159 681 q 481 772 349 772 q 709 727 615 772 q 854 594 804 682 q 904 380 904 506 q 852 167 904 256 q 704 32 799 78 q 481 -15 609 -15 m 481 169 q 666 379 666 169 q 619 538 666 488 q 481 588 572 588 q 344 538 391 588 q 297 381 297 488 q 481 169 297 169 m 367 856 l 548 1122 l 813 1122 l 596 856 l 367 856 z "},"ŏ":{"ha":963,"x_min":58,"x_max":904,"o":"m 481 -15 q 258 31 353 -15 q 110 166 163 77 q 58 380 58 255 q 109 593 58 506 q 254 726 159 681 q 481 772 349 772 q 709 727 615 772 q 854 594 804 682 q 904 380 904 506 q 852 167 904 256 q 704 32 799 78 q 481 -15 609 -15 m 481 169 q 666 379 666 169 q 619 538 666 488 q 481 588 572 588 q 344 538 391 588 q 297 381 297 488 q 481 169 297 169 m 482 860 q 330 891 392 860 q 233 976 267 921 q 194 1107 199 1031 l 339 1107 q 482 979 351 979 q 584 1012 550 979 q 624 1107 617 1045 l 768 1107 q 688 926 762 992 q 482 860 615 860 z "},"ô":{"ha":963,"x_min":58,"x_max":904,"o":"m 481 -15 q 258 31 353 -15 q 110 166 163 77 q 58 380 58 255 q 109 593 58 506 q 254 726 159 681 q 481 772 349 772 q 709 727 615 772 q 854 594 804 682 q 904 380 904 506 q 852 167 904 256 q 704 32 799 78 q 481 -15 609 -15 m 481 169 q 666 379 666 169 q 619 538 666 488 q 481 588 572 588 q 344 538 391 588 q 297 381 297 488 q 481 169 297 169 m 769 856 l 590 856 l 481 1011 l 372 856 l 193 856 l 387 1122 l 576 1122 l 769 856 z "},"ố":{"ha":963,"x_min":58,"x_max":1002,"o":"m 481 -15 q 258 31 353 -15 q 110 166 163 77 q 58 380 58 255 q 109 593 58 506 q 254 726 159 681 q 481 772 349 772 q 709 727 615 772 q 854 594 804 682 q 904 380 904 506 q 852 167 904 256 q 704 32 799 78 q 481 -15 609 -15 m 481 169 q 666 379 666 169 q 619 538 666 488 q 481 588 572 588 q 344 538 391 588 q 297 381 297 488 q 481 169 297 169 m 795 1297 l 1002 1297 l 820 1109 l 649 1109 l 795 1297 m 387 1122 l 576 1122 l 769 856 l 590 856 l 481 1011 l 372 856 l 193 856 l 387 1122 z "},"ộ":{"ha":963,"x_min":58,"x_max":904,"o":"m 481 -15 q 258 31 353 -15 q 110 166 163 77 q 58 380 58 255 q 109 593 58 506 q 254 726 159 681 q 481 772 349 772 q 709 727 615 772 q 854 594 804 682 q 904 380 904 506 q 852 167 904 256 q 704 32 799 78 q 481 -15 609 -15 m 481 169 q 666 379 666 169 q 619 538 666 488 q 481 588 572 588 q 344 538 391 588 q 297 381 297 488 q 481 169 297 169 m 481 -308 q 386 -278 418 -308 q 354 -199 354 -249 q 386 -118 354 -147 q 481 -89 418 -89 q 576 -118 544 -89 q 608 -199 608 -147 q 576 -278 608 -249 q 481 -308 544 -308 m 769 856 l 590 856 l 481 1011 l 372 856 l 193 856 l 387 1122 l 576 1122 l 769 856 z "},"ồ":{"ha":963,"x_min":58,"x_max":904,"o":"m 481 -15 q 258 31 353 -15 q 110 166 163 77 q 58 380 58 255 q 109 593 58 506 q 254 726 159 681 q 481 772 349 772 q 709 727 615 772 q 854 594 804 682 q 904 380 904 506 q 852 167 904 256 q 704 32 799 78 q 481 -15 609 -15 m 481 169 q 666 379 666 169 q 619 538 666 488 q 481 588 572 588 q 344 538 391 588 q 297 381 297 488 q 481 169 297 169 m 845 1109 l 674 1109 l 493 1297 l 700 1297 l 845 1109 m 387 1122 l 576 1122 l 769 856 l 590 856 l 481 1011 l 372 856 l 193 856 l 387 1122 z "},"ổ":{"ha":963,"x_min":58,"x_max":904,"o":"m 481 -15 q 258 31 353 -15 q 110 166 163 77 q 58 380 58 255 q 109 593 58 506 q 254 726 159 681 q 481 772 349 772 q 709 727 615 772 q 854 594 804 682 q 904 380 904 506 q 852 167 904 256 q 704 32 799 78 q 481 -15 609 -15 m 481 169 q 666 379 666 169 q 619 538 666 488 q 481 588 572 588 q 344 538 391 588 q 297 381 297 488 q 481 169 297 169 m 706 1310 q 833 1289 793 1310 q 874 1226 874 1269 q 858 1189 874 1203 q 813 1161 843 1176 q 773 1137 786 1148 q 756 1109 759 1126 l 651 1109 q 673 1156 653 1140 q 726 1185 692 1172 q 753 1199 744 1193 q 761 1213 761 1205 q 744 1231 761 1225 q 689 1238 727 1238 q 558 1222 619 1238 l 558 1292 q 627 1305 585 1300 q 706 1310 668 1310 m 387 1122 l 576 1122 l 769 856 l 590 856 l 481 1011 l 372 856 l 193 856 l 387 1122 z "},"ỗ":{"ha":963,"x_min":58,"x_max":904,"o":"m 481 -15 q 258 31 353 -15 q 110 166 163 77 q 58 380 58 255 q 109 593 58 506 q 254 726 159 681 q 481 772 349 772 q 709 727 615 772 q 854 594 804 682 q 904 380 904 506 q 852 167 904 256 q 704 32 799 78 q 481 -15 609 -15 m 481 169 q 666 379 666 169 q 619 538 666 488 q 481 588 572 588 q 344 538 391 588 q 297 381 297 488 q 481 169 297 169 m 609 1125 q 542 1131 574 1125 q 469 1149 510 1137 q 403 1165 430 1160 q 348 1170 377 1170 q 270 1160 304 1170 q 199 1129 235 1151 l 199 1240 q 267 1274 230 1263 q 353 1285 304 1285 q 419 1278 388 1285 q 493 1260 450 1272 q 560 1243 535 1249 q 615 1238 586 1238 q 693 1248 658 1238 q 763 1280 727 1258 l 763 1169 q 696 1135 733 1146 q 609 1125 659 1125 m 799 858 l 605 858 l 481 994 l 358 858 l 164 858 l 380 1084 l 583 1084 l 799 858 z "},"ȍ":{"ha":963,"x_min":58,"x_max":904,"o":"m 481 -15 q 258 31 353 -15 q 110 166 163 77 q 58 380 58 255 q 109 593 58 506 q 254 726 159 681 q 481 772 349 772 q 709 727 615 772 q 854 594 804 682 q 904 380 904 506 q 852 167 904 256 q 704 32 799 78 q 481 -15 609 -15 m 481 169 q 666 379 666 169 q 619 538 666 488 q 481 588 572 588 q 344 538 391 588 q 297 381 297 488 q 481 169 297 169 m 245 856 l 115 1122 l 300 1122 l 417 856 l 245 856 m 545 856 l 415 1122 l 599 1122 l 717 856 l 545 856 z "},"ö":{"ha":963,"x_min":58,"x_max":904,"o":"m 481 -15 q 258 31 353 -15 q 110 166 163 77 q 58 380 58 255 q 109 593 58 506 q 254 726 159 681 q 481 772 349 772 q 709 727 615 772 q 854 594 804 682 q 904 380 904 506 q 852 167 904 256 q 704 32 799 78 q 481 -15 609 -15 m 481 169 q 666 379 666 169 q 619 538 666 488 q 481 588 572 588 q 344 538 391 588 q 297 381 297 488 q 481 169 297 169 m 292 872 q 197 901 228 872 q 165 985 165 931 q 197 1070 165 1040 q 292 1100 228 1100 q 387 1070 356 1100 q 419 985 419 1040 q 387 901 419 931 q 292 872 356 872 m 670 872 q 575 901 607 872 q 544 985 544 931 q 575 1070 544 1040 q 670 1100 607 1100 q 766 1070 734 1100 q 797 985 797 1040 q 766 901 797 931 q 670 872 734 872 z "},"ȫ":{"ha":963,"x_min":58,"x_max":904,"o":"m 481 -15 q 258 31 353 -15 q 110 166 163 77 q 58 380 58 255 q 109 593 58 506 q 254 726 159 681 q 481 772 349 772 q 709 727 615 772 q 854 594 804 682 q 904 380 904 506 q 852 167 904 256 q 704 32 799 78 q 481 -15 609 -15 m 481 169 q 666 379 666 169 q 619 538 666 488 q 481 588 572 588 q 344 538 391 588 q 297 381 297 488 q 481 169 297 169 m 292 872 q 197 901 228 872 q 165 985 165 931 q 197 1070 165 1040 q 292 1100 228 1100 q 387 1070 356 1100 q 419 985 419 1040 q 387 901 419 931 q 292 872 356 872 m 670 872 q 575 901 607 872 q 544 985 544 931 q 575 1070 544 1040 q 670 1100 607 1100 q 766 1070 734 1100 q 797 985 797 1040 q 766 901 797 931 q 670 872 734 872 m 213 1196 l 213 1330 l 749 1330 l 749 1196 l 213 1196 z "},"ȱ":{"ha":963,"x_min":58,"x_max":904,"o":"m 481 -15 q 258 31 353 -15 q 110 166 163 77 q 58 380 58 255 q 109 593 58 506 q 254 726 159 681 q 481 772 349 772 q 709 727 615 772 q 854 594 804 682 q 904 380 904 506 q 852 167 904 256 q 704 32 799 78 q 481 -15 609 -15 m 481 169 q 666 379 666 169 q 619 538 666 488 q 481 588 572 588 q 344 538 391 588 q 297 381 297 488 q 481 169 297 169 m 481 869 q 335 985 335 869 q 371 1072 335 1042 q 481 1102 408 1102 q 591 1072 555 1102 q 628 985 628 1042 q 481 869 628 869 m 213 1179 l 213 1313 l 749 1313 l 749 1179 l 213 1179 z "},"ọ":{"ha":963,"x_min":58,"x_max":904,"o":"m 481 -15 q 258 31 353 -15 q 110 166 163 77 q 58 380 58 255 q 109 593 58 506 q 254 726 159 681 q 481 772 349 772 q 709 727 615 772 q 854 594 804 682 q 904 380 904 506 q 852 167 904 256 q 704 32 799 78 q 481 -15 609 -15 m 481 169 q 666 379 666 169 q 619 538 666 488 q 481 588 572 588 q 344 538 391 588 q 297 381 297 488 q 481 169 297 169 m 481 -308 q 386 -278 418 -308 q 354 -199 354 -249 q 386 -118 354 -147 q 481 -89 418 -89 q 576 -118 544 -89 q 608 -199 608 -147 q 576 -278 608 -249 q 481 -308 544 -308 z "},"ò":{"ha":963,"x_min":58,"x_max":904,"o":"m 481 -15 q 258 31 353 -15 q 110 166 163 77 q 58 380 58 255 q 109 593 58 506 q 254 726 159 681 q 481 772 349 772 q 709 727 615 772 q 854 594 804 682 q 904 380 904 506 q 852 167 904 256 q 704 32 799 78 q 481 -15 609 -15 m 481 169 q 666 379 666 169 q 619 538 666 488 q 481 588 572 588 q 344 538 391 588 q 297 381 297 488 q 481 169 297 169 m 367 856 l 150 1122 l 415 1122 l 596 856 l 367 856 z "},"ỏ":{"ha":963,"x_min":58,"x_max":904,"o":"m 481 -15 q 258 31 353 -15 q 110 166 163 77 q 58 380 58 255 q 109 593 58 506 q 254 726 159 681 q 481 772 349 772 q 709 727 615 772 q 854 594 804 682 q 904 380 904 506 q 852 167 904 256 q 704 32 799 78 q 481 -15 609 -15 m 481 169 q 666 379 666 169 q 619 538 666 488 q 481 588 572 588 q 344 538 391 588 q 297 381 297 488 q 481 169 297 169 m 422 856 q 435 905 424 885 q 461 937 447 925 q 498 965 475 949 q 529 988 519 979 q 539 1010 539 997 q 522 1035 539 1028 q 463 1043 505 1043 q 337 1026 403 1043 l 337 1113 q 405 1126 365 1121 q 478 1131 444 1131 q 616 1104 572 1131 q 660 1024 660 1078 q 652 982 660 999 q 631 954 643 965 q 597 928 618 943 q 557 896 571 911 q 540 856 543 881 l 422 856 z "},"ơ":{"ha":963,"x_min":58,"x_max":941,"o":"m 799 665 q 904 380 904 564 q 852 167 904 256 q 704 32 799 78 q 481 -15 609 -15 q 258 31 353 -15 q 110 166 163 77 q 58 380 58 255 q 109 593 58 506 q 257 726 160 681 q 491 772 354 772 q 593 767 526 772 q 650 763 628 763 q 756 789 721 763 q 792 872 792 814 q 781 969 792 914 l 928 969 q 941 865 941 917 q 904 735 941 786 q 799 665 867 684 m 481 169 q 666 379 666 169 q 619 538 666 488 q 481 588 572 588 q 344 538 391 588 q 297 381 297 488 q 481 169 297 169 z "},"ớ":{"ha":963,"x_min":58,"x_max":941,"o":"m 799 665 q 904 380 904 564 q 852 167 904 256 q 704 32 799 78 q 481 -15 609 -15 q 258 31 353 -15 q 110 166 163 77 q 58 380 58 255 q 109 593 58 506 q 257 726 160 681 q 491 772 354 772 q 593 767 526 772 q 650 763 628 763 q 756 789 721 763 q 792 872 792 814 q 781 969 792 914 l 928 969 q 941 865 941 917 q 904 735 941 786 q 799 665 867 684 m 481 169 q 666 379 666 169 q 619 538 666 488 q 481 588 572 588 q 344 538 391 588 q 297 381 297 488 q 481 169 297 169 m 365 856 l 547 1122 l 811 1122 l 594 856 l 365 856 z "},"ợ":{"ha":963,"x_min":58,"x_max":941,"o":"m 799 665 q 904 380 904 564 q 852 167 904 256 q 704 32 799 78 q 481 -15 609 -15 q 258 31 353 -15 q 110 166 163 77 q 58 380 58 255 q 109 593 58 506 q 257 726 160 681 q 491 772 354 772 q 593 767 526 772 q 650 763 628 763 q 756 789 721 763 q 792 872 792 814 q 781 969 792 914 l 928 969 q 941 865 941 917 q 904 735 941 786 q 799 665 867 684 m 481 169 q 666 379 666 169 q 619 538 666 488 q 481 588 572 588 q 344 538 391 588 q 297 381 297 488 q 481 169 297 169 m 480 -308 q 385 -278 417 -308 q 353 -199 353 -249 q 385 -118 353 -147 q 480 -89 417 -89 q 575 -118 543 -89 q 607 -199 607 -147 q 575 -278 607 -249 q 480 -308 543 -308 z "},"ờ":{"ha":963,"x_min":58,"x_max":941,"o":"m 799 665 q 904 380 904 564 q 852 167 904 256 q 704 32 799 78 q 481 -15 609 -15 q 258 31 353 -15 q 110 166 163 77 q 58 380 58 255 q 109 593 58 506 q 257 726 160 681 q 491 772 354 772 q 593 767 526 772 q 650 763 628 763 q 756 789 721 763 q 792 872 792 814 q 781 969 792 914 l 928 969 q 941 865 941 917 q 904 735 941 786 q 799 665 867 684 m 481 169 q 666 379 666 169 q 619 538 666 488 q 481 588 572 588 q 344 538 391 588 q 297 381 297 488 q 481 169 297 169 m 365 856 l 149 1122 l 413 1122 l 594 856 l 365 856 z "},"ở":{"ha":963,"x_min":58,"x_max":941,"o":"m 799 665 q 904 380 904 564 q 852 167 904 256 q 704 32 799 78 q 481 -15 609 -15 q 258 31 353 -15 q 110 166 163 77 q 58 380 58 255 q 109 593 58 506 q 257 726 160 681 q 491 772 354 772 q 593 767 526 772 q 650 763 628 763 q 756 789 721 763 q 792 872 792 814 q 781 969 792 914 l 928 969 q 941 865 941 917 q 904 735 941 786 q 799 665 867 684 m 481 169 q 666 379 666 169 q 619 538 666 488 q 481 588 572 588 q 344 538 391 588 q 297 381 297 488 q 481 169 297 169 m 421 856 q 434 905 422 885 q 459 937 445 925 q 497 965 474 949 q 528 988 518 979 q 538 1010 538 997 q 520 1035 538 1028 q 461 1043 503 1043 q 335 1026 401 1043 l 335 1113 q 403 1126 363 1121 q 476 1131 443 1131 q 615 1104 571 1131 q 659 1024 659 1078 q 650 982 659 999 q 629 954 642 965 q 596 928 617 943 q 556 896 569 911 q 539 856 542 881 l 421 856 z "},"ỡ":{"ha":963,"x_min":58,"x_max":941,"o":"m 594 890 q 536 899 563 890 q 469 924 508 908 q 408 948 431 940 q 361 955 385 955 q 289 941 321 955 q 222 896 256 928 l 222 1038 q 286 1078 251 1065 q 366 1092 321 1092 q 424 1083 397 1092 q 491 1058 451 1074 q 551 1034 528 1042 q 599 1027 574 1027 q 672 1041 640 1027 q 739 1086 705 1055 l 739 944 q 674 903 709 917 q 594 890 640 890 m 799 665 q 904 380 904 564 q 852 167 904 256 q 704 32 799 78 q 481 -15 609 -15 q 258 31 353 -15 q 110 166 163 77 q 58 380 58 255 q 109 593 58 506 q 257 726 160 681 q 491 772 354 772 q 593 767 526 772 q 650 763 628 763 q 756 789 721 763 q 792 872 792 814 q 781 969 792 914 l 928 969 q 941 865 941 917 q 904 735 941 786 q 799 665 867 684 m 481 169 q 666 379 666 169 q 619 538 666 488 q 481 588 572 588 q 344 538 391 588 q 297 381 297 488 q 481 169 297 169 z "},"ő":{"ha":963,"x_min":58,"x_max":904,"o":"m 481 -15 q 258 31 353 -15 q 110 166 163 77 q 58 380 58 255 q 109 593 58 506 q 254 726 159 681 q 481 772 349 772 q 709 727 615 772 q 854 594 804 682 q 904 380 904 506 q 852 167 904 256 q 704 32 799 78 q 481 -15 609 -15 m 481 169 q 666 379 666 169 q 619 538 666 488 q 481 588 572 588 q 344 538 391 588 q 297 381 297 488 q 481 169 297 169 m 247 856 l 364 1122 l 548 1122 l 417 856 l 247 856 m 545 856 l 663 1122 l 847 1122 l 716 856 l 545 856 z "},"ȏ":{"ha":963,"x_min":58,"x_max":904,"o":"m 481 -15 q 258 31 353 -15 q 110 166 163 77 q 58 380 58 255 q 109 593 58 506 q 254 726 159 681 q 481 772 349 772 q 709 727 615 772 q 854 594 804 682 q 904 380 904 506 q 852 167 904 256 q 704 32 799 78 q 481 -15 609 -15 m 481 169 q 666 379 666 169 q 619 538 666 488 q 481 588 572 588 q 344 538 391 588 q 297 381 297 488 q 481 169 297 169 m 194 876 q 274 1056 201 991 q 481 1122 347 1122 q 688 1056 614 1122 q 768 876 762 990 l 624 876 q 481 1003 611 1003 q 339 876 351 1003 l 194 876 z "},"ō":{"ha":963,"x_min":58,"x_max":904,"o":"m 481 -15 q 258 31 353 -15 q 110 166 163 77 q 58 380 58 255 q 109 593 58 506 q 254 726 159 681 q 481 772 349 772 q 709 727 615 772 q 854 594 804 682 q 904 380 904 506 q 852 167 904 256 q 704 32 799 78 q 481 -15 609 -15 m 481 169 q 666 379 666 169 q 619 538 666 488 q 481 588 572 588 q 344 538 391 588 q 297 381 297 488 q 481 169 297 169 m 213 919 l 213 1053 l 749 1053 l 749 919 l 213 919 z "},"ṓ":{"ha":963,"x_min":58,"x_max":904,"o":"m 481 -15 q 258 31 353 -15 q 110 166 163 77 q 58 380 58 255 q 109 593 58 506 q 254 726 159 681 q 481 772 349 772 q 709 727 615 772 q 854 594 804 682 q 904 380 904 506 q 852 167 904 256 q 704 32 799 78 q 481 -15 609 -15 m 481 169 q 666 379 666 169 q 619 538 666 488 q 481 588 572 588 q 344 538 391 588 q 297 381 297 488 q 481 169 297 169 m 213 919 l 213 1053 l 749 1053 l 749 919 l 213 919 m 369 1162 l 515 1372 l 771 1372 l 589 1162 l 369 1162 z "},"ṑ":{"ha":963,"x_min":58,"x_max":904,"o":"m 481 -15 q 258 31 353 -15 q 110 166 163 77 q 58 380 58 255 q 109 593 58 506 q 254 726 159 681 q 481 772 349 772 q 709 727 615 772 q 854 594 804 682 q 904 380 904 506 q 852 167 904 256 q 704 32 799 78 q 481 -15 609 -15 m 481 169 q 666 379 666 169 q 619 538 666 488 q 481 588 572 588 q 344 538 391 588 q 297 381 297 488 q 481 169 297 169 m 213 919 l 213 1053 l 749 1053 l 749 919 l 213 919 m 372 1162 l 190 1372 l 446 1372 l 591 1162 l 372 1162 z "},"ǫ":{"ha":963,"x_min":58,"x_max":904,"o":"m 647 9 q 503 -61 542 -24 q 463 -142 463 -98 q 487 -196 463 -176 q 555 -215 510 -215 q 644 -197 599 -215 l 648 -284 q 588 -301 618 -296 q 520 -307 558 -307 q 377 -268 426 -307 q 327 -162 327 -229 q 349 -78 327 -115 q 417 -11 370 -41 q 226 49 307 0 q 102 181 146 97 q 58 380 58 265 q 109 593 58 506 q 254 726 159 681 q 481 772 349 772 q 709 727 615 772 q 854 594 804 682 q 904 380 904 506 q 836 141 904 236 q 647 9 768 47 m 297 381 q 481 169 297 169 q 666 379 666 169 q 619 538 666 488 q 481 588 572 588 q 344 538 391 588 q 297 381 297 488 z "},"ø":{"ha":963,"x_min":58,"x_max":904,"o":"m 788 676 q 875 551 845 625 q 904 380 904 476 q 852 167 904 256 q 704 32 799 78 q 481 -15 609 -15 q 273 24 363 -15 l 216 -47 l 129 24 l 177 85 q 89 210 119 135 q 58 380 58 285 q 109 593 58 506 q 254 726 159 681 q 481 772 349 772 q 691 735 601 772 l 749 807 l 835 735 l 788 676 m 481 590 q 342 540 390 590 q 295 381 295 490 q 319 253 295 303 l 573 574 q 481 590 535 590 m 481 167 q 620 218 573 167 q 668 379 668 269 q 644 505 668 456 l 390 183 q 481 167 429 167 z "},"ǿ":{"ha":963,"x_min":58,"x_max":904,"o":"m 788 676 q 875 551 845 625 q 904 380 904 476 q 852 167 904 256 q 704 32 799 78 q 481 -15 609 -15 q 273 24 363 -15 l 216 -47 l 129 24 l 177 85 q 89 210 119 135 q 58 380 58 285 q 109 593 58 506 q 254 726 159 681 q 481 772 349 772 q 691 735 601 772 l 749 807 l 835 735 l 788 676 m 481 590 q 342 540 390 590 q 295 381 295 490 q 319 253 295 303 l 573 574 q 481 590 535 590 m 481 167 q 620 218 573 167 q 668 379 668 269 q 644 505 668 456 l 390 183 q 481 167 429 167 m 363 856 l 544 1122 l 808 1122 l 592 856 l 363 856 z "},"õ":{"ha":963,"x_min":58,"x_max":904,"o":"m 481 -15 q 258 31 353 -15 q 110 166 163 77 q 58 380 58 255 q 109 593 58 506 q 254 726 159 681 q 481 772 349 772 q 709 727 615 772 q 854 594 804 682 q 904 380 904 506 q 852 167 904 256 q 704 32 799 78 q 481 -15 609 -15 m 481 169 q 666 379 666 169 q 619 538 666 488 q 481 588 572 588 q 344 538 391 588 q 297 381 297 488 q 481 169 297 169 m 599 890 q 539 899 567 890 q 469 924 511 907 q 409 947 434 940 q 358 955 383 955 q 282 941 316 955 q 213 896 248 927 l 213 1038 q 280 1078 243 1065 q 363 1092 316 1092 q 423 1083 395 1092 q 494 1058 451 1075 q 554 1035 528 1042 q 605 1027 579 1027 q 681 1041 647 1027 q 749 1086 715 1055 l 749 944 q 683 903 719 917 q 599 890 647 890 z "},"ṍ":{"ha":963,"x_min":58,"x_max":904,"o":"m 481 -15 q 258 31 353 -15 q 110 166 163 77 q 58 380 58 255 q 109 593 58 506 q 254 726 159 681 q 481 772 349 772 q 709 727 615 772 q 854 594 804 682 q 904 380 904 506 q 852 167 904 256 q 704 32 799 78 q 481 -15 609 -15 m 481 169 q 666 379 666 169 q 619 538 666 488 q 481 588 572 588 q 344 538 391 588 q 297 381 297 488 q 481 169 297 169 m 599 890 q 539 899 567 890 q 469 924 511 907 q 409 947 434 940 q 358 955 383 955 q 282 941 316 955 q 213 896 248 927 l 213 1038 q 280 1078 243 1065 q 363 1092 316 1092 q 423 1083 395 1092 q 494 1058 451 1075 q 554 1035 528 1042 q 605 1027 579 1027 q 681 1041 647 1027 q 749 1086 715 1055 l 749 944 q 683 903 719 917 q 599 890 647 890 m 369 1162 l 515 1372 l 771 1372 l 589 1162 l 369 1162 z "},"ṏ":{"ha":963,"x_min":58,"x_max":904,"o":"m 481 -15 q 258 31 353 -15 q 110 166 163 77 q 58 380 58 255 q 109 593 58 506 q 254 726 159 681 q 481 772 349 772 q 709 727 615 772 q 854 594 804 682 q 904 380 904 506 q 852 167 904 256 q 704 32 799 78 q 481 -15 609 -15 m 481 169 q 666 379 666 169 q 619 538 666 488 q 481 588 572 588 q 344 538 391 588 q 297 381 297 488 q 481 169 297 169 m 599 890 q 539 899 567 890 q 469 924 511 907 q 409 947 434 940 q 358 955 383 955 q 282 941 316 955 q 213 896 248 927 l 213 1038 q 280 1078 243 1065 q 363 1092 316 1092 q 423 1083 395 1092 q 494 1058 451 1075 q 554 1035 528 1042 q 605 1027 579 1027 q 681 1041 647 1027 q 749 1086 715 1055 l 749 944 q 683 903 719 917 q 599 890 647 890 m 292 1148 q 197 1178 228 1148 q 165 1262 165 1208 q 197 1347 165 1317 q 292 1376 228 1376 q 387 1347 356 1376 q 419 1262 419 1317 q 387 1178 419 1208 q 292 1148 356 1148 m 670 1148 q 575 1178 607 1148 q 544 1262 544 1208 q 575 1347 544 1317 q 670 1376 607 1376 q 766 1347 734 1376 q 797 1262 797 1317 q 766 1178 797 1208 q 670 1148 734 1148 z "},"ȭ":{"ha":963,"x_min":58,"x_max":904,"o":"m 481 -15 q 258 31 353 -15 q 110 166 163 77 q 58 380 58 255 q 109 593 58 506 q 254 726 159 681 q 481 772 349 772 q 709 727 615 772 q 854 594 804 682 q 904 380 904 506 q 852 167 904 256 q 704 32 799 78 q 481 -15 609 -15 m 481 169 q 666 379 666 169 q 619 538 666 488 q 481 588 572 588 q 344 538 391 588 q 297 381 297 488 q 481 169 297 169 m 599 890 q 539 899 567 890 q 469 924 511 907 q 409 947 434 940 q 358 955 383 955 q 282 941 316 955 q 213 896 248 927 l 213 1038 q 280 1078 243 1065 q 363 1092 316 1092 q 423 1083 395 1092 q 494 1058 451 1075 q 554 1035 528 1042 q 605 1027 579 1027 q 681 1041 647 1027 q 749 1086 715 1055 l 749 944 q 683 903 719 917 q 599 890 647 890 m 213 1196 l 213 1330 l 749 1330 l 749 1196 l 213 1196 z "},"œ":{"ha":1479,"x_min":58,"x_max":1430,"o":"m 1430 314 l 903 314 q 933 223 907 257 q 1016 173 960 189 q 1168 157 1072 157 q 1382 181 1267 157 l 1382 11 q 1131 -15 1257 -15 q 914 15 1003 -15 q 772 103 825 44 q 646 15 722 45 q 471 -15 570 -15 q 255 31 348 -15 q 110 166 162 77 q 58 380 58 255 q 108 593 58 505 q 251 726 158 681 q 471 772 344 772 q 783 649 683 772 q 905 740 832 708 q 1069 772 978 772 q 1265 724 1185 772 q 1388 586 1346 676 q 1430 371 1430 497 l 1430 314 m 1056 626 q 943 582 981 626 q 901 445 904 538 l 1208 445 q 1167 582 1205 538 q 1056 626 1129 626 m 481 169 q 665 379 665 169 q 618 538 665 488 q 481 588 571 588 q 344 538 391 588 q 297 381 297 488 q 481 169 297 169 z "},"p":{"ha":981,"x_min":97,"x_max":922,"o":"m 97 760 l 298 760 l 311 681 l 322 681 q 427 748 366 724 q 563 772 489 772 q 747 732 666 772 q 874 608 827 692 q 922 396 922 524 q 868 173 922 265 q 715 33 815 81 q 474 -15 614 -15 q 338 -6 422 -15 l 338 -306 l 97 -306 l 97 760 m 458 166 q 628 219 572 166 q 683 379 683 272 q 499 581 683 581 q 410 566 452 581 q 338 521 368 551 l 338 178 q 458 166 397 166 z "},"þ":{"ha":981,"x_min":97,"x_max":922,"o":"m 97 1122 l 338 1122 l 338 687 l 349 687 q 582 772 438 772 q 755 730 678 772 q 876 605 831 689 q 922 396 922 520 q 868 173 922 265 q 715 33 815 81 q 474 -15 614 -15 q 338 -6 422 -15 l 338 -306 l 97 -306 l 97 1122 m 458 166 q 628 219 572 166 q 683 379 683 272 q 499 581 683 581 q 411 566 453 581 q 338 521 368 551 l 338 178 q 458 166 397 166 z "},"q":{"ha":981,"x_min":58,"x_max":883,"o":"m 643 70 l 632 70 q 397 -15 542 -15 q 225 26 302 -15 q 103 151 149 67 q 58 359 58 235 q 181 666 58 561 q 541 772 303 772 q 720 760 628 772 q 883 727 812 748 l 883 -306 l 643 -306 l 643 70 m 481 176 q 568 190 526 176 q 643 230 610 203 l 643 578 q 519 592 589 592 q 297 376 297 592 q 481 176 297 176 z "},"r":{"ha":628,"x_min":97,"x_max":619,"o":"m 97 760 l 293 760 l 312 669 l 323 669 q 418 744 360 718 q 547 770 476 770 q 619 764 587 770 l 619 552 q 533 559 585 559 q 424 541 478 559 q 338 488 369 522 l 338 0 l 97 0 l 97 760 z "},"ŕ":{"ha":628,"x_min":97,"x_max":690,"o":"m 97 760 l 293 760 l 312 669 l 323 669 q 418 744 360 718 q 547 770 476 770 q 619 764 587 770 l 619 552 q 533 559 585 559 q 424 541 478 559 q 338 488 369 522 l 338 0 l 97 0 l 97 760 m 244 856 l 426 1122 l 690 1122 l 474 856 l 244 856 z "},"ř":{"ha":628,"x_min":69,"x_max":649,"o":"m 97 760 l 293 760 l 312 669 l 323 669 q 418 744 360 718 q 547 770 476 770 q 619 764 587 770 l 619 552 q 533 559 585 559 q 424 541 478 559 q 338 488 369 522 l 338 0 l 97 0 l 97 760 m 469 1122 l 649 1122 l 453 856 l 265 856 l 69 1122 l 249 1122 l 359 967 l 469 1122 z "},"ŗ":{"ha":628,"x_min":83,"x_max":619,"o":"m 97 760 l 293 760 l 312 669 l 323 669 q 418 744 360 718 q 547 770 476 770 q 619 764 587 770 l 619 552 q 533 559 585 559 q 424 541 478 559 q 338 488 369 522 l 338 0 l 97 0 l 97 760 m 217 -89 q 351 -193 351 -89 q 336 -273 351 -231 q 295 -347 321 -315 l 149 -347 q 188 -246 180 -290 q 108 -222 133 -241 q 83 -168 83 -202 q 116 -109 83 -130 q 217 -89 149 -89 z "},"ȑ":{"ha":628,"x_min":-8,"x_max":619,"o":"m 97 760 l 293 760 l 312 669 l 323 669 q 418 744 360 718 q 547 770 476 770 q 619 764 587 770 l 619 552 q 533 559 585 559 q 424 541 478 559 q 338 488 369 522 l 338 0 l 97 0 l 97 760 m 123 856 l -8 1122 l 178 1122 l 295 856 l 123 856 m 423 856 l 292 1122 l 477 1122 l 595 856 l 423 856 z "},"ṛ":{"ha":628,"x_min":90,"x_max":619,"o":"m 97 760 l 293 760 l 312 669 l 323 669 q 418 744 360 718 q 547 770 476 770 q 619 764 587 770 l 619 552 q 533 559 585 559 q 424 541 478 559 q 338 488 369 522 l 338 0 l 97 0 l 97 760 m 217 -308 q 122 -278 154 -308 q 90 -199 90 -249 q 122 -118 90 -147 q 217 -89 154 -89 q 313 -118 281 -89 q 344 -199 344 -147 q 313 -278 344 -249 q 217 -308 281 -308 z "},"ȓ":{"ha":628,"x_min":72,"x_max":646,"o":"m 97 760 l 293 760 l 312 669 l 323 669 q 418 744 360 718 q 547 770 476 770 q 619 764 587 770 l 619 552 q 533 559 585 559 q 424 541 478 559 q 338 488 369 522 l 338 0 l 97 0 l 97 760 m 72 876 q 152 1056 78 991 q 358 1122 225 1122 q 566 1056 492 1122 q 646 876 640 990 l 501 876 q 358 1003 489 1003 q 217 876 229 1003 l 72 876 z "},"ṟ":{"ha":628,"x_min":-43,"x_max":619,"o":"m 97 760 l 293 760 l 312 669 l 323 669 q 418 744 360 718 q 547 770 476 770 q 619 764 587 770 l 619 552 q 533 559 585 559 q 424 541 478 559 q 338 488 369 522 l 338 0 l 97 0 l 97 760 m -43 -264 l -43 -131 l 478 -131 l 478 -264 l -43 -264 z "},"s":{"ha":793,"x_min":58,"x_max":747,"o":"m 364 -15 q 211 -6 285 -15 q 75 21 137 3 l 75 184 q 214 157 140 166 q 362 147 288 147 q 483 166 447 147 q 519 221 519 184 q 503 262 519 248 q 442 283 487 276 l 293 303 q 113 376 167 322 q 58 524 58 431 q 158 706 58 640 q 465 772 259 772 q 592 764 528 772 q 704 742 656 756 l 704 579 q 591 601 653 593 q 467 610 528 610 q 324 590 363 610 q 285 535 285 570 q 301 495 285 510 q 361 474 318 481 l 510 453 q 689 385 631 436 q 747 232 747 335 q 703 100 747 156 q 574 15 660 44 q 364 -15 488 -15 z "},"ś":{"ha":793,"x_min":58,"x_max":747,"o":"m 364 -15 q 211 -6 285 -15 q 75 21 137 3 l 75 184 q 214 157 140 166 q 362 147 288 147 q 483 166 447 147 q 519 221 519 184 q 503 262 519 248 q 442 283 487 276 l 293 303 q 113 376 167 322 q 58 524 58 431 q 158 706 58 640 q 465 772 259 772 q 592 764 528 772 q 704 742 656 756 l 704 579 q 591 601 653 593 q 467 610 528 610 q 324 590 363 610 q 285 535 285 570 q 301 495 285 510 q 361 474 318 481 l 510 453 q 689 385 631 436 q 747 232 747 335 q 703 100 747 156 q 574 15 660 44 q 364 -15 488 -15 m 290 856 l 471 1122 l 735 1122 l 519 856 l 290 856 z "},"ṥ":{"ha":793,"x_min":58,"x_max":747,"o":"m 364 -15 q 211 -6 285 -15 q 75 21 137 3 l 75 184 q 214 157 140 166 q 362 147 288 147 q 483 166 447 147 q 519 221 519 184 q 503 262 519 248 q 442 283 487 276 l 293 303 q 113 376 167 322 q 58 524 58 431 q 158 706 58 640 q 465 772 259 772 q 592 764 528 772 q 704 742 656 756 l 704 579 q 591 601 653 593 q 467 610 528 610 q 324 590 363 610 q 285 535 285 570 q 301 495 285 510 q 361 474 318 481 l 510 453 q 689 385 631 436 q 747 232 747 335 q 703 100 747 156 q 574 15 660 44 q 364 -15 488 -15 m 279 1094 q 191 1117 219 1094 q 162 1178 162 1139 q 191 1239 162 1216 q 279 1261 219 1261 q 367 1239 338 1261 q 396 1178 396 1216 q 367 1117 396 1139 q 279 1094 338 1094 m 290 856 l 471 1122 l 735 1122 l 519 856 l 290 856 z "},"š":{"ha":793,"x_min":58,"x_max":747,"o":"m 364 -15 q 211 -6 285 -15 q 75 21 137 3 l 75 184 q 214 157 140 166 q 362 147 288 147 q 483 166 447 147 q 519 221 519 184 q 503 262 519 248 q 442 283 487 276 l 293 303 q 113 376 167 322 q 58 524 58 431 q 158 706 58 640 q 465 772 259 772 q 592 764 528 772 q 704 742 656 756 l 704 579 q 591 601 653 593 q 467 610 528 610 q 324 590 363 610 q 285 535 285 570 q 301 495 285 510 q 361 474 318 481 l 510 453 q 689 385 631 436 q 747 232 747 335 q 703 100 747 156 q 574 15 660 44 q 364 -15 488 -15 m 515 1122 l 694 1122 l 499 856 l 310 856 l 115 1122 l 294 1122 l 404 967 l 515 1122 z "},"ṧ":{"ha":793,"x_min":58,"x_max":747,"o":"m 364 -15 q 211 -6 285 -15 q 75 21 137 3 l 75 184 q 214 157 140 166 q 362 147 288 147 q 483 166 447 147 q 519 221 519 184 q 503 262 519 248 q 442 283 487 276 l 293 303 q 113 376 167 322 q 58 524 58 431 q 158 706 58 640 q 465 772 259 772 q 592 764 528 772 q 704 742 656 756 l 704 579 q 591 601 653 593 q 467 610 528 610 q 324 590 363 610 q 285 535 285 570 q 301 495 285 510 q 361 474 318 481 l 510 453 q 689 385 631 436 q 747 232 747 335 q 703 100 747 156 q 574 15 660 44 q 364 -15 488 -15 m 404 1141 q 316 1164 344 1141 q 287 1224 287 1186 q 316 1285 287 1263 q 404 1308 344 1308 q 493 1285 464 1308 q 522 1224 522 1263 q 493 1164 522 1186 q 404 1141 464 1141 m 515 1122 l 694 1122 l 499 856 l 310 856 l 115 1122 l 294 1122 l 404 967 l 515 1122 z "},"ş":{"ha":793,"x_min":58,"x_max":747,"o":"m 747 232 q 675 71 747 133 q 466 -9 603 8 l 466 -59 q 558 -100 527 -68 q 588 -183 588 -132 q 541 -274 588 -242 q 404 -307 493 -307 q 330 -301 366 -307 q 265 -283 293 -294 l 265 -197 q 327 -214 292 -208 q 394 -220 363 -220 q 449 -209 431 -220 q 467 -172 467 -198 q 449 -135 467 -147 q 394 -124 431 -124 l 356 -124 l 356 -15 q 208 -5 280 -14 q 75 21 135 4 l 75 184 q 214 157 140 166 q 362 147 288 147 q 483 166 447 147 q 519 221 519 184 q 503 262 519 248 q 442 283 487 276 l 293 303 q 113 376 167 322 q 58 524 58 431 q 158 706 58 640 q 465 772 259 772 q 592 764 528 772 q 704 742 656 756 l 704 579 q 591 601 653 593 q 467 610 528 610 q 324 590 363 610 q 285 535 285 570 q 301 495 285 510 q 361 474 318 481 l 510 453 q 689 385 631 436 q 747 232 747 335 z "},"ŝ":{"ha":793,"x_min":58,"x_max":747,"o":"m 364 -15 q 211 -6 285 -15 q 75 21 137 3 l 75 184 q 214 157 140 166 q 362 147 288 147 q 483 166 447 147 q 519 221 519 184 q 503 262 519 248 q 442 283 487 276 l 293 303 q 113 376 167 322 q 58 524 58 431 q 158 706 58 640 q 465 772 259 772 q 592 764 528 772 q 704 742 656 756 l 704 579 q 591 601 653 593 q 467 610 528 610 q 324 590 363 610 q 285 535 285 570 q 301 495 285 510 q 361 474 318 481 l 510 453 q 689 385 631 436 q 747 232 747 335 q 703 100 747 156 q 574 15 660 44 q 364 -15 488 -15 m 692 856 l 513 856 l 404 1011 l 295 856 l 116 856 l 310 1122 l 499 1122 l 692 856 z "}}}
